<svg width="48" height="48" viewBox="0 0 48 48" fill="none" xmlns="http://www.w3.org/2000/svg">
<g clip-path="url(#clip0)">
<rect x="13" y="11" width="22" height="23" rx="3" stroke="#97B8FF" stroke-width="2"/>
<path d="M14 17H34" stroke="#97B8FF" stroke-width="2" stroke-linecap="round"/>
<path d="M22.0557 14H26.0001" stroke="#97B8FF" stroke-width="2" stroke-linecap="round"/>
<path d="M10 17V20" stroke="#97B8FF" stroke-width="2" stroke-linecap="round"/>
<path d="M38 17V20" stroke="#97B8FF" stroke-width="2" stroke-linecap="round"/>
<path d="M18.9287 25.0371C19.7089 23.1097 21.5985 22.4075 23.8057 22.4075C26.0128 22.4075 27.9024 23.1097 28.6826 25.0371" stroke="#97B8FF" stroke-width="2" stroke-linecap="round" stroke-linejoin="round"/>
<path d="M12.6296 25.0371H19.2037M28.4074 25.0371H34.9815" stroke="#97B8FF" stroke-width="2"/>
<path d="M18 29.5C18 30.3284 17.3284 31 16.5 31C15.6716 31 15 30.3284 15 29.5C15 28.6716 15.6716 28 16.5 28C17.3284 28 18 28.6716 18 29.5Z" fill="#97B8FF"/>
<path d="M33 29.5C33 30.3284 32.3284 31 31.5 31C30.6716 31 30 30.3284 30 29.5C30 28.6716 30.6716 28 31.5 28C32.3284 28 33 28.6716 33 29.5Z" fill="#97B8FF"/>
<path d="M21 30H27" stroke="#97B8FF" stroke-width="2" stroke-linecap="round"/>
<path d="M14 33V38C14 39.1046 14.8954 40 16 40V40C17.1046 40 18 39.1046 18 38V33" stroke="#97B8FF" stroke-width="2"/>
<path d="M30 33V38C30 39.1046 30.8954 40 32 40V40C33.1046 40 34 39.1046 34 38V33" stroke="#97B8FF" stroke-width="2"/>
</g>
<defs>
<clipPath id="clip0">
<rect width="48" height="48" fill="white"/>
</clipPath>
</defs>
</svg>
