<svg width="24" height="24" viewBox="0 0 24 24" fill="none" xmlns="http://www.w3.org/2000/svg">
    <path fill-rule="evenodd" clip-rule="evenodd" d="M4 5C2.34315 5 1 6.34315 1 8V17C1 18.6569 2.34315 20 4 20H20C21.6569 20 23 18.6569 23 17V8C23 6.34315 21.6569 5 20 5H4ZM17 10.5C17 9.67157 17.6716 9 18.5 9C19.3284 9 20 9.67157 20 10.5C20 11.3284 19.3284 12 18.5 12C17.6716 12 17 11.3284 17 10.5ZM5 11C4.44772 11 4 11.4477 4 12C4 12.5523 4.44772 13 5 13H9C9.55228 13 10 12.5523 10 12C10 11.4477 9.55228 11 9 11H5ZM5 15C4.44772 15 4 15.4477 4 16C4 16.5523 4.44772 17 5 17H19.2232C19.7755 17 20.2232 16.5523 20.2232 16C20.2232 15.4477 19.7755 15 19.2232 15H5Z" fill="#4C85FF"/>
</svg>
