<svg width="24" height="24" viewBox="0 0 24 24" fill="none" xmlns="http://www.w3.org/2000/svg">
<path fill-rule="evenodd" clip-rule="evenodd" d="M17.2996 7.2928C17.6902 7.68332 17.6902 8.31649 17.2996 8.70701L8.76794 17.2387C8.37741 17.6292 7.74425 17.6292 7.35372 17.2387C6.9632 16.8482 6.9632 16.215 7.35372 15.8245L15.8854 7.2928C16.2759 6.90228 16.9091 6.90228 17.2996 7.2928Z" fill="#A6C2FF"/>
<path fill-rule="evenodd" clip-rule="evenodd" d="M7.29292 7.29314C7.68345 6.90261 8.31661 6.90261 8.70714 7.29314L17.2388 15.8248C17.6294 16.2154 17.6294 16.8485 17.2388 17.2391C16.8483 17.6296 16.2151 17.6296 15.8246 17.2391L7.29292 8.70735C6.9024 8.31683 6.9024 7.68366 7.29292 7.29314Z" fill="#A6C2FF"/>
</svg>
