<svg width="48" height="48" viewBox="0 0 48 48" fill="none" xmlns="http://www.w3.org/2000/svg">
    <mask id="path-2-inside-1_7532_68070" fill="white">
        <path fill-rule="evenodd" clip-rule="evenodd"
            d="M13 14C10.2386 14 8 16.2386 8 19V31C8 33.7614 10.2386 36 13 36H35C37.7614 36 40 33.7614 40 31V28.1359C38.3246 28.0275 37 26.6649 37 24.9999C37 23.3349 38.3246 21.9723 40 21.864V19C40 16.2386 37.7614 14 35 14H13Z" />
    </mask>
    <path
        d="M40 28.1359H42V26.261L40.129 26.14L40 28.1359ZM40 21.864L40.129 23.8598L42 23.7389V21.864H40ZM10 19C10 17.3431 11.3431 16 13 16V12C9.13401 12 6 15.134 6 19H10ZM10 31V19H6V31H10ZM13 34C11.3431 34 10 32.6569 10 31H6C6 34.866 9.13401 38 13 38V34ZM35 34H13V38H35V34ZM38 31C38 32.6569 36.6569 34 35 34V38C38.866 38 42 34.866 42 31H38ZM38 28.1359V31H42V28.1359H38ZM40.129 26.14C39.4598 26.0968 39 25.5648 39 24.9999H35C35 27.7651 37.1895 29.9583 39.871 30.1317L40.129 26.14ZM39 24.9999C39 24.435 39.4598 23.9031 40.129 23.8598L39.871 19.8682C37.1895 20.0415 35 22.2348 35 24.9999H39ZM38 19V21.864H42V19H38ZM35 16C36.6569 16 38 17.3431 38 19H42C42 15.134 38.866 12 35 12V16ZM13 16H35V12H13V16Z"
        fill="#97B8FF" mask="url(#path-2-inside-1_7532_68070)" />
    <path d="M32 23V34" stroke="#97B8FF" stroke-width="2" stroke-linecap="round" />
    <path d="M32 16V18" stroke="#97B8FF" stroke-width="2" stroke-linecap="round" />
    <path d="M17 23H25" stroke="#97B8FF" stroke-width="2" stroke-linecap="round" />
    <path d="M17 27H18" stroke="#97B8FF" stroke-width="2" stroke-linecap="round" />
</svg>
