<svg width="48" height="48" viewBox="0 0 48 48" fill="none" xmlns="http://www.w3.org/2000/svg">
    <rect opacity="0.2" width="48" height="48" rx="13" fill="#4C85FF"/>
    <mask id="path-2-inside-1" fill="white">
        <path fill-rule="evenodd" clip-rule="evenodd" d="M13 13C10.2386 13 8 15.2386 8 18V30.0001C8 32.7615 10.2386 35.0001 13 35.0001H35C37.7614 35.0001 40 32.7615 40 30.0001V27.0438C39.7443 27.1084 39.4763 27.1428 39.2 27.1428C37.4327 27.1428 36 25.7357 36 23.9999C36 22.2642 37.4327 20.8571 39.2 20.8571C39.4763 20.8571 39.7443 20.8914 40 20.9561V18C40 15.2386 37.7614 13 35 13H13Z"/>
    </mask>
    <path d="M40 27.0438H42V24.4753L39.5099 25.1048L40 27.0438ZM40 20.9561L39.5099 22.8951L42 23.5245V20.9561H40ZM10 18C10 16.3431 11.3431 15 13 15V11C9.13401 11 6 14.134 6 18H10ZM10 30.0001V18H6V30.0001H10ZM13 33.0001C11.3431 33.0001 10 31.657 10 30.0001H6C6 33.8661 9.13401 37.0001 13 37.0001V33.0001ZM35 33.0001H13V37.0001H35V33.0001ZM38 30.0001C38 31.657 36.6569 33.0001 35 33.0001V37.0001C38.866 37.0001 42 33.8661 42 30.0001H38ZM38 27.0438V30.0001H42V27.0438H38ZM39.5099 25.1048C39.4132 25.1292 39.3098 25.1428 39.2 25.1428V29.1428C39.6427 29.1428 40.0754 29.0876 40.4901 28.9828L39.5099 25.1048ZM39.2 25.1428C38.5032 25.1428 38 24.5973 38 23.9999H34C34 26.8741 36.3623 29.1428 39.2 29.1428V25.1428ZM38 23.9999C38 23.4025 38.5032 22.8571 39.2 22.8571V18.8571C36.3623 18.8571 34 21.1258 34 23.9999H38ZM39.2 22.8571C39.3098 22.8571 39.4132 22.8707 39.5099 22.8951L40.4901 19.0171C40.0754 18.9122 39.6427 18.8571 39.2 18.8571V22.8571ZM38 18V20.9561H42V18H38ZM35 15C36.6569 15 38 16.3431 38 18H42C42 14.134 38.866 11 35 11V15ZM13 15H35V11H13V15Z" fill="#4C85FF" mask="url(#path-2-inside-1)"/>
    <circle cx="16" cy="20" r="1" fill="white" stroke="#4C85FF" stroke-width="2"/>
    <circle cx="24" cy="28" r="1" fill="white" stroke="#4C85FF" stroke-width="2"/>
    <path d="M25 19L15 29" stroke="#4C85FF" stroke-width="2" stroke-linecap="round"/>
    <path d="M31 22V33" stroke="#4C85FF" stroke-width="2" stroke-linecap="round"/>
    <path d="M31 15V17" stroke="#4C85FF" stroke-width="2" stroke-linecap="round"/>
</svg>
