<svg width="57" height="57" viewBox="0 0 57 57" fill="none" xmlns="http://www.w3.org/2000/svg">
<path d="M19.19 2.45111C15.0989 3.58274 9.25161 7.54088 5.63979 12.8456C2.46207 17.6472 0.489672 23.6553 1.0401 29.4501C1.47491 32.9379 2.77933 36.2803 2.21452 39.7911" stroke="#97B8FF" stroke-miterlimit="10" stroke-linecap="round" stroke-linejoin="round"/>
<path d="M55.9997 31.4672C55.8199 24.1377 54.2876 17.3622 49.5867 11.5332C43.1988 3.61292 32.4374 -0.603524 22.4087 1.56725" stroke="#97B8FF" stroke-miterlimit="10" stroke-linecap="round" stroke-linejoin="round"/>
<path d="M45.9556 12.9282C41.1877 7.36147 34.0859 4.45502 26.984 4.89098C17.9979 5.32695 9.59163 11.4305 6.49463 19.9997" stroke="#97B8FF" stroke-miterlimit="10" stroke-linecap="round" stroke-linejoin="round"/>
<path d="M52.0495 29.3583C51.6018 24.0778 50.464 19.5688 47.6807 15.4133" stroke="#97B8FF" stroke-miterlimit="10" stroke-linecap="round" stroke-linejoin="round"/>
<path d="M52.1133 42.6459C52.493 39.7683 52.493 35.8446 52.2756 32.3568" stroke="#97B8FF" stroke-miterlimit="10" stroke-linecap="round" stroke-linejoin="round"/>
<path d="M5.60107 22.8765C5.18604 24.6001 4.97062 26.3705 4.96209 28.1423C4.94567 31.5509 6.10946 34.7713 6.30851 38.1489C6.4324 40.2513 5.99057 42.337 5.24525 44.2966" stroke="#97B8FF" stroke-miterlimit="10" stroke-linecap="round" stroke-linejoin="round"/>
<path d="M20.8386 10.3124C14.6484 12.8049 9.98823 18.4326 9.03629 25.0908C8.42281 29.3817 9.77886 33.4678 10.0368 37.7339C10.23 40.9306 9.86217 44.3719 7.83887 47.4872" stroke="#97B8FF" stroke-miterlimit="10" stroke-linecap="round" stroke-linejoin="round"/>
<path d="M47.9877 28.3805C47.4088 22.7027 45.1932 17.4547 41.3328 13.8293C36.7454 9.52125 30.0737 8.00231 23.9937 9.33945" stroke="#97B8FF" stroke-miterlimit="10" stroke-linecap="round" stroke-linejoin="round"/>
<path d="M48.5025 31.668C49.0473 36.9868 48.8132 42.7431 47.9878 48.3205" stroke="#97B8FF" stroke-miterlimit="10" stroke-linecap="round" stroke-linejoin="round"/>
<path d="M38.3687 16.5304C35.649 14.2145 32.1059 12.8136 28.2309 12.8136C19.6582 12.8136 12.7085 19.6688 12.7085 28.1249C12.7085 29.029 12.7885 29.9146 12.941 30.7756" stroke="#97B8FF" stroke-miterlimit="10" stroke-linecap="round" stroke-linejoin="round"/>
<path d="M44.9061 38.3295C44.9061 34.763 44.535 22.9511 40.4443 18.674" stroke="#97B8FF" stroke-miterlimit="10" stroke-linecap="round" stroke-linejoin="round"/>
<path d="M44.7609 41.6129C44.4758 45.1983 44.1013 48.8102 43.3364 52.1577" stroke="#97B8FF" stroke-miterlimit="10" stroke-linecap="round" stroke-linejoin="round"/>
<path d="M13.4155 33.5871C14.6169 39.7042 13.7825 45.2142 10.6323 50.034" stroke="#97B8FF" stroke-miterlimit="10" stroke-linecap="round" stroke-linejoin="round"/>
<path d="M38.3684 54.4914C40.9954 47.6625 42.2128 33.4102 39.6212 24.9454C37.4878 17.9769 30.7909 16.5956 28.2306 16.5956C22.7131 16.5956 17.348 20.8915 16.8057 26.175C16.3303 30.8056 17.9947 35.2261 17.7921 39.841C17.5718 44.8573 16.1007 49.025 13.5566 52.465" stroke="#97B8FF" stroke-miterlimit="10" stroke-linecap="round" stroke-linejoin="round"/>
<path d="M17.0083 54.2586C17.7181 53.1675 18.2827 51.9311 18.9925 50.84" stroke="#97B8FF" stroke-miterlimit="10" stroke-linecap="round" stroke-linejoin="round"/>
<path d="M20.1753 48.0301C21.2903 45.4424 21.8687 42.7281 21.9447 39.7685C22.0882 34.1736 20.5044 31.8474 20.5044 27.8405C20.5044 24.961 21.7916 23.0137 23.9512 21.5654" stroke="#97B8FF" stroke-miterlimit="10" stroke-linecap="round" stroke-linejoin="round"/>
<path d="M35.9499 49.1415C37.0347 44.0473 37.5683 38.9973 37.101 33.8099C36.7614 30.0404 36.2563 24.7043 33.0719 22.12C31.3046 20.6857 28.893 20.1174 26.6523 20.5754" stroke="#97B8FF" stroke-miterlimit="10" stroke-linecap="round" stroke-linejoin="round"/>
<path d="M33.4956 55.9406C34.207 54.7489 34.7699 53.4511 35.1353 52.0121" stroke="#97B8FF" stroke-miterlimit="10" stroke-linecap="round" stroke-linejoin="round"/>
<path d="M29.0957 56.4494C31.0365 52.9378 32.2539 48.8753 32.7942 44.2972" stroke="#97B8FF" stroke-miterlimit="10" stroke-linecap="round" stroke-linejoin="round"/>
<path d="M33.1505 41.1688C33.4692 37.1782 33.0203 32.5703 32.1727 27.642C31.8191 25.7474 30.2022 24.3159 28.2597 24.3159C26.0585 24.3159 24.274 26.1539 24.274 28.4214C24.274 28.7951 24.3234 29.1567 24.4142 29.5008C25.7009 34.6044 25.9154 39.5374 25.0406 44.2967C24.284 48.5552 22.8296 52.3951 20.8389 55.656" stroke="#97B8FF" stroke-miterlimit="10" stroke-linecap="round" stroke-linejoin="round"/>
<path d="M24.7285 56.2261L26.2647 53.2287" stroke="#97B8FF" stroke-miterlimit="10" stroke-linecap="round" stroke-linejoin="round"/>
<path d="M27.4087 50.4827C29.8409 44.1077 30.1013 36.6578 28.1264 28.2286" stroke="#97B8FF" stroke-miterlimit="10" stroke-linecap="round" stroke-linejoin="round"/>
</svg>
