<svg width="96" height="96" viewBox="0 0 96 96" fill="none" xmlns="http://www.w3.org/2000/svg">
<path d="M46.9116 42.3677C46.0492 42.6183 45.5513 43.5197 45.8002 44.3837C45.8441 44.5351 50.1886 59.9897 48.9927 94.316C48.9601 95.2158 49.6631 95.9691 50.5612 95.9984C50.5808 96 50.6003 96 50.6198 96C51.492 96 52.2128 95.3085 52.2437 94.4299C53.4592 59.5862 49.1115 44.1201 48.9276 43.479C48.6786 42.615 47.7788 42.1236 46.9116 42.3677Z" fill="#97B8FF"/>
<path d="M87.8256 26.8137C80.933 10.526 65.052 0 47.3649 0C41.5284 0 35.8366 1.14063 30.4491 3.38934C27.4649 4.63411 24.6451 6.11481 22.0677 7.78915C21.3143 8.28055 21.0996 9.28775 21.5893 10.0411C22.0807 10.7945 23.0896 11.0093 23.8413 10.5195C26.2543 8.95093 28.8985 7.56297 31.702 6.39306C36.6925 4.30868 41.9612 3.25429 47.3649 3.25429C63.7405 3.25429 78.4467 12.9993 84.8267 28.0829C87.479 34.3539 88.9125 45.9002 89.5308 52.2265C89.6138 53.0677 90.32 53.6942 91.1482 53.6942C91.2003 53.6942 91.254 53.6909 91.3093 53.686C92.2026 53.5982 92.8567 52.8025 92.7688 51.9076C91.9927 43.9573 90.5055 33.1482 87.8256 26.8137Z" fill="#97B8FF"/>
<path d="M17.2449 15.801C17.886 15.1713 17.8909 14.1397 17.2612 13.5002C16.6315 12.8608 15.6015 12.8543 14.9604 13.484C6.20958 22.1046 -2.50704 38.1368 5.65798 65.5477C5.86788 66.2556 6.51386 66.7112 7.21678 66.7112C7.36974 66.7112 7.52594 66.6884 7.68052 66.6428C8.54128 66.3873 9.03268 65.481 8.77559 64.6203C2.67867 44.1475 5.60591 27.2675 17.2449 15.801Z" fill="#97B8FF"/>
<path d="M48.6155 9.78561C43.6364 9.59198 38.7908 10.4885 34.2104 12.3988C18.2546 19.0555 9.77066 36.601 14.478 53.2141C14.9482 54.8755 15.4299 56.6425 15.6886 58.4031C16.2711 62.388 16.302 69.7215 16.302 81.354C16.302 82.2538 17.0294 82.9812 17.9292 82.9812C18.829 82.9812 19.5563 82.2538 19.5563 81.354C19.5563 69.2188 19.5254 62.1472 18.9087 57.9296C18.6223 55.9738 18.1098 54.0896 17.6086 52.3257C13.3504 37.2974 21.0256 21.423 35.4633 15.4009C39.6093 13.6712 44.0205 12.8853 48.5 13.035C60.0706 13.4516 73.1854 23.6505 77.141 35.309C80.5645 45.3957 80.5938 62.58 80.1691 78.0558C80.1447 78.954 80.8542 79.7025 81.7523 79.7269C82.6343 79.7106 83.399 79.0451 83.4234 78.1437C83.8546 62.3782 83.8107 44.8343 80.2228 34.2611C75.8019 21.2326 61.6229 10.251 48.6155 9.78561Z" fill="#97B8FF"/>
<path d="M47.365 19.5259C45.5963 19.5259 43.8357 19.7163 42.1289 20.0938C41.2518 20.2874 40.697 21.1547 40.8906 22.0333C41.0842 22.9103 41.9417 23.4538 42.8302 23.2716C44.306 22.9461 45.8322 22.7802 47.3634 22.7802C55.8782 22.7802 63.5258 27.8471 66.8436 35.6916C70.7975 45.0314 71.0563 60.0223 70.1434 86.1803C70.1109 87.0785 70.8138 87.8335 71.712 87.8628C71.7315 87.8644 71.751 87.8644 71.7706 87.8644C72.6427 87.8644 73.3635 87.1729 73.3945 86.2942C74.3447 59.0834 74.0551 44.3822 69.8391 34.4224C66.0137 25.3738 57.1913 19.5259 47.365 19.5259Z" fill="#97B8FF"/>
<path d="M35.2788 26.5829C36.0143 26.067 36.1933 25.0517 35.6758 24.3162C35.1617 23.5808 34.1447 23.4002 33.4092 23.9192C25.0294 29.803 21.3879 41.1068 24.3542 52.0607C24.3883 52.1795 27.6914 64.2025 27.6914 82.983C27.6914 83.8828 28.4188 84.6101 29.3186 84.6101C30.2184 84.6101 30.9457 83.8828 30.9457 82.983C30.9457 63.7615 27.6296 51.6897 27.4913 51.1967C24.8862 41.5737 28.0169 31.6823 35.2788 26.5829Z" fill="#97B8FF"/>
<path d="M63.4907 78.1127C63.4972 77.2128 62.7747 76.4806 61.8749 76.4741C61.8717 76.4741 61.8668 76.4741 61.8635 76.4741C60.9702 76.4741 60.2429 77.1949 60.2364 78.0899C60.2283 79.3135 60.2689 81.1001 60.3129 83.0299C60.3763 85.8367 60.4479 89.0178 60.378 91.0631C60.3454 91.9613 61.0483 92.7147 61.9482 92.744C61.9677 92.7456 61.9856 92.7456 62.0051 92.7456C62.8773 92.7456 63.5981 92.0541 63.629 91.1738C63.7038 89.0373 63.6306 85.8058 63.5655 82.955C63.5216 81.0643 63.4825 79.3119 63.4907 78.1127Z" fill="#97B8FF"/>
<path d="M47.3642 30.916C45.6362 30.916 43.9505 31.2545 42.351 31.9216C36.0181 34.5641 32.9412 41.7089 35.1915 48.5413C36.4184 52.2658 37.4549 71.7639 37.4549 91.1188C37.4549 92.0186 38.1822 92.7459 39.082 92.7459C39.9818 92.7459 40.7092 92.0186 40.7092 91.1188C40.7092 73.6969 39.7817 52.0754 38.2847 47.5243C36.5697 42.3223 38.8591 36.9055 43.6055 34.9253C44.8047 34.4241 46.069 34.1703 47.3642 34.1703C51.2938 34.1703 54.823 36.5101 56.3607 40.1419C59.3986 47.3323 60.3017 60.3495 60.5229 70.0049C60.5441 70.8901 61.2682 71.5947 62.1501 71.5947C62.1615 71.5947 62.1761 71.5947 62.1875 71.5947C63.0857 71.5735 63.7968 70.8283 63.7772 69.9301C63.5478 59.9947 62.5959 46.5399 59.3514 38.863C57.311 34.0353 52.6052 30.916 47.3642 30.916Z" fill="#97B8FF"/>
</svg>
