<svg width="24" height="25" viewBox="0 0 24 25" fill="none" xmlns="http://www.w3.org/2000/svg">
<rect x="12" y="10" width="1" height="7" rx="0.5" fill="#4C85FF"/>
<rect x="12" y="8" width="1" height="1" rx="0.5" fill="#4C85FF"/>
<path d="M12.5 3.5C17.3427 3.5 21.5 7.65731 21.5 12.5C21.5 17.3427 17.3427 21.5 12.5 21.5C10.9275 21.5 9.27228 21.0804 7.97095 20.3631C7.59994 20.1586 7.14466 20.0912 6.71252 20.2353L4.73937 20.8931C4.34848 21.0234 3.97659 20.6515 4.1069 20.2606L4.76468 18.2875C4.90875 17.8553 4.8414 17.4 4.63687 17.029C3.91955 15.7278 3.5 14.0725 3.5 12.5C3.5 7.65731 7.65731 3.5 12.5 3.5Z" stroke="#4C85FF" stroke-width="0.999999"/>
</svg>
