<svg width="48" height="48" viewBox="0 0 48 48" fill="none" xmlns="http://www.w3.org/2000/svg">
    <path fill-rule="evenodd" clip-rule="evenodd"
        d="M13 15C11.3431 15 10 16.3431 10 18V30C10 31.6569 11.3431 33 13 33H31V22C31 21.4477 31.4477 21 32 21C32.5523 21 33 21.4477 33 22V33H35C36.6569 33 38 31.6569 38 30V28.6555C36.2416 27.8402 35 26.0822 35 23.9999C35 21.9176 36.2416 20.1596 38 19.3443V18C38 16.3431 36.6569 15 35 15H33V17C33 17.5523 32.5523 18 32 18C31.4477 18 31 17.5523 31 17V15H13ZM40 20.864C38.3246 20.9723 37 22.3349 37 23.9999C37 25.6649 38.3246 27.0275 40 27.1359V30C40 32.7614 37.7614 35 35 35H13C10.2386 35 8 32.7614 8 30V18C8 15.2386 10.2386 13 13 13H35C37.7614 13 40 15.2386 40 18V20.864ZM15 22C15 21.4477 15.4477 21 16 21H25C25.5523 21 26 21.4477 26 22C26 22.5523 25.5523 23 25 23H16C15.4477 23 15 22.5523 15 22ZM16 25C15.4477 25 15 25.4477 15 26C15 26.5523 15.4477 27 16 27H17C17.5523 27 18 26.5523 18 26C18 25.4477 17.5523 25 17 25H16Z"
        fill="#97B8FF" />
</svg>
