<svg width="73" height="40" viewBox="0 0 73 40" fill="none" xmlns="http://www.w3.org/2000/svg">
    <defs>
        <clipPath id="clip0_9726_40364">
            <rect width="73" height="40" fill="white" />
        </clipPath>
    </defs>
    <g clip-path="url(#clip0_9726_40364)">
        <path d="M73.0003 14.9082V25.1665H69.5033V17.934H66.0791V25.1665H62.5093V14.9082H73.0003Z"
            fill="white" />
        <path
            d="M60.7606 20.3695C60.8334 23.3215 58.4292 25.4617 55.078 25.4617C51.8724 25.4617 49.1768 23.5429 49.1768 18.7459C49.1768 14.6868 51.7267 11.3658 55.5151 11.292C57.1907 11.292 60.7606 11.292 60.7606 11.292L59.0849 14.3178H55.8793C54.2766 14.3178 52.8195 15.4248 52.6009 17.1222C53.4752 16.3104 54.7865 15.7938 56.2436 15.7938C58.7935 15.7938 60.6877 18.0817 60.7606 20.3695ZM57.1907 20.5909C57.1907 19.4101 56.3165 18.3769 55.078 18.3769C53.8394 18.3769 52.8923 19.4101 52.9652 20.5909C52.9652 21.8455 54.058 22.7311 55.0051 22.7311C56.2436 22.7311 57.1907 21.7717 57.1907 20.5909Z"
            fill="white" />
        <path
            d="M46.4082 21.6234C46.4082 21.6234 45.2426 22.4352 43.6398 22.4352C42.6198 22.4352 41.3084 21.5496 41.3084 19.9998C41.3084 18.4499 42.6198 17.5643 43.6398 17.5643C45.1697 17.4905 46.4082 18.3761 46.4082 18.3761L47.7196 15.9407C46.5539 15.0551 45.3883 14.6123 43.7855 14.6123C40.2885 14.6123 37.8843 17.4905 37.8843 19.9998C37.8843 22.9518 40.507 25.461 43.7126 25.461C45.0969 25.461 46.5539 25.0182 47.6468 24.1326L46.4082 21.6234Z"
            fill="white" />
        <path d="M9.90818 20L4.80838 23.0258L0 31.4391L19.5249 20H9.90818Z" fill="#874691" />
        <path d="M24.6245 11.3652L19.5247 14.3911L14.7163 22.8044L34.2413 11.3652H24.6245Z"
            fill="#DA1844" />
        <path d="M19.5247 8.41328L14.7163 0V17.1956V22.8044V40L19.5247 31.5867V8.41328Z"
            fill="#F9B229" />
        <path d="M14.7163 0L19.5247 8.41328L24.6245 11.3653H34.2413L14.7163 0Z" fill="#F07F1A" />
        <path d="M14.7163 17.1953V39.9997L19.5247 31.5865V25.6086L14.7163 17.1953Z"
            fill="#72B22C" />
        <path d="M24.6245 28.6348L19.5247 31.5868L14.7163 40.0001L34.2413 28.6348H24.6245Z"
            fill="#00743E" />
        <path d="M0 8.63477V31.4392L4.80838 23.0259V16.9742L0 8.63477Z" fill="#5F5A94" />
        <path
            d="M14.7166 17.1957L0 8.63477L4.80838 16.9743L24.6248 28.6348H34.2415L14.7166 17.1957Z"
            fill="#0D90CD" />
    </g>
</svg>
