<svg width="48" height="48" viewBox="0 0 48 48" fill="none" xmlns="http://www.w3.org/2000/svg">
<path d="M14.5701 13.6426C14.751 12.1348 16.0301 11 17.5487 11H30.4513C31.9699 11 33.249 12.1348 33.4299 13.6426L35.4699 30.6426C35.6842 32.4283 34.2899 34 32.4913 34H15.5087C13.7101 34 12.3158 32.4283 12.5301 30.6426L14.5701 13.6426Z" stroke="#97B8FF" stroke-width="2"/>
<path d="M11 17H36.5" stroke="#97B8FF" stroke-width="2" stroke-linecap="round"/>
<path d="M22.0557 14H26.0001" stroke="#97B8FF" stroke-width="2" stroke-linecap="round"/>
<path d="M11 17V20" stroke="#97B8FF" stroke-width="2" stroke-linecap="round"/>
<path d="M37 17V20" stroke="#97B8FF" stroke-width="2" stroke-linecap="round"/>
<path d="M18.9287 25.0371C19.7089 23.1097 21.5985 22.4075 23.8057 22.4075C26.0128 22.4075 27.9024 23.1097 28.6826 25.0371" stroke="#97B8FF" stroke-width="2" stroke-linecap="round" stroke-linejoin="round"/>
<path d="M13.5 25.0371H19.2037M28.4074 25.0371H34.5" stroke="#97B8FF" stroke-width="2"/>
<path d="M18 29.5C18 30.3284 17.3284 31 16.5 31C15.6716 31 15 30.3284 15 29.5C15 28.6716 15.6716 28 16.5 28C17.3284 28 18 28.6716 18 29.5Z" fill="#97B8FF"/>
<path d="M33 29.5C33 30.3284 32.3284 31 31.5 31C30.6716 31 30 30.3284 30 29.5C30 28.6716 30.6716 28 31.5 28C32.3284 28 33 28.6716 33 29.5Z" fill="#97B8FF"/>
<path d="M22 30H26" stroke="#97B8FF" stroke-width="2" stroke-linecap="round"/>
<path d="M15 33V38C15 39.1046 15.8954 40 17 40V40C18.1046 40 19 39.1046 19 38V33" stroke="#97B8FF" stroke-width="2"/>
<path d="M29 33V38C29 39.1046 29.8954 40 31 40V40C32.1046 40 33 39.1046 33 38V33" stroke="#97B8FF" stroke-width="2"/>
</svg>
