<svg width="48" height="48" viewBox="0 0 48 48" fill="none" xmlns="http://www.w3.org/2000/svg">
<g clip-path="url(#clip0)">
<rect x="13" y="13" width="22" height="23" rx="3" stroke="#97B8FF" stroke-width="2"/>
<path d="M13.9999 18C13.4476 18 12.9999 18.4477 12.9999 19C12.9999 19.5523 13.4476 20 13.9999 20V18ZM33.9999 20C34.5522 20 34.9999 19.5523 34.9999 19C34.9999 18.4477 34.5522 18 33.9999 18V20ZM22.5463 9.99999L21.8391 10.7071C22.0267 10.8946 22.281 11 22.5463 11V9.99999ZM25.1759 9.99999V11C25.4411 11 25.6955 10.8946 25.883 10.7071L25.1759 9.99999ZM29.8274 6.76265C30.218 6.37212 30.218 5.73896 29.8274 5.34844C29.4369 4.95791 28.8037 4.95791 28.4132 5.34844L29.8274 6.76265ZM19.3089 5.34844C18.9184 4.95791 18.2852 4.95791 17.8947 5.34844C17.5042 5.73896 17.5042 6.37212 17.8947 6.76265L19.3089 5.34844ZM13.9999 20H33.9999V18H13.9999V20ZM22.5463 11H25.1759V8.99999H22.5463V11ZM25.883 10.7071L29.8274 6.76265L28.4132 5.34844L24.4688 9.29288L25.883 10.7071ZM17.8947 6.76265L21.8391 10.7071L23.2534 9.29288L19.3089 5.34844L17.8947 6.76265Z" fill="#97B8FF"/>
<path d="M22.0557 16H26.0001" stroke="#97B8FF" stroke-width="2" stroke-linecap="round"/>
<path d="M10 19V22" stroke="#97B8FF" stroke-width="2" stroke-linecap="round"/>
<path d="M38 19V22" stroke="#97B8FF" stroke-width="2" stroke-linecap="round"/>
<path d="M18.9286 27.037C19.7088 25.1096 21.5984 24.4073 23.8055 24.4073C26.0127 24.4073 27.9023 25.1096 28.6825 27.037" stroke="#97B8FF" stroke-width="2" stroke-linecap="round" stroke-linejoin="round"/>
<path d="M12.6296 27.037H19.2037M28.4074 27.037H34.9815" stroke="#97B8FF" stroke-width="2"/>
<path d="M18 31.5C18 32.3284 17.3284 33 16.5 33C15.6716 33 15 32.3284 15 31.5C15 30.6716 15.6716 30 16.5 30C17.3284 30 18 30.6716 18 31.5Z" fill="#A6C2FF"/>
<path d="M33 31.5C33 32.3284 32.3284 33 31.5 33C30.6716 33 30 32.3284 30 31.5C30 30.6716 30.6716 30 31.5 30C32.3284 30 33 30.6716 33 31.5Z" fill="#A6C2FF"/>
<path d="M21 32H27" stroke="#A6C2FF" stroke-width="2" stroke-linecap="round"/>
<path d="M14 35V40C14 41.1046 14.8954 42 16 42V42C17.1046 42 18 41.1046 18 40V35" stroke="#97B8FF" stroke-width="2"/>
<path d="M30 35V40C30 41.1046 30.8954 42 32 42V42C33.1046 42 34 41.1046 34 40V35" stroke="#97B8FF" stroke-width="2"/>
</g>
<defs>
<clipPath id="clip0">
<rect width="48" height="48" fill="white"/>
</clipPath>
</defs>
</svg>
