<svg width="48" height="32" xmlns="http://www.w3.org/2000/svg">
    <defs>
        <linearGradient id="paint0_linear" x1="0.98176" y1="0.49776" x2="0.02736" y2="0.49776">
            <stop stop-color="#4C84FF"/>
            <stop offset="1" stop-color="#7C6FFF"/>
        </linearGradient>
    </defs>
    <g>
        <title>background</title>
        <rect fill="none" id="canvas_background" height="12.32258" width="17.48387" y="-1" x="-1"/>
    </g>
    <g>
        <title>Layer 1</title>
        <g id="svg_1" clip-path="url(#clip0)">
            <rect id="svg_2" fill="url(#paint0_linear)" rx="7" height="32" width="48"/>
        </g>
        <path id="svg_3" stroke-linejoin="round" stroke-linecap="round" stroke-width="2" stroke="#97B8FF" d="m11,23l-5,0"/>
        <path id="svg_4" stroke-linejoin="round" stroke-linecap="round" stroke-width="2" stroke="#97B8FF" d="m21,23l-5,0"/>
        <path id="svg_5" stroke-linejoin="round" stroke-linecap="round" stroke-width="2" stroke="#97B8FF" d="m32,23l-5,0"/>
        <path id="svg_6" stroke-linejoin="round" stroke-linecap="round" stroke-width="2" stroke="#97B8FF" d="m42,23l-5,0"/>
        <path id="svg_7" stroke="#97B8FF" fill="#97B8FF" d="m5.5,12c0,-0.8284 0.67157,-1.5 1.5,-1.5l4,0c0.8284,0 1.5,0.6716 1.5,1.5l0,2c0,0.8284 -0.6716,1.5 -1.5,1.5l-4,0c-0.82843,0 -1.5,-0.6716 -1.5,-1.5l0,-2z"/>
    </g>
</svg>