<svg width="180" height="180" viewBox="0 0 180 180" fill="none" xmlns="http://www.w3.org/2000/svg">
    <defs>
        <filter id="filter0_d_10570_96534" x="54" y="48" width="82" height="78"
            filterUnits="userSpaceOnUse" color-interpolation-filters="sRGB">
            <feFlood flood-opacity="0" result="BackgroundImageFix" />
            <feColorMatrix in="SourceAlpha" type="matrix"
                values="0 0 0 0 0 0 0 0 0 0 0 0 0 0 0 0 0 0 127 0" result="hardAlpha" />
            <feOffset dx="2" dy="2" />
            <feGaussianBlur stdDeviation="2" />
            <feColorMatrix type="matrix"
                values="0 0 0 0 0.298039 0 0 0 0 0.521569 0 0 0 0 1 0 0 0 0.18 0" />
            <feBlend mode="normal" in2="BackgroundImageFix"
                result="effect1_dropShadow_10570_96534" />
            <feBlend mode="normal" in="SourceGraphic" in2="effect1_dropShadow_10570_96534"
                result="shape" />
        </filter>
        <linearGradient id="paint0_linear_10570_96534" x1="100.026" y1="183.82" x2="91.3446"
            y2="33.6889" gradientUnits="userSpaceOnUse">
            <stop stop-color="white" stop-opacity="0" />
            <stop offset="1" stop-color="white" />
        </linearGradient>
        <linearGradient id="paint1_linear_10570_96534" x1="93.8294" y1="122.158" x2="108"
            y2="190.327" gradientUnits="userSpaceOnUse">
            <stop offset="4e-07" stop-color="#C7FFAB" />
            <stop offset="1" stop-color="#83CFD3" />
        </linearGradient>
        <linearGradient id="paint2_linear_10570_96534" x1="90.0159" y1="95.7947" x2="104.315"
            y2="202.776" gradientUnits="userSpaceOnUse">
            <stop offset="4e-07" stop-color="#C7FFAB" />
            <stop offset="1" stop-color="#83CFD3" />
        </linearGradient>
        <linearGradient id="paint3_linear_10570_96534" x1="87.0583" y1="39.5841" x2="94.698"
            y2="178.617" gradientUnits="userSpaceOnUse">
            <stop offset="4e-07" stop-color="#C7FFAB" />
            <stop offset="1" stop-color="#83CFD3" />
        </linearGradient>
        <linearGradient id="paint4_linear_10570_96534" x1="113.932" y1="201.24" x2="92.9943"
            y2="147.11" gradientUnits="userSpaceOnUse">
            <stop offset="4e-07" stop-color="#5399A5" />
            <stop offset="1" stop-color="#83CFD3" />
        </linearGradient>
        <linearGradient id="paint5_linear_10570_96534" x1="141.536" y1="137.67" x2="167.482"
            y2="163.232" gradientUnits="userSpaceOnUse">
            <stop offset="4e-07" stop-color="#C7FFAB" />
            <stop offset="1" stop-color="#83CFD3" />
        </linearGradient>
        <linearGradient id="paint6_linear_10570_96534" x1="41.2147" y1="149.341" x2="46.1935"
            y2="170.214" gradientUnits="userSpaceOnUse">
            <stop offset="4e-07" stop-color="#C7FFAB" />
            <stop offset="1" stop-color="#83CFD3" />
        </linearGradient>
        <linearGradient id="paint7_linear_10570_96534" x1="41.7002" y1="153.306" x2="66.7091"
            y2="177.946" gradientUnits="userSpaceOnUse">
            <stop offset="4e-07" stop-color="#C7FFAB" />
            <stop offset="1" stop-color="#83CFD3" />
        </linearGradient>
        <linearGradient id="paint8_linear_10570_96534" x1="79.4408" y1="163.998" x2="97.3922"
            y2="181.684" gradientUnits="userSpaceOnUse">
            <stop offset="4e-07" stop-color="#C7FFAB" />
            <stop offset="1" stop-color="#83CFD3" />
        </linearGradient>
        <linearGradient id="paint9_linear_10570_96534" x1="79.4007" y1="163.79" x2="77.2941"
            y2="178.727" gradientUnits="userSpaceOnUse">
            <stop offset="4e-07" stop-color="#C7FFAB" />
            <stop offset="1" stop-color="#83CFD3" />
        </linearGradient>
        <linearGradient id="paint10_linear_10570_96534" x1="116.898" y1="15.3757" x2="75.6886"
            y2="149.507" gradientUnits="userSpaceOnUse">
            <stop offset="4e-07" stop-color="#C7FFAB" />
            <stop offset="1" stop-color="#83CFD3" />
        </linearGradient>
    </defs>
    <path
        d="M180 89.9955C180 96.714 179.265 103.255 177.87 109.555C177.63 110.665 177.36 111.762 177.06 112.854C176.85 113.709 176.61 114.565 176.355 115.405C176.07 116.367 175.769 117.324 175.454 118.285C175.439 118.359 175.41 118.449 175.379 118.525C175.139 119.275 174.869 120.01 174.599 120.745C174.404 121.299 174.192 121.852 173.984 122.409C173.832 122.784 173.684 123.174 173.534 123.549C173.354 124 173.174 124.434 172.979 124.87C172.647 125.679 172.304 126.473 171.944 127.256C170.774 129.834 169.484 132.352 168.059 134.799C168.059 134.814 168.044 134.814 168.044 134.829C165.929 138.505 163.574 142.045 160.963 145.359C160.724 145.675 160.484 145.974 160.229 146.29C159.794 146.829 159.359 147.354 158.909 147.882C157.213 149.92 155.398 151.872 153.523 153.762C151.453 155.815 149.28 157.782 147.013 159.642C145.333 161.022 143.609 162.34 141.824 163.585C141.78 163.617 141.719 163.662 141.674 163.69H141.659C141.342 163.915 141.029 164.142 140.712 164.349C140.414 164.56 140.127 164.755 139.827 164.949C139.544 165.145 139.257 165.339 138.957 165.52C136.424 167.17 133.812 168.684 131.114 170.064C131.083 170.094 131.039 170.107 131.009 170.125C130.874 170.199 130.754 170.26 130.634 170.319C128.729 171.281 126.794 172.179 124.814 173.005C122.789 173.86 120.719 174.64 118.62 175.347C116.4 176.097 114.15 176.742 111.855 177.31C110.925 177.55 109.995 177.762 109.065 177.955L106.485 178.483C104.625 178.827 102.75 179.113 100.844 179.353C97.8889 179.697 94.8755 179.907 91.8292 179.968C91.5892 179.983 91.3642 179.983 91.1242 179.983C90.7492 179.998 90.3742 179.998 89.9993 179.998C88.9058 179.998 87.8093 179.983 86.7294 179.937C86.1144 179.922 85.4844 179.893 84.8695 179.848C84.3145 179.817 83.7595 179.772 83.2045 179.728H83.1895C82.9196 179.713 82.6646 179.697 82.3796 179.667C82.0361 179.652 81.7046 179.608 81.3596 179.575C81.0296 179.545 80.6996 179.517 80.3546 179.473C80.2031 179.473 80.0697 179.455 79.9197 179.427C79.8432 179.427 79.7682 179.412 79.6947 179.397C79.0647 179.338 78.4197 179.262 77.7898 179.172C77.1433 179.08 76.5133 178.993 75.8833 178.888C75.8683 178.888 75.8683 178.888 75.8533 178.888C75.2669 178.797 74.6834 178.692 74.0819 178.59C73.8719 178.559 73.6634 178.513 73.4519 178.47C72.642 178.317 71.832 178.168 71.0385 177.99C70.887 177.958 70.7386 177.928 70.5871 177.898C70.0021 177.778 69.4321 177.643 68.8486 177.493C68.6971 177.463 68.5486 177.417 68.3971 177.388C67.9322 177.268 67.4837 177.163 67.0337 177.043C66.5387 176.908 66.0588 176.788 65.5773 176.653C65.5338 176.638 65.4738 176.624 65.4273 176.61C65.2023 176.533 64.9773 176.475 64.7523 176.413C64.4088 176.308 64.0623 176.202 63.7324 176.1C62.8309 175.827 61.9474 175.543 61.0624 175.245C60.7475 175.14 60.4325 175.033 60.1175 174.913C59.7575 174.793 59.3975 174.673 59.0525 174.538C58.3926 174.298 57.7476 174.059 57.1026 173.803C55.0162 172.977 52.9778 172.092 50.9829 171.12C49.9479 170.625 48.928 170.112 47.908 169.558C47.668 169.438 47.428 169.318 47.188 169.183C47.068 169.107 46.933 169.048 46.813 168.972C46.2881 168.688 45.7631 168.388 45.2381 168.087C44.8931 167.893 44.5631 167.697 44.2167 167.487C43.9932 167.37 43.7832 167.232 43.5582 167.097C42.0282 166.183 40.5283 165.222 39.0584 164.188C38.6984 163.963 38.3384 163.708 37.9784 163.453C36.6285 162.495 35.2935 161.487 33.9886 160.453C32.6086 159.358 31.2437 158.203 29.9237 157.02C29.5788 156.703 29.2338 156.39 28.9038 156.073C27.4339 154.723 26.0224 153.328 24.659 151.89C24.0875 151.29 23.534 150.688 22.994 150.073C22.7841 149.848 22.5875 149.64 22.3941 149.415C21.6141 148.53 20.8641 147.632 20.1142 146.714V146.698C19.0042 145.348 17.9392 143.953 16.9343 142.53C16.5593 142.005 16.1843 141.478 15.8243 140.953C15.5694 140.593 15.3294 140.233 15.0894 139.875C14.7459 139.347 14.3994 138.823 14.0694 138.298C13.7544 137.818 13.4694 137.337 13.1694 136.857C12.8695 136.38 12.5695 135.885 12.2845 135.388C11.9395 134.817 11.6245 134.249 11.2945 133.663C10.2446 131.788 9.2681 129.87 8.35464 127.903C5.66975 122.112 3.56986 115.995 2.15991 109.62C2.05492 109.198 1.96342 108.778 1.87492 108.357C1.75493 107.803 1.64993 107.232 1.54493 106.663C0.958458 103.602 0.554972 100.467 0.299983 97.3035C0.268484 96.852 0.224998 96.4035 0.194999 95.9535C0.0750042 93.987 0 92.01 0 90C0 82.9185 0.824968 76.005 2.3699 69.405C3.94484 62.6985 6.25475 56.28 9.23962 50.235C10.7846 47.115 12.4945 44.0835 14.3844 41.175C30.4052 16.395 58.2891 0 89.9963 0C114.205 0 136.179 9.555 152.349 25.11C160.012 32.475 166.373 41.19 171.053 50.865C171.668 52.1415 172.253 53.415 172.793 54.72C177.435 65.5455 180 77.4705 180 89.9955Z"
        fill="#D3E1FF" />
    <path
        d="M176.356 115.406C176.071 116.367 175.77 117.324 175.455 118.286C175.44 118.359 175.411 118.449 175.38 118.526C175.14 119.276 174.87 120.011 174.6 120.746C174.405 121.299 174.193 121.853 173.985 122.409C173.834 122.784 173.685 123.174 173.535 123.549C173.355 124.001 173.175 124.434 172.98 124.871C172.649 125.679 172.305 126.473 171.945 127.256C170.775 129.834 169.485 132.353 168.06 134.799C168.06 134.814 168.045 134.814 168.045 134.829C165.93 138.506 163.575 142.046 160.964 145.359C160.726 145.676 160.486 145.974 160.231 146.291C159.796 146.829 159.361 147.354 158.911 147.882C157.214 149.921 155.399 151.872 153.524 153.762C151.454 155.816 149.281 157.782 147.015 159.642C145.335 161.022 143.61 162.341 141.825 163.586C141.781 163.617 141.72 163.662 141.675 163.691H141.66C141.343 163.916 141.03 164.142 140.713 164.349C140.415 164.561 140.128 164.756 139.828 164.949C139.545 165.146 139.258 165.339 138.958 165.521C136.425 167.171 133.814 168.684 131.115 170.064C131.084 170.094 131.04 170.108 131.01 170.126C130.875 170.199 130.755 170.261 130.635 170.319C128.73 171.281 126.795 172.179 124.816 173.006C122.791 173.861 120.721 174.641 118.621 175.347C116.401 176.097 114.151 176.742 111.856 177.311C110.926 177.551 109.996 177.762 109.066 177.956L106.486 178.484C104.626 178.827 102.751 179.114 100.845 179.354C97.8902 179.697 94.8768 179.907 91.8304 179.969C91.5904 179.984 91.3654 179.984 91.1255 179.984C90.7505 179.999 90.3755 179.999 90.0005 179.999C88.9071 179.999 87.8106 179.984 86.7306 179.937C86.1157 179.922 85.4857 179.894 84.8707 179.849C84.3158 179.817 83.7608 179.772 83.2058 179.729H83.1908C82.9208 179.714 82.6658 179.697 82.3808 179.667C82.0373 179.652 81.7059 179.609 81.3609 179.576C81.0309 179.546 80.7009 179.517 80.3559 179.474C80.2044 179.474 80.0709 179.456 79.9209 179.427C79.8444 179.427 79.7694 179.412 79.6959 179.397C79.066 179.339 78.421 179.262 77.791 179.172C77.1445 179.081 76.5146 178.994 75.8846 178.889C75.8696 178.889 75.8696 178.889 75.8546 178.889C75.2681 178.797 74.6846 178.692 74.0832 178.59C73.8732 178.559 73.6647 178.514 73.4532 178.47C72.6432 178.317 71.8333 178.169 71.0398 177.99C70.8883 177.959 70.7398 177.929 70.5883 177.899C70.0033 177.779 69.4334 177.644 68.8499 177.494C68.6984 177.464 68.5499 177.417 68.3984 177.389C67.9334 177.269 67.4849 177.164 67.035 177.044C66.54 176.909 66.06 176.789 65.5785 176.654L65.5635 176.639L53.024 166.019L50.9991 164.294L48.3292 162.029L47.0843 160.977L39.2696 154.347H39.2546L23.1903 140.727L17.0555 135.524L16.9355 135.419C23.5938 130.857 29.535 126.689 34.9198 123.044C57.0739 108.059 70.0333 101.967 86.8176 113.894C88.9176 115.379 91.1975 116.639 93.6274 117.659C96.2372 118.799 99.0286 119.684 101.922 120.342C103.722 120.779 105.567 121.107 107.442 121.362H107.457C108.252 121.5 109.033 121.587 109.842 121.664C117.191 122.487 124.978 122.279 132.446 121.587C133.961 121.437 135.477 121.274 136.961 121.092C139.705 120.749 142.39 120.357 144.972 119.937C152.501 118.707 159.176 117.236 164.111 116.157C166.181 115.706 168.386 115.451 170.651 115.346C172.532 115.272 174.436 115.301 176.356 115.406Z"
        fill="url(#paint0_linear_10570_96534)" />
    <path
        d="M177.871 109.556C177.631 110.666 177.361 111.762 177.061 112.854C176.851 113.709 176.611 114.566 176.356 115.406C176.071 116.367 175.77 117.324 175.455 118.286C175.44 118.359 175.411 118.449 175.38 118.526C175.14 119.276 174.87 120.011 174.6 120.746C174.405 121.299 174.193 121.853 173.985 122.409C173.833 122.784 173.685 123.174 173.535 123.549C173.355 124.001 173.175 124.434 172.98 124.871C172.648 125.679 172.305 126.473 171.945 127.256C170.775 129.834 169.485 132.353 168.06 134.799C168.06 134.814 168.045 134.814 168.045 134.829C165.93 138.506 163.575 142.046 160.964 145.359C160.725 145.676 160.485 145.974 160.23 146.291C159.795 146.829 159.36 147.354 158.91 147.882C157.214 149.921 155.399 151.872 153.524 153.762C151.454 155.816 149.281 157.782 147.014 159.642C145.334 161.022 143.609 162.341 141.824 163.586C141.781 163.617 141.719 163.662 141.674 163.691H141.659C141.343 163.916 141.029 164.142 140.713 164.349C140.414 164.561 140.128 164.756 139.828 164.949C139.545 165.146 139.258 165.339 138.958 165.521C136.425 167.171 133.813 168.684 131.115 170.064C131.083 170.094 131.04 170.108 131.01 170.126C130.875 170.199 130.755 170.261 130.635 170.319C128.73 171.281 126.795 172.179 124.815 173.006C122.79 173.861 120.72 174.641 118.62 175.347C116.4 176.097 114.151 176.742 111.856 177.311C110.926 177.551 109.996 177.762 109.066 177.956L106.486 178.484C104.626 178.827 102.751 179.114 100.845 179.354C97.8897 179.697 94.8764 179.907 91.83 179.969C91.59 179.984 91.365 179.984 91.125 179.984C90.75 179.999 90.3751 179.999 90.0001 179.999C88.9066 179.999 87.8102 179.984 86.7302 179.937C86.1152 179.922 85.4853 179.894 84.8703 179.849C84.3153 179.817 83.7603 179.787 83.1904 179.744C82.9204 179.729 82.6504 179.697 82.3804 179.667C82.0369 179.652 81.7054 179.609 81.3604 179.576C81.0305 179.546 80.6855 179.517 80.3555 179.487C80.204 179.472 80.0705 179.456 79.9205 179.426C79.844 179.426 79.769 179.411 79.6955 179.411C79.0505 179.337 78.4206 179.261 77.7906 179.171C77.1441 179.079 76.5141 178.992 75.8842 178.887C75.8692 178.887 75.8692 178.887 75.8542 178.887C75.2677 178.796 74.6842 178.691 74.0827 178.589C73.8727 178.557 73.6643 178.512 73.4528 178.469C72.6428 178.316 71.8328 178.167 71.0394 177.989C70.8879 177.957 70.7394 177.927 70.5879 177.897C70.0029 177.777 69.4329 177.642 68.8495 177.492C68.698 177.462 68.5495 177.416 68.398 177.387C67.933 177.267 67.4845 177.162 67.0345 177.042C66.5396 176.907 66.0596 176.787 65.5781 176.652L65.5631 176.637C65.5181 176.622 65.4731 176.622 65.4281 176.607C65.2031 176.531 64.9781 176.472 64.7531 176.411C64.4096 176.306 64.0632 176.199 63.7332 176.097C62.8317 175.824 61.9482 175.541 61.0633 175.242C60.7483 175.137 60.4333 175.031 60.1183 174.911C59.7583 174.791 59.3983 174.671 59.0534 174.536C58.3934 174.296 57.7484 174.056 57.1034 173.801C55.017 172.974 52.9786 172.089 50.9837 171.117C49.9488 170.622 48.9288 170.109 47.9088 169.556C47.6688 169.436 47.4288 169.316 47.1889 169.181C47.0689 169.104 46.9339 169.046 46.8139 168.969C46.2889 168.686 45.7639 168.386 45.2389 168.084C44.894 167.891 44.564 167.694 44.2175 167.484C43.994 167.367 43.784 167.229 43.559 167.094C42.0291 166.181 40.5291 165.219 39.0592 164.186C38.6992 163.961 38.3392 163.706 37.9792 163.451C36.6293 162.492 35.2944 161.484 33.9894 160.451C32.6095 159.356 31.2445 158.201 29.9246 157.017C29.5796 156.701 29.2346 156.387 28.9046 156.071C27.4347 154.721 26.0232 153.326 24.6598 151.887C24.0883 151.287 23.5349 150.686 22.9949 150.071C22.7849 149.846 22.5884 149.637 22.3949 149.412C21.6149 148.527 20.865 147.629 20.115 146.711V146.696C19.005 145.346 17.9401 143.951 16.9351 142.527C16.5601 142.002 16.1852 141.476 15.8252 140.951C15.5702 140.591 15.3302 140.231 15.0902 139.872C14.7467 139.344 14.4002 138.821 14.0703 138.296C13.7553 137.816 13.4703 137.334 13.1703 136.854C12.8703 136.377 12.5703 135.882 12.2853 135.386C11.9403 134.814 11.6253 134.246 11.2954 133.661C10.2454 131.786 9.26893 129.867 8.35547 127.901C17.9536 123.444 26.2182 121.689 34.9194 123.041C43.604 124.391 52.7071 128.859 64.0167 136.854C73.9028 143.859 83.4858 147.507 92.4555 148.242H92.472C94.6304 148.421 96.7468 148.436 98.8467 148.272C98.8617 148.287 98.8617 148.272 98.8617 148.272C99.4602 148.242 100.062 148.181 100.662 148.106C110.441 146.937 119.319 142.137 126.879 134.412C127.179 134.111 127.479 133.797 127.764 133.481C127.989 133.259 128.214 133.017 128.424 132.777C129.309 131.816 130.164 130.797 130.989 129.762C131.394 129.267 131.799 128.757 132.189 128.231C133.854 126.012 135.459 123.642 136.959 121.091C137.425 120.311 137.874 119.502 138.324 118.691C150.391 96.6856 163.757 97.3441 177.871 109.556Z"
        fill="url(#paint1_linear_10570_96534)" />
    <path
        d="M175.381 118.525C175.141 119.275 174.871 120.01 174.601 120.745C174.406 121.299 174.195 121.852 173.986 122.409C173.835 122.784 173.686 123.174 173.536 123.549C173.356 124 173.176 124.434 172.981 124.87C172.65 125.679 172.306 126.472 171.946 127.255C170.776 129.834 169.486 132.352 168.061 134.799C168.061 134.814 168.046 134.814 168.046 134.829C165.932 138.505 163.577 142.045 160.965 145.359C160.727 145.675 160.487 145.974 160.232 146.29C159.797 146.829 159.362 147.354 158.912 147.882C157.215 149.92 155.4 151.872 153.526 153.762C151.456 155.815 149.282 157.782 147.016 159.642C145.336 161.022 143.611 162.34 141.826 163.585C141.783 163.617 141.721 163.662 141.676 163.69H141.661C141.345 163.915 141.031 164.142 140.715 164.349C140.416 164.56 140.13 164.755 139.83 164.949C139.546 165.145 139.26 165.339 138.96 165.52C136.426 167.17 133.815 168.684 131.116 170.064C131.085 170.094 131.041 170.107 131.011 170.125C130.877 170.199 130.757 170.26 130.637 170.319C128.732 171.28 126.797 172.179 124.817 173.005C122.792 173.86 120.722 174.64 118.622 175.347C116.402 176.097 114.152 176.742 111.857 177.31C110.927 177.55 109.997 177.762 109.067 177.955L106.488 178.483C104.628 178.827 102.753 179.113 100.846 179.353C97.8914 179.697 94.878 179.907 91.8316 179.968C91.5916 179.983 91.3666 179.983 91.1266 179.983C90.7516 179.998 90.3767 179.998 90.0017 179.998C88.9082 179.998 87.8118 179.983 86.7318 179.937C86.1169 179.922 85.4869 179.893 84.8719 179.848C84.3169 179.817 83.7619 179.787 83.192 179.743C82.922 179.728 82.652 179.697 82.382 179.667C82.0385 179.652 81.707 179.608 81.362 179.575C81.0321 179.545 80.6871 179.517 80.3571 179.487C80.2056 179.472 80.0721 179.455 79.9221 179.425C79.8456 179.425 79.7706 179.41 79.6971 179.41C79.0521 179.337 78.4222 179.26 77.7922 179.17C77.1457 179.079 76.5158 178.992 75.8858 178.887C75.8708 178.887 75.8708 178.887 75.8558 178.887C75.2693 178.795 74.6858 178.69 74.0843 178.588C73.8744 178.557 73.6659 178.512 73.4544 178.468C72.6444 178.315 71.8344 178.167 71.041 177.988C70.8895 177.957 70.741 177.927 70.5895 177.897C70.0045 177.777 69.4345 177.642 68.8511 177.492C68.6996 177.462 68.5511 177.415 68.3996 177.387C67.9346 177.267 67.4861 177.162 67.0362 177.042C66.5412 176.907 66.0612 176.787 65.5797 176.652L65.5647 176.637C65.5197 176.622 65.4747 176.622 65.4297 176.607C65.2047 176.53 64.9797 176.472 64.7548 176.41C64.4113 176.305 64.0648 176.199 63.7348 176.097C62.8333 175.824 61.9499 175.54 61.0649 175.242C60.7499 175.137 60.4349 175.03 60.1199 174.91C59.7599 174.79 59.4 174.67 59.055 174.535C58.395 174.295 57.75 174.055 57.1051 173.8C55.0187 172.974 52.9802 172.089 50.9853 171.117C49.9504 170.622 48.9304 170.109 47.9104 169.555C47.6704 169.435 47.4305 169.315 47.1905 169.18C47.0705 169.104 46.9355 169.045 46.8155 168.969C46.2905 168.685 45.7655 168.385 45.2406 168.084C44.8956 167.89 44.5656 167.694 44.2191 167.484C43.9956 167.367 43.7856 167.229 43.5606 167.094C42.0307 166.18 40.5308 165.219 39.0608 164.185C38.7008 163.96 38.3408 163.705 37.9809 163.45C36.6309 162.492 35.296 161.484 33.991 160.45C32.6111 159.355 31.2461 158.2 29.9262 157.017C29.5812 156.7 29.2362 156.387 28.9062 156.07C27.4363 154.72 26.0248 153.325 24.6614 151.887C24.0899 151.287 23.5364 150.685 22.9965 150.07C22.7865 149.845 22.59 149.637 22.3965 149.412C21.6165 148.527 20.8666 147.628 20.1166 146.71V146.695C19.0066 145.345 17.9417 143.95 16.9367 142.527C16.5617 142.002 16.1868 141.475 15.8268 140.95C15.5718 140.59 15.3318 140.23 15.0918 139.872C14.7483 139.344 14.4018 138.82 14.0718 138.295C13.7569 137.815 13.4719 137.334 13.1719 136.854C14.4918 136.344 15.7818 135.895 17.0567 135.52C32.1161 130.929 44.9556 134.349 64.0198 147.849C68.2496 150.849 72.4209 153.219 76.4992 155.02C78.6742 155.979 80.8041 156.775 82.919 157.405H82.934C87.7938 158.875 92.5186 159.505 97.0784 159.372C98.6698 159.325 100.243 159.175 101.803 158.935C106.618 158.215 111.208 156.609 115.528 154.224C115.543 154.224 115.543 154.224 115.543 154.209C116.081 153.91 116.608 153.594 117.133 153.265C119.667 151.719 122.112 149.875 124.437 147.775C126.612 145.795 128.697 143.589 130.677 141.16C133.182 138.069 135.52 134.635 137.652 130.872C137.89 130.479 138.102 130.09 138.325 129.685C138.64 129.099 138.972 128.545 139.287 127.992C141.145 124.78 143.051 122.109 144.971 119.935C153.085 110.724 161.681 110.215 170.65 115.344C172.215 116.229 173.791 117.295 175.381 118.525Z"
        fill="url(#paint2_linear_10570_96534)" />
    <path
        d="M168.061 134.8C168.061 134.815 168.046 134.815 168.046 134.83C165.931 138.507 163.576 142.047 160.965 145.36C160.727 145.677 160.487 145.975 160.232 146.292C159.797 146.83 159.362 147.355 158.912 147.883C157.215 149.922 155.4 151.873 153.525 153.763C151.455 155.817 149.282 157.783 147.016 159.643C145.336 161.023 143.611 162.342 141.826 163.587C141.782 163.618 141.721 163.663 141.676 163.692H141.661C141.344 163.917 141.031 164.143 140.714 164.35C140.416 164.562 140.129 164.757 139.829 164.95C139.546 165.147 139.259 165.34 138.959 165.522C136.426 167.172 133.815 168.685 131.116 170.065C131.085 170.095 131.041 170.109 131.011 170.127C130.876 170.2 130.756 170.262 130.636 170.32C128.731 171.282 126.796 172.18 124.817 173.007C122.792 173.862 120.722 174.642 118.622 175.348C116.402 176.098 114.152 176.743 111.857 177.312C110.927 177.552 109.997 177.763 109.067 177.957L106.487 178.485C104.627 178.828 102.752 179.115 100.846 179.355C97.8912 179.698 94.8778 179.908 91.8314 179.97C91.5914 179.985 91.3664 179.985 91.1264 179.985C90.7514 180 90.3765 180 90.0015 180C88.908 180 87.8116 179.985 86.7316 179.938C86.1166 179.923 85.4867 179.895 84.8717 179.85C84.3167 179.818 83.7617 179.788 83.1918 179.745C82.9218 179.73 82.6518 179.698 82.3818 179.668C82.0383 179.653 81.7068 179.61 81.3618 179.577C81.0319 179.547 80.6869 179.518 80.3569 179.488C80.1319 179.457 79.9219 179.442 79.6969 179.412C79.0519 179.338 78.422 179.262 77.792 179.172C77.1455 179.08 76.5155 178.993 75.8856 178.888C75.8706 178.888 75.8706 178.888 75.8556 178.888C75.0456 178.753 74.2506 178.618 73.4542 178.47C72.6442 178.317 71.8342 178.168 71.0408 177.99C70.3058 177.84 69.5708 177.673 68.8509 177.495C68.6994 177.465 68.5509 177.418 68.3994 177.39C67.9344 177.27 67.4859 177.165 67.0359 177.045C66.541 176.91 66.061 176.79 65.5795 176.655L65.5645 176.64C65.5195 176.625 65.4745 176.625 65.4295 176.61C65.2045 176.533 64.9795 176.475 64.7545 176.413C64.4111 176.308 64.0646 176.202 63.7346 176.1C62.8331 175.827 61.9496 175.543 61.0647 175.245C60.7497 175.14 60.4347 175.033 60.1197 174.913C59.7597 174.793 59.3998 174.673 59.0548 174.538C58.3948 174.298 57.7498 174.058 57.1049 173.803C55.0184 172.977 52.98 172.092 50.9851 171.12C49.9501 170.625 48.9302 170.112 47.9102 169.558C47.6702 169.438 47.4303 169.318 47.1903 169.183C47.0703 169.107 46.9353 169.048 46.8153 168.972C46.2903 168.688 45.7653 168.388 45.2403 168.087C44.8954 167.893 44.5654 167.697 44.2189 167.487C43.9954 167.37 43.7854 167.232 43.5604 167.097C42.0305 166.183 40.5305 165.222 39.0606 164.188C38.7006 163.963 38.3406 163.708 37.9806 163.453C36.6307 162.495 35.2958 161.487 33.9908 160.453C32.6109 159.358 31.2459 158.203 29.926 157.02C29.581 156.703 29.236 156.39 28.906 156.073C27.4361 154.723 26.0246 153.328 24.6612 151.89C24.0897 151.29 23.5362 150.688 22.9963 150.073C22.7863 149.848 22.5898 149.64 22.3963 149.415C21.6163 148.53 20.8664 147.631 20.1164 146.713V146.698C19.0064 145.348 17.9415 143.953 16.9365 142.53C19.1114 141.675 21.1963 141.073 23.1913 140.728C27.1961 139.996 30.9009 140.19 34.5458 141.073C42.4504 142.978 50.1151 148.048 59.9397 153.78C60.2997 153.988 60.6447 154.17 61.0047 154.348C61.9947 154.843 63.0146 155.218 64.0646 155.488C64.2296 155.55 64.3796 155.593 64.5595 155.626C67.4094 156.3 70.4393 156.256 73.6042 155.685C73.9192 155.626 74.2491 155.565 74.5641 155.488C74.8791 155.43 75.2091 155.353 75.5241 155.28C75.8556 155.188 76.1705 155.113 76.499 155.025C77.129 154.858 77.759 154.665 78.389 154.468C78.614 154.41 78.824 154.333 79.0354 154.26C79.4539 154.107 79.8889 153.973 80.3239 153.808C80.9689 153.568 81.6138 153.328 82.2738 153.058C82.8888 152.818 83.5038 152.563 84.1337 152.278C84.2537 152.232 84.3737 152.173 84.4937 152.128C85.0487 151.888 85.6037 151.633 86.1586 151.378C87.5386 150.73 88.947 150.042 90.3735 149.322C91.0634 148.977 91.7534 148.618 92.4584 148.243H92.4749C93.6298 147.628 94.7998 146.998 95.9847 146.35C96.7032 145.96 97.4397 145.57 98.1746 145.167C98.7731 144.835 99.3596 144.508 99.9581 144.177C100.8 143.71 101.654 143.23 102.523 142.768C104.609 141.612 106.724 140.457 108.854 139.332C109.349 139.062 109.843 138.793 110.354 138.538C110.564 138.418 110.773 138.313 110.984 138.207C111.523 137.923 112.064 137.653 112.604 137.383C114.224 136.542 115.859 135.748 117.494 134.98C118.064 134.71 118.634 134.455 119.204 134.2C119.355 134.127 119.519 134.05 119.684 133.975C119.684 133.975 119.684 133.975 119.699 133.975C120.225 133.735 120.749 133.512 121.274 133.287C121.86 133.032 122.444 132.792 123.045 132.552C123.269 132.46 123.48 132.373 123.69 132.297C124.335 132.042 124.98 131.787 125.64 131.547C125.82 131.47 126 131.412 126.18 131.35C126.855 131.095 127.545 130.855 128.235 130.632C129.148 130.315 130.065 130.032 130.995 129.762C131.385 129.657 131.79 129.537 132.18 129.43C133.95 128.964 135.735 128.56 137.505 128.262C138.104 128.157 138.689 128.065 139.289 127.992C139.799 127.915 140.309 127.854 140.804 127.81C141.314 127.767 141.824 127.719 142.319 127.675C142.829 127.645 143.339 127.617 143.851 127.599C144.344 127.584 144.839 127.569 145.334 127.569C150.389 127.569 155.444 128.469 160.485 130.615C163.02 131.68 165.541 133.06 168.061 134.8Z"
        fill="url(#paint3_linear_10570_96534)" />
    <path opacity="0.15"
        d="M160.486 130.617C159.96 131.066 158.986 131.171 157.47 130.796C146.747 128.186 133.532 130.541 117.511 137.367C101.492 144.206 89.2375 158.051 75.3031 159.267C61.3537 160.481 56.7489 155.622 46.6693 148.451C41.343 144.671 37.7597 142.301 34.5498 141.071C42.4545 142.976 50.1192 148.046 59.9438 153.777C83.8093 167.681 122.716 114.594 160.486 130.617Z"
        fill="white" />
    <path
        d="M160.231 146.29C159.796 146.829 159.361 147.354 158.911 147.882C157.214 149.92 155.399 151.872 153.525 153.762C151.455 155.815 149.281 157.782 147.015 159.642C145.335 161.022 143.61 162.34 141.825 163.585C141.782 163.617 141.72 163.662 141.675 163.69H141.66C141.344 163.915 141.03 164.142 140.714 164.349C140.415 164.56 140.129 164.755 139.829 164.949C139.545 165.145 139.259 165.339 138.959 165.52C136.425 167.17 133.814 168.684 131.116 170.064C131.084 170.094 131.041 170.107 131.011 170.125C130.876 170.199 130.756 170.26 130.636 170.319C128.731 171.28 126.796 172.179 124.816 173.005C122.791 173.86 120.721 174.64 118.621 175.347C116.401 176.097 114.151 176.742 111.856 177.31C110.926 177.55 109.996 177.762 109.066 177.955L106.487 178.483C104.627 178.827 102.752 179.113 100.845 179.353C97.8904 179.697 94.877 179.907 91.8306 179.968C91.5906 179.983 91.3657 179.983 91.1257 179.983C90.7507 179.998 90.3757 179.998 90.0007 179.998C88.9073 179.998 87.8108 179.983 86.7309 179.937C86.1159 179.922 85.4859 179.893 84.8709 179.848C84.316 179.817 83.761 179.787 83.191 179.743C82.921 179.728 82.651 179.697 82.3811 179.667C82.0376 179.652 81.7061 179.608 81.3611 179.575C81.0311 179.545 80.6861 179.517 80.3561 179.487C80.1311 179.455 79.9211 179.44 79.6961 179.41C79.0512 179.337 78.4212 179.26 77.7912 179.17C77.1447 179.079 76.5148 178.992 75.8848 178.887C75.8698 178.887 75.8698 178.887 75.8548 178.887C75.0448 178.752 74.2499 178.617 73.4534 178.468C72.6434 178.315 71.8335 178.167 71.04 177.988C70.305 177.838 69.5701 177.672 68.8501 177.493C68.6986 177.463 68.5501 177.417 68.3986 177.388C67.9336 177.268 67.4852 177.163 67.0352 177.043C66.5402 176.908 66.0602 176.788 65.5787 176.653L65.5637 176.638C65.5187 176.623 65.4738 176.623 65.4288 176.608C65.2038 176.532 64.9788 176.473 64.7538 176.412C64.4103 176.307 64.0638 176.2 63.7338 176.098C62.8324 175.825 61.9489 175.542 61.0639 175.243C60.7489 175.138 60.434 175.032 60.119 174.912C59.759 174.792 59.399 174.672 59.054 174.537C58.3941 174.297 57.7491 174.057 57.1041 173.802C55.0177 172.975 52.9793 172.09 50.9844 171.118C49.9494 170.623 48.9294 170.11 47.9095 169.557C47.6695 169.437 47.4295 169.317 47.1895 169.182C47.0695 169.105 46.9345 169.047 46.8145 168.97C46.2896 168.687 45.7646 168.387 45.2396 168.085C44.8946 167.892 44.5646 167.695 44.2181 167.485C43.9946 167.368 43.7847 167.23 43.5597 167.095C42.0297 166.182 40.5298 165.22 39.0599 164.187C38.6999 163.962 38.3399 163.707 37.9799 163.452C36.63 162.493 35.295 161.485 33.9901 160.452C32.6101 159.357 31.2452 158.202 29.9252 157.018C29.5803 156.702 29.2353 156.388 28.9053 156.072C33.1201 156.207 37.1099 157.36 41.2033 159.163C43.1982 160.033 45.2081 161.053 47.2795 162.193C47.593 162.357 47.9245 162.538 48.2395 162.718C49.1544 163.228 50.0694 163.755 50.9993 164.295C51.7178 164.7 52.4393 165.136 53.1893 165.57C55.3342 166.83 57.5691 168.18 59.939 169.56C64.5438 172.246 69.7186 172.44 75.3283 171.103C77.2347 170.655 79.1832 170.04 81.1781 169.275C82.1831 168.885 83.203 168.478 84.223 168.03C87.1028 166.785 90.0577 165.3 93.1026 163.693C94.1525 163.14 95.216 162.553 96.2975 161.968C98.1124 160.996 99.9423 159.973 101.802 158.938C109.062 154.933 116.652 150.78 124.436 147.78C126.536 146.953 128.653 146.233 130.781 145.603C136.509 143.94 142.301 143.055 148.105 143.458C149.32 143.535 150.519 143.67 151.735 143.88H151.75C152.395 143.968 153.04 144.102 153.685 144.255C155.881 144.714 158.056 145.392 160.231 146.29Z"
        fill="url(#paint4_linear_10570_96534)" />
    <path
        d="M168.045 134.831C165.93 138.507 163.575 142.047 160.964 145.361C160.305 146.216 159.615 147.057 158.91 147.884C157.214 149.922 155.399 151.874 153.524 153.764C151.454 155.817 149.281 157.784 147.014 159.644C145.334 161.024 143.609 162.342 141.824 163.587C141.781 163.619 141.719 163.664 141.674 163.692H141.659C141.343 163.917 141.029 164.144 140.713 164.351C140.414 164.562 140.128 164.757 139.828 164.951C139.378 156.132 144.284 156.836 144.284 156.836C144.284 156.836 139.499 150.042 144.674 145.346C149.624 140.861 153.704 145.152 154.049 145.512C153.897 145.122 152.579 141.609 155.009 139.902C157.604 138.071 160.184 140.547 160.184 140.547C160.184 140.547 163.079 135.911 168.045 134.831Z"
        fill="url(#paint5_linear_10570_96534)" />
    <path
        d="M47.9162 169.555C47.6762 169.435 47.4362 169.315 47.1962 169.18C46.1911 168.642 45.2011 168.07 44.2261 167.484C42.5161 160.195 36.9376 152.305 39.0811 149.44C41.5711 146.109 45.5911 151.54 47.1212 161.109C47.4362 163.015 47.6312 164.665 47.7512 166.089C47.7512 166.089 47.7512 166.104 47.7512 166.135C47.8712 167.484 47.9162 168.609 47.9162 169.555Z"
        fill="url(#paint6_linear_10570_96534)" />
    <path
        d="M52.1441 168.415C51.7391 169.39 51.3642 170.29 50.9892 171.116C49.9542 170.621 48.9343 170.108 47.9143 169.555C47.6743 169.435 47.4343 169.315 47.1943 169.18C47.4043 168.175 47.5843 167.141 47.7493 166.136C47.7493 166.105 47.7493 166.09 47.7493 166.09C48.6043 160.527 48.9193 155.215 51.3192 154.257C55.1605 152.71 55.7905 159.43 52.1441 168.415Z"
        fill="url(#paint7_linear_10570_96534)" />
    <path
        d="M83.1941 179.741C82.2491 179.665 81.3042 179.575 80.3592 179.486C80.1342 179.455 79.9242 179.44 79.6992 179.41C79.9107 178.616 80.1792 177.698 80.5407 176.665C80.9907 175.3 81.5891 173.708 82.3556 171.895C86.1204 162.969 91.3102 158.651 92.9452 162.459C94.4136 165.925 86.2989 172.718 83.1941 179.741Z"
        fill="url(#paint8_linear_10570_96534)" />
    <path
        d="M80.5385 176.665C80.462 177.596 80.387 178.54 80.3585 179.486C80.1336 179.455 79.9236 179.44 79.6986 179.41C78.4236 179.26 77.1487 179.096 75.8887 178.885C75.8287 178.525 75.7852 178.165 75.7237 177.79C74.3288 168.19 76.5352 161.815 79.9101 164.229C82.0085 165.762 81.017 171.025 80.5385 176.665Z"
        fill="url(#paint9_linear_10570_96534)" />
    <g filter="url(#filter0_d_10570_96534)">
        <path
            d="M130 85C130 65.67 114.33 50 95 50H93C72.5655 50 56 66.5655 56 87V111C56 115.971 60.0294 120 65 120H95C114.33 120 130 104.33 130 85Z"
            fill="url(#paint10_linear_10570_96534)" />
    </g>
    <circle cx="93" cy="85" r="17" fill="white" />
    <path d="M93.002 76V87.5312" stroke="#89D9AA" stroke-width="2" stroke-linecap="round" />
    <circle cx="93" cy="92.4688" r="0.5" fill="#A5ABC5" stroke="#89D9AA" />
</svg>
