<svg width="184" height="184" viewBox="0 0 184 184" fill="none" xmlns="http://www.w3.org/2000/svg">
    <defs>
        <linearGradient id="paint0_linear" x1="102.248" y1="187.905" x2="93.3741" y2="34.4372"
                        gradientUnits="userSpaceOnUse">
            <stop stop-color="white" stop-opacity="0"/>
            <stop offset="1" stop-color="white"/>
        </linearGradient>
        <linearGradient id="paint1_linear" x1="95.9141" y1="124.872" x2="110.4" y2="194.556"
                        gradientUnits="userSpaceOnUse">
            <stop offset="4e-07" stop-color="#C7FFAB"/>
            <stop offset="1" stop-color="#83CFD3"/>
        </linearGradient>
        <linearGradient id="paint2_linear" x1="92.0163" y1="97.9238" x2="106.633" y2="207.282"
                        gradientUnits="userSpaceOnUse">
            <stop offset="4e-07" stop-color="#C7FFAB"/>
            <stop offset="1" stop-color="#83CFD3"/>
        </linearGradient>
        <linearGradient id="paint3_linear" x1="88.993" y1="40.4639" x2="96.8025" y2="182.586"
                        gradientUnits="userSpaceOnUse">
            <stop offset="4e-07" stop-color="#C7FFAB"/>
            <stop offset="1" stop-color="#83CFD3"/>
        </linearGradient>
        <linearGradient id="paint4_linear" x1="116.464" y1="205.712" x2="95.0608" y2="150.38"
                        gradientUnits="userSpaceOnUse">
            <stop offset="4e-07" stop-color="#5399A5"/>
            <stop offset="1" stop-color="#83CFD3"/>
        </linearGradient>
        <linearGradient id="paint5_linear" x1="144.682" y1="140.73" x2="171.205" y2="166.86"
                        gradientUnits="userSpaceOnUse">
            <stop offset="4e-07" stop-color="#C7FFAB"/>
            <stop offset="1" stop-color="#83CFD3"/>
        </linearGradient>
        <linearGradient id="paint6_linear" x1="42.1303" y1="152.659" x2="47.2197" y2="173.996"
                        gradientUnits="userSpaceOnUse">
            <stop offset="4e-07" stop-color="#C7FFAB"/>
            <stop offset="1" stop-color="#83CFD3"/>
        </linearGradient>
        <linearGradient id="paint7_linear" x1="42.6265" y1="156.713" x2="68.191" y2="181.9"
                        gradientUnits="userSpaceOnUse">
            <stop offset="4e-07" stop-color="#C7FFAB"/>
            <stop offset="1" stop-color="#83CFD3"/>
        </linearGradient>
        <linearGradient id="paint8_linear" x1="81.2063" y1="167.642" x2="99.5566" y2="185.722"
                        gradientUnits="userSpaceOnUse">
            <stop offset="4e-07" stop-color="#C7FFAB"/>
            <stop offset="1" stop-color="#83CFD3"/>
        </linearGradient>
        <linearGradient id="paint9_linear" x1="81.1657" y1="167.429" x2="79.0122" y2="182.699"
                        gradientUnits="userSpaceOnUse">
            <stop offset="4e-07" stop-color="#C7FFAB"/>
            <stop offset="1" stop-color="#83CFD3"/>
        </linearGradient>
    </defs>
    <path d="M184 91.9954C184 98.8632 183.249 105.55 181.823 111.99C181.577 113.125 181.301 114.246 180.995 115.362C180.78 116.236 180.535 117.111 180.274 117.97C179.983 118.953 179.675 119.931 179.353 120.914C179.337 120.989 179.308 121.081 179.276 121.159C179.031 121.926 178.755 122.677 178.479 123.429C178.279 123.995 178.063 124.56 177.85 125.129C177.695 125.513 177.543 125.911 177.39 126.295C177.206 126.756 177.022 127.199 176.823 127.645C176.484 128.472 176.133 129.283 175.765 130.083C174.569 132.719 173.25 135.294 171.794 137.795C171.794 137.81 171.778 137.81 171.778 137.825C169.616 141.583 167.209 145.202 164.54 148.589C164.296 148.913 164.051 149.218 163.79 149.541C163.345 150.092 162.901 150.629 162.441 151.168C160.707 153.252 158.851 155.247 156.935 157.179C154.819 159.278 152.597 161.288 150.28 163.19C148.563 164.6 146.8 165.948 144.975 167.221C144.931 167.253 144.868 167.299 144.822 167.328H144.807C144.483 167.558 144.163 167.79 143.839 168.001C143.534 168.217 143.241 168.417 142.934 168.615C142.645 168.815 142.352 169.013 142.045 169.199C139.455 170.885 136.786 172.433 134.028 173.843C133.995 173.874 133.951 173.888 133.92 173.906C133.782 173.981 133.66 174.044 133.537 174.104C131.59 175.087 129.612 176.005 127.588 176.85C125.518 177.724 123.402 178.521 121.256 179.244C118.986 180.01 116.686 180.67 114.341 181.251C113.39 181.496 112.439 181.712 111.489 181.91L108.851 182.45C106.95 182.801 105.034 183.094 103.085 183.339C100.064 183.69 96.9839 183.905 93.8698 183.968C93.6245 183.983 93.3945 183.983 93.1492 183.983C92.7659 183.998 92.3826 183.998 91.9992 183.998C90.8815 183.998 89.7607 183.983 88.6567 183.936C88.0281 183.92 87.3841 183.891 86.7555 183.845C86.1881 183.813 85.6208 183.767 85.0535 183.722H85.0382C84.7622 183.707 84.5015 183.69 84.2102 183.66C83.8591 183.644 83.5203 183.6 83.1676 183.566C82.8303 183.535 82.493 183.506 82.1403 183.462C81.9854 183.462 81.849 183.443 81.6957 183.414C81.6175 183.414 81.5408 183.399 81.4657 183.384C80.8217 183.324 80.1624 183.246 79.5184 183.154C78.8576 183.06 78.2136 182.971 77.5696 182.864C77.5543 182.864 77.5543 182.864 77.539 182.864C76.9395 182.77 76.343 182.663 75.7282 182.559C75.5135 182.526 75.3004 182.48 75.0842 182.436C74.2562 182.28 73.4283 182.128 72.6172 181.945C72.4623 181.913 72.3105 181.882 72.1557 181.852C71.5577 181.729 70.9751 181.591 70.3786 181.438C70.2237 181.407 70.0719 181.36 69.9171 181.33C69.4418 181.208 68.9833 181.1 68.5233 180.978C68.0174 180.84 67.5267 180.717 67.0345 180.579C66.9901 180.564 66.9287 180.548 66.8812 180.535C66.6512 180.456 66.4212 180.397 66.1912 180.334C65.8401 180.226 65.486 180.118 65.1486 180.013C64.2271 179.734 63.324 179.444 62.4194 179.139C62.0974 179.032 61.7754 178.923 61.4534 178.8C61.0855 178.678 60.7175 178.555 60.3648 178.417C59.6902 178.172 59.0309 177.926 58.3716 177.666C56.2388 176.821 54.1551 175.916 52.1158 174.923C51.0579 174.417 50.0153 173.892 48.9726 173.326C48.7273 173.204 48.482 173.081 48.2366 172.943C48.114 172.865 47.976 172.805 47.8533 172.727C47.3167 172.437 46.7801 172.13 46.2434 171.822C45.8908 171.624 45.5534 171.424 45.1993 171.209C44.9708 171.089 44.7561 170.948 44.5261 170.81C42.9622 169.876 41.4289 168.894 39.9263 167.837C39.5583 167.607 39.1904 167.346 38.8224 167.086C37.4424 166.106 36.0778 165.076 34.7439 164.019C33.3333 162.9 31.938 161.719 30.5887 160.509C30.2361 160.186 29.8834 159.865 29.5461 159.542C28.0435 158.162 26.6007 156.736 25.207 155.265C24.6228 154.652 24.057 154.037 23.505 153.408C23.2904 153.178 23.0895 152.965 22.8917 152.735C22.0944 151.831 21.3278 150.912 20.5612 149.974V149.958C19.4265 148.578 18.3379 147.152 17.3106 145.697C16.9273 145.161 16.544 144.622 16.176 144.086C15.9153 143.718 15.67 143.35 15.4247 142.983C15.0736 142.444 14.7194 141.908 14.3821 141.372C14.0601 140.881 13.7688 140.389 13.4621 139.898C13.1555 139.411 12.8488 138.905 12.5575 138.397C12.2048 137.813 11.8828 137.232 11.5455 136.634C10.4722 134.717 9.47406 132.756 8.5403 130.746C5.79575 124.826 3.64919 118.573 2.20791 112.056C2.10058 111.625 2.00705 111.196 1.91659 110.765C1.79393 110.199 1.68659 109.615 1.57927 109.034C0.979757 105.904 0.567305 102.7 0.306649 99.4658C0.274451 99.0043 0.229998 98.5458 0.199333 98.0858C0.076671 96.0756 0 94.0547 0 92C0 84.7611 0.843301 77.694 2.42257 70.9473C4.0325 64.0918 6.39374 57.5307 9.44495 51.3513C11.0242 48.162 12.7721 45.0631 14.7041 42.09C31.0809 16.7593 59.5844 0 91.9962 0C116.743 0 139.206 9.76734 155.734 25.668C163.568 33.1967 170.07 42.1053 174.854 51.9953C175.483 53.3002 176.081 54.602 176.633 55.936C181.378 67.0021 184 79.1921 184 91.9954Z"
          fill="#97B8FF"/>
    <path d="M180.275 117.97C179.984 118.953 179.676 119.931 179.354 120.914C179.338 120.989 179.309 121.081 179.277 121.159C179.032 121.926 178.756 122.677 178.48 123.429C178.28 123.994 178.064 124.56 177.851 125.129C177.696 125.512 177.544 125.911 177.391 126.294C177.207 126.756 177.023 127.199 176.824 127.645C176.485 128.472 176.134 129.283 175.766 130.083C174.57 132.719 173.251 135.294 171.795 137.794C171.795 137.81 171.779 137.81 171.779 137.825C169.617 141.583 167.21 145.202 164.541 148.589C164.297 148.913 164.052 149.218 163.791 149.541C163.346 150.092 162.902 150.628 162.442 151.168C160.707 153.252 158.852 155.247 156.936 157.179C154.82 159.278 152.598 161.288 150.281 163.189C148.564 164.6 146.801 165.948 144.976 167.221C144.932 167.253 144.869 167.299 144.823 167.328H144.807C144.484 167.558 144.163 167.789 143.84 168.001C143.535 168.217 143.242 168.417 142.935 168.614C142.646 168.815 142.353 169.013 142.046 169.199C139.456 170.885 136.787 172.432 134.029 173.843C133.996 173.874 133.952 173.888 133.921 173.906C133.783 173.981 133.661 174.044 133.538 174.104C131.591 175.087 129.613 176.005 127.589 176.85C125.519 177.724 123.403 178.521 121.256 179.243C118.987 180.01 116.687 180.669 114.341 181.251C113.391 181.496 112.44 181.712 111.49 181.91L108.852 182.45C106.951 182.801 105.034 183.094 103.086 183.339C100.065 183.69 96.9848 183.905 93.8707 183.968C93.6254 183.983 93.3954 183.983 93.1501 183.983C92.7668 183.998 92.3835 183.998 92.0001 183.998C90.8824 183.998 89.7616 183.983 88.6576 183.935C88.029 183.92 87.385 183.891 86.7564 183.845C86.1891 183.813 85.6217 183.767 85.0544 183.722H85.0391C84.7631 183.707 84.5025 183.69 84.2111 183.659C83.86 183.644 83.5212 183.6 83.1685 183.566C82.8312 183.535 82.4939 183.506 82.1412 183.462C81.9864 183.462 81.8499 183.443 81.6966 183.414C81.6184 183.414 81.5417 183.399 81.4666 183.383C80.8226 183.324 80.1633 183.245 79.5193 183.153C78.8585 183.06 78.2145 182.971 77.5706 182.864C77.5552 182.864 77.5552 182.864 77.5399 182.864C76.9404 182.77 76.3439 182.663 75.7291 182.559C75.5144 182.526 75.3013 182.48 75.0851 182.436C74.2572 182.279 73.4292 182.128 72.6181 181.945C72.4632 181.913 72.3114 181.882 72.1566 181.852C71.5586 181.729 70.976 181.591 70.3795 181.438C70.2247 181.407 70.0728 181.359 69.918 181.33C69.4427 181.208 68.9842 181.1 68.5243 180.978C68.0183 180.84 67.5276 180.717 67.0355 180.579L67.0201 180.564L54.202 169.708L52.1321 167.944L49.4029 165.629L48.1302 164.554L40.1419 157.777H40.1266L23.7053 143.854L17.4342 138.535L17.3115 138.428C24.1177 133.765 30.191 129.504 35.6954 125.778C58.3418 110.46 71.5893 104.233 88.7466 116.424C90.8931 117.942 93.2237 119.23 95.7076 120.273C98.3755 121.438 101.229 122.343 104.187 123.016C106.026 123.462 107.912 123.798 109.829 124.059H109.844C110.657 124.2 111.456 124.289 112.282 124.367C119.795 125.209 127.754 124.996 135.389 124.289C136.937 124.135 138.487 123.968 140.004 123.783C142.81 123.432 145.554 123.031 148.193 122.602C155.89 121.345 162.713 119.841 167.757 118.738C169.873 118.277 172.127 118.016 174.443 117.909C176.365 117.833 178.312 117.863 180.275 117.97Z"
          fill="url(#paint0_linear)"/>
    <path d="M181.823 111.99C181.578 113.125 181.302 114.246 180.995 115.362C180.781 116.236 180.535 117.112 180.275 117.97C179.983 118.953 179.675 119.931 179.353 120.914C179.338 120.989 179.309 121.081 179.276 121.16C179.031 121.926 178.755 122.678 178.479 123.429C178.28 123.995 178.064 124.56 177.851 125.129C177.696 125.513 177.544 125.911 177.391 126.295C177.207 126.756 177.023 127.199 176.823 127.646C176.484 128.472 176.133 129.283 175.765 130.084C174.569 132.719 173.251 135.294 171.794 137.795C171.794 137.81 171.779 137.81 171.779 137.825C169.617 141.584 167.21 145.202 164.54 148.589C164.296 148.913 164.051 149.218 163.79 149.542C163.346 150.092 162.901 150.629 162.441 151.168C160.707 153.252 158.852 155.247 156.935 157.179C154.819 159.278 152.598 161.288 150.281 163.19C148.564 164.6 146.8 165.948 144.976 167.221C144.931 167.253 144.868 167.299 144.822 167.328H144.807C144.484 167.558 144.163 167.79 143.84 168.001C143.534 168.218 143.242 168.417 142.935 168.615C142.645 168.816 142.352 169.013 142.046 169.199C139.456 170.886 136.786 172.433 134.028 173.843C133.996 173.874 133.951 173.888 133.921 173.906C133.783 173.981 133.66 174.044 133.538 174.104C131.59 175.087 129.612 176.005 127.588 176.85C125.519 177.724 123.403 178.522 121.256 179.244C118.987 180.01 116.687 180.67 114.341 181.251C113.39 181.496 112.44 181.712 111.489 181.91L108.852 182.45C106.951 182.801 105.034 183.094 103.085 183.339C100.065 183.69 96.9844 183.905 93.8703 183.968C93.625 183.983 93.395 183.983 93.1497 183.983C92.7663 183.999 92.383 183.999 91.9997 183.999C90.882 183.999 89.7611 183.983 88.6572 183.936C88.0285 183.92 87.3846 183.891 86.7559 183.845C86.1886 183.813 85.6213 183.782 85.0387 183.738C84.7627 183.723 84.4867 183.69 84.2107 183.66C83.8596 183.644 83.5207 183.6 83.1681 183.566C82.8308 183.536 82.4781 183.506 82.1408 183.476C81.9859 183.46 81.8495 183.444 81.6961 183.413C81.6179 183.413 81.5413 183.398 81.4662 183.398C80.8068 183.322 80.1629 183.244 79.5189 183.152C78.8581 183.059 78.2141 182.97 77.5701 182.862C77.5548 182.862 77.5548 182.862 77.5394 182.862C76.9399 182.769 76.3435 182.662 75.7287 182.557C75.514 182.525 75.3009 182.479 75.0847 182.435C74.2567 182.278 73.4287 182.126 72.6176 181.944C72.4628 181.912 72.311 181.881 72.1561 181.85C71.5582 181.728 70.9755 181.59 70.3791 181.436C70.2242 181.406 70.0724 181.358 69.9175 181.329C69.4422 181.206 68.9838 181.099 68.5238 180.976C68.0178 180.838 67.5272 180.716 67.035 180.578L67.0197 180.562C66.9737 180.547 66.9277 180.547 66.8817 180.532C66.6517 180.454 66.4217 180.394 66.1917 180.331C65.8406 180.224 65.4864 180.115 65.1491 180.01C64.2276 179.731 63.3245 179.442 62.4199 179.136C62.0979 179.029 61.7759 178.92 61.4539 178.798C61.0859 178.675 60.7179 178.552 60.3653 178.414C59.6906 178.169 59.0313 177.924 58.372 177.663C56.2393 176.818 54.1556 175.913 52.1163 174.92C51.0584 174.414 50.0157 173.889 48.9731 173.324C48.7278 173.201 48.4824 173.078 48.2371 172.94C48.1145 172.862 47.9765 172.802 47.8538 172.724C47.3172 172.434 46.7805 172.128 46.2439 171.819C45.8912 171.622 45.5539 171.421 45.1997 171.206C44.9713 171.086 44.7566 170.945 44.5266 170.807C42.9627 169.874 41.4294 168.891 39.9268 167.834C39.5588 167.604 39.1908 167.344 38.8228 167.083C37.4429 166.103 36.0783 165.073 34.7444 164.016C33.3338 162.897 31.9385 161.716 30.5892 160.506C30.2365 160.183 29.8839 159.862 29.5466 159.539C28.044 158.159 26.6012 156.733 25.2074 155.262C24.6233 154.649 24.0575 154.034 23.5055 153.406C23.2908 153.176 23.09 152.962 22.8922 152.732C22.0949 151.828 21.3283 150.909 20.5616 149.971V149.956C19.427 148.576 18.3384 147.15 17.3111 145.694C16.9278 145.158 16.5445 144.62 16.1765 144.083C15.9158 143.715 15.6705 143.347 15.4252 142.98C15.074 142.441 14.7199 141.906 14.3825 141.369C14.0606 140.878 13.7692 140.386 13.4626 139.895C13.1559 139.408 12.8493 138.902 12.558 138.394C12.2053 137.81 11.8833 137.229 11.546 136.631C10.4727 134.714 9.47453 132.753 8.54077 130.743C18.3522 126.187 26.8005 124.393 35.695 125.775C44.5726 127.155 53.878 131.723 65.4389 139.895C75.5447 147.056 85.3407 150.785 94.5097 151.536H94.5265C96.7329 151.719 98.8964 151.734 101.043 151.567C101.058 151.582 101.058 151.567 101.058 151.567C101.67 151.536 102.285 151.474 102.898 151.397C112.895 150.202 121.971 145.296 129.698 137.399C130.005 137.091 130.312 136.77 130.603 136.447C130.833 136.22 131.063 135.973 131.277 135.728C132.182 134.745 133.056 133.704 133.899 132.646C134.313 132.14 134.727 131.618 135.126 131.08C136.828 128.812 138.469 126.39 140.002 123.782C140.479 122.984 140.937 122.158 141.397 121.328C153.732 98.8342 167.395 99.5073 181.823 111.99Z"
          fill="url(#paint1_linear)"/>
    <path d="M179.279 121.16C179.033 121.926 178.757 122.678 178.481 123.429C178.282 123.995 178.066 124.561 177.853 125.129C177.698 125.513 177.546 125.911 177.393 126.295C177.209 126.756 177.025 127.199 176.825 127.646C176.486 128.472 176.135 129.283 175.767 130.084C174.571 132.719 173.253 135.294 171.796 137.795C171.796 137.81 171.781 137.81 171.781 137.825C169.619 141.584 167.212 145.202 164.542 148.589C164.298 148.913 164.053 149.218 163.792 149.542C163.348 150.092 162.903 150.629 162.443 151.168C160.709 153.252 158.854 155.247 156.937 157.179C154.821 159.278 152.6 161.288 150.283 163.19C148.566 164.6 146.802 165.948 144.978 167.221C144.933 167.253 144.87 167.299 144.824 167.328H144.809C144.486 167.558 144.165 167.79 143.842 168.001C143.536 168.218 143.244 168.417 142.937 168.615C142.647 168.816 142.354 169.013 142.048 169.199C139.458 170.886 136.789 172.433 134.03 173.843C133.998 173.874 133.954 173.888 133.923 173.906C133.785 173.981 133.662 174.044 133.54 174.104C131.592 175.087 129.614 176.005 127.59 176.85C125.521 177.724 123.405 178.522 121.258 179.244C118.989 180.01 116.689 180.67 114.343 181.251C113.392 181.496 112.442 181.712 111.491 181.91L108.854 182.45C106.953 182.801 105.036 183.094 103.087 183.339C100.067 183.69 96.9864 183.905 93.8723 183.968C93.627 183.983 93.397 183.983 93.1517 183.983C92.7684 183.999 92.385 183.999 92.0017 183.999C90.884 183.999 89.7632 183.983 88.6592 183.936C88.0306 183.92 87.3866 183.891 86.7579 183.845C86.1906 183.813 85.6233 183.782 85.0407 183.738C84.7647 183.723 84.4887 183.69 84.2127 183.66C83.8616 183.644 83.5228 183.6 83.1701 183.566C82.8328 183.536 82.4801 183.506 82.1428 183.476C81.988 183.46 81.8515 183.444 81.6982 183.413C81.62 183.413 81.5433 183.398 81.4682 183.398C80.8089 183.322 80.1649 183.244 79.5209 183.152C78.8601 183.059 78.2161 182.97 77.5721 182.862C77.5568 182.862 77.5568 182.862 77.5415 182.862C76.942 182.769 76.3455 182.662 75.7307 182.557C75.516 182.525 75.3029 182.479 75.0867 182.435C74.2587 182.278 73.4308 182.126 72.6197 181.944C72.4648 181.912 72.313 181.881 72.1582 181.85C71.5602 181.728 70.9775 181.59 70.3811 181.436C70.2262 181.406 70.0745 181.358 69.9196 181.329C69.4443 181.206 68.9858 181.099 68.5259 180.976C68.0199 180.838 67.5292 180.716 67.037 180.578L67.0217 180.562C66.9757 180.547 66.9297 180.547 66.8837 180.532C66.6537 180.454 66.4238 180.394 66.1938 180.331C65.8426 180.224 65.4884 180.115 65.1511 180.01C64.2296 179.731 63.3265 179.442 62.4219 179.136C62.0999 179.029 61.7779 178.92 61.4559 178.798C61.088 178.675 60.72 178.552 60.3673 178.414C59.6927 178.169 59.0334 177.924 58.3741 177.663C56.2413 176.818 54.1576 175.913 52.1183 174.92C51.0604 174.414 50.0177 173.889 48.9751 173.324C48.7298 173.201 48.4845 173.078 48.2392 172.94C48.1165 172.862 47.9785 172.802 47.8558 172.724C47.3192 172.434 46.7826 172.128 46.2459 171.819C45.8933 171.622 45.5559 171.421 45.2018 171.206C44.9733 171.086 44.7586 170.945 44.5287 170.807C42.9647 169.874 41.4314 168.891 39.9288 167.834C39.5609 167.604 39.1929 167.344 38.8249 167.083C37.4449 166.103 36.0803 165.073 34.7464 164.016C33.3358 162.897 31.9405 161.716 30.5912 160.506C30.2386 160.183 29.8859 159.862 29.5486 159.539C28.046 158.159 26.6032 156.733 25.2094 155.262C24.6253 154.649 24.0595 154.034 23.5075 153.406C23.2929 153.176 23.092 152.962 22.8942 152.732C22.0969 151.828 21.3303 150.909 20.5636 149.971V149.956C19.429 148.576 18.3404 147.15 17.3131 145.694C16.9298 145.158 16.5465 144.62 16.1785 144.083C15.9178 143.715 15.6725 143.347 15.4272 142.98C15.0761 142.441 14.7219 141.906 14.3846 141.369C14.0626 140.878 13.7713 140.386 13.4646 139.895C14.8139 139.374 16.1325 138.916 17.4358 138.532C32.8298 133.839 45.9546 137.335 65.4425 151.135C69.7663 154.201 74.0303 156.624 78.1992 158.466C80.4225 159.445 82.5997 160.26 84.7616 160.904H84.777C89.7448 162.406 94.5746 163.05 99.2357 162.914C100.863 162.866 102.471 162.713 104.065 162.468C108.987 161.732 113.679 160.089 118.095 157.651C118.11 157.651 118.11 157.651 118.11 157.636C118.661 157.331 119.199 157.007 119.736 156.672C122.327 155.091 124.826 153.206 127.203 151.06C129.426 149.036 131.557 146.78 133.581 144.298C136.142 141.137 138.532 137.628 140.711 133.78C140.954 133.379 141.171 132.982 141.399 132.568C141.721 131.968 142.06 131.402 142.382 130.836C144.282 127.554 146.23 124.823 148.193 122.601C156.486 113.185 165.274 112.665 174.443 117.907C176.042 118.812 177.653 119.902 179.279 121.16Z"
          fill="url(#paint2_linear)"/>
    <path d="M171.796 137.796C171.796 137.811 171.781 137.811 171.781 137.827C169.619 141.585 167.212 145.204 164.542 148.591C164.298 148.914 164.053 149.219 163.792 149.543C163.348 150.093 162.903 150.63 162.443 151.17C160.709 153.254 158.854 155.248 156.937 157.18C154.821 159.28 152.599 161.29 150.283 163.191C148.565 164.602 146.802 165.95 144.978 167.222C144.933 167.254 144.87 167.3 144.824 167.33H144.809C144.485 167.56 144.165 167.791 143.841 168.003C143.536 168.219 143.243 168.418 142.937 168.616C142.647 168.817 142.354 169.015 142.048 169.2C139.458 170.887 136.788 172.434 134.03 173.845C133.998 173.875 133.953 173.889 133.923 173.908C133.785 173.983 133.662 174.046 133.539 174.105C131.592 175.088 129.614 176.007 127.59 176.852C125.52 177.726 123.405 178.523 121.258 179.245C118.989 180.012 116.689 180.671 114.343 181.252C113.392 181.498 112.442 181.714 111.491 181.912L108.854 182.451C106.953 182.802 105.036 183.095 103.087 183.341C100.067 183.692 96.9863 183.906 93.8722 183.969C93.6269 183.985 93.3969 183.985 93.1516 183.985C92.7682 184 92.3849 184 92.0016 184C90.8838 184 89.763 183.985 88.6591 183.937C88.0304 183.922 87.3865 183.893 86.7578 183.847C86.1905 183.814 85.6232 183.784 85.0406 183.739C84.7646 183.724 84.4886 183.692 84.2126 183.661C83.8615 183.646 83.5226 183.601 83.17 183.568C82.8327 183.537 82.48 183.508 82.1427 183.477C81.9127 183.445 81.698 183.43 81.468 183.399C80.8087 183.324 80.1648 183.246 79.5208 183.154C78.8599 183.06 78.216 182.971 77.572 182.864C77.5567 182.864 77.5567 182.864 77.5413 182.864C76.7134 182.726 75.9007 182.588 75.0866 182.436C74.2586 182.28 73.4307 182.128 72.6196 181.945C71.8683 181.792 71.1169 181.622 70.381 181.439C70.2261 181.409 70.0743 181.361 69.9195 181.332C69.4441 181.209 68.9857 181.102 68.5257 180.979C68.0197 180.841 67.5291 180.719 67.0369 180.581L67.0216 180.565C66.9756 180.55 66.9296 180.55 66.8836 180.535C66.6536 180.456 66.4236 180.397 66.1936 180.334C65.8425 180.226 65.4883 180.118 65.151 180.013C64.2295 179.734 63.3264 179.444 62.4218 179.139C62.0998 179.032 61.7778 178.923 61.4558 178.8C61.0878 178.678 60.7199 178.555 60.3672 178.417C59.6926 178.172 59.0332 177.926 58.3739 177.666C56.2412 176.821 54.1575 175.916 52.1182 174.923C51.0602 174.417 50.0176 173.892 48.975 173.326C48.7297 173.204 48.4844 173.081 48.239 172.943C48.1164 172.865 47.9784 172.805 47.8557 172.727C47.3191 172.437 46.7824 172.13 46.2458 171.822C45.8931 171.624 45.5558 171.424 45.2016 171.209C44.9732 171.089 44.7585 170.948 44.5285 170.81C42.9646 169.876 41.4313 168.894 39.9287 167.837C39.5607 167.607 39.1927 167.346 38.8248 167.086C37.4448 166.106 36.0802 165.076 34.7463 164.019C33.3356 162.9 31.9404 161.719 30.5911 160.509C30.2385 160.186 29.8858 159.865 29.5485 159.542C28.0459 158.162 26.6031 156.736 25.2093 155.265C24.6251 154.652 24.0594 154.037 23.5074 153.408C23.2927 153.178 23.0919 152.965 22.8941 152.735C22.0968 151.831 21.3301 150.912 20.5635 149.974V149.958C19.4289 148.578 18.3403 147.152 17.313 145.697C19.5362 144.823 21.6675 144.208 23.7067 143.856C27.8005 143.107 31.5877 143.305 35.3136 144.208C43.3939 146.156 51.2289 151.338 61.2718 157.197C61.6398 157.41 61.9925 157.596 62.3605 157.778C63.3724 158.284 64.415 158.668 65.4883 158.944C65.657 159.007 65.8103 159.051 65.9943 159.085C68.9075 159.773 72.0047 159.729 75.2399 159.145C75.5619 159.085 75.8992 159.022 76.2212 158.944C76.5432 158.884 76.8805 158.806 77.2025 158.731C77.5413 158.637 77.8633 158.56 78.1991 158.47C78.8431 158.3 79.4871 158.102 80.131 157.901C80.361 157.841 80.5757 157.763 80.7919 157.688C81.2197 157.532 81.6643 157.395 82.1089 157.226C82.7683 156.981 83.4276 156.736 84.1022 156.46C84.7308 156.214 85.3595 155.954 86.0035 155.662C86.1261 155.615 86.2488 155.555 86.3714 155.509C86.9387 155.264 87.5061 155.003 88.0734 154.742C89.484 154.08 90.9237 153.376 92.3819 152.64C93.0872 152.288 93.7925 151.921 94.5131 151.538H94.53C95.7106 150.909 96.9065 150.265 98.1178 149.603C98.8523 149.204 99.6051 148.805 100.356 148.393C100.968 148.054 101.568 147.72 102.179 147.381C103.04 146.904 103.914 146.413 104.801 145.941C106.934 144.759 109.096 143.578 111.273 142.428C111.779 142.152 112.284 141.878 112.807 141.617C113.021 141.494 113.234 141.387 113.451 141.278C114.001 140.988 114.554 140.712 115.106 140.436C116.762 139.576 118.434 138.765 120.105 137.98C120.688 137.704 121.27 137.443 121.853 137.183C122.008 137.108 122.175 137.029 122.343 136.953C122.343 136.953 122.343 136.953 122.359 136.953C122.897 136.707 123.432 136.479 123.969 136.249C124.568 135.988 125.165 135.743 125.78 135.498C126.008 135.404 126.224 135.315 126.439 135.237C127.098 134.976 127.757 134.716 128.432 134.47C128.616 134.392 128.8 134.332 128.984 134.269C129.674 134.009 130.379 133.763 131.085 133.535C132.018 133.211 132.955 132.922 133.906 132.646C134.305 132.538 134.719 132.416 135.117 132.307C136.926 131.83 138.751 131.417 140.56 131.112C141.174 131.005 141.772 130.911 142.385 130.836C142.906 130.758 143.427 130.695 143.933 130.651C144.455 130.606 144.976 130.557 145.482 130.513C146.003 130.482 146.525 130.453 147.048 130.434C147.552 130.419 148.058 130.404 148.564 130.404C153.731 130.404 158.898 131.324 164.051 133.518C166.643 134.607 169.22 136.017 171.796 137.796Z"
          fill="url(#paint3_linear)"/>
    <path opacity="0.15"
          d="M164.052 133.519C163.514 133.978 162.519 134.085 160.969 133.702C150.007 131.034 136.499 133.441 120.123 140.419C103.747 147.41 91.2204 161.563 76.9763 162.806C62.7169 164.047 58.0098 159.08 47.7062 151.749C42.2616 147.885 38.5986 145.463 35.3174 144.205C43.3977 146.153 51.2327 151.335 61.2757 157.194C85.6715 171.407 125.443 117.14 164.052 133.519Z"
          fill="white"/>
    <path d="M163.791 149.541C163.347 150.092 162.902 150.628 162.442 151.168C160.708 153.252 158.853 155.247 156.936 157.179C154.82 159.278 152.599 161.288 150.282 163.189C148.565 164.6 146.801 165.948 144.977 167.221C144.932 167.253 144.869 167.299 144.823 167.328H144.808C144.485 167.558 144.164 167.789 143.841 168.001C143.535 168.217 143.243 168.417 142.936 168.614C142.646 168.815 142.353 169.013 142.047 169.199C139.457 170.885 136.788 172.432 134.029 173.843C133.997 173.874 133.953 173.888 133.922 173.906C133.784 173.981 133.661 174.044 133.539 174.104C131.591 175.087 129.613 176.005 127.589 176.85C125.52 177.724 123.404 178.521 121.257 179.243C118.988 180.01 116.688 180.669 114.342 181.251C113.391 181.496 112.441 181.712 111.49 181.91L108.853 182.45C106.952 182.801 105.035 183.094 103.086 183.339C100.066 183.69 96.9854 183.905 93.8713 183.968C93.626 183.983 93.396 183.983 93.1507 183.983C92.7674 183.998 92.384 183.998 92.0007 183.998C90.883 183.998 89.7622 183.983 88.6582 183.935C88.0296 183.92 87.3856 183.891 86.757 183.845C86.1896 183.813 85.6223 183.782 85.0397 183.738C84.7637 183.722 84.4877 183.69 84.2117 183.659C83.8606 183.644 83.5218 183.6 83.1691 183.566C82.8318 183.535 82.4791 183.506 82.1418 183.475C81.9118 183.443 81.6972 183.428 81.4672 183.397C80.8079 183.322 80.1639 183.244 79.5199 183.152C78.8591 183.058 78.2151 182.969 77.5711 182.862C77.5558 182.862 77.5558 182.862 77.5405 182.862C76.7125 182.724 75.8999 182.586 75.0857 182.434C74.2577 182.278 73.4298 182.126 72.6187 181.944C71.8674 181.79 71.1161 181.62 70.3801 181.438C70.2252 181.407 70.0735 181.359 69.9186 181.33C69.4433 181.208 68.9848 181.1 68.5249 180.978C68.0189 180.84 67.5282 180.717 67.036 180.579L67.0207 180.564C66.9747 180.548 66.9287 180.548 66.8827 180.533C66.6527 180.455 66.4228 180.395 66.1928 180.332C65.8416 180.225 65.4874 180.116 65.1501 180.012C64.2286 179.733 63.3255 179.443 62.4209 179.138C62.0989 179.03 61.7769 178.921 61.4549 178.799C61.087 178.676 60.719 178.553 60.3663 178.415C59.6917 178.17 59.0324 177.925 58.3731 177.664C56.2403 176.819 54.1566 175.915 52.1173 174.921C51.0594 174.415 50.0168 173.891 48.9741 173.325C48.7288 173.202 48.4835 173.079 48.2382 172.941C48.1155 172.863 47.9775 172.803 47.8548 172.725C47.3182 172.435 46.7816 172.129 46.2449 171.821C45.8923 171.623 45.5549 171.422 45.2008 171.207C44.9723 171.088 44.7576 170.947 44.5277 170.809C42.9637 169.875 41.4305 168.892 39.9278 167.835C39.5599 167.605 39.1919 167.345 38.8239 167.084C37.4439 166.104 36.0793 165.074 34.7454 164.017C33.3348 162.898 31.9395 161.717 30.5902 160.508C30.2376 160.184 29.8849 159.864 29.5476 159.54C33.8561 159.678 37.9346 160.857 42.1189 162.7C44.1581 163.59 46.2127 164.632 48.3302 165.798C48.6506 165.965 48.9895 166.15 49.3114 166.334C50.2467 166.856 51.182 167.394 52.1327 167.946C52.8671 168.36 53.6046 168.806 54.3712 169.249C56.5638 170.537 58.8484 171.917 61.271 173.328C65.9781 176.074 71.2679 176.272 77.0023 174.906C78.9511 174.447 80.9428 173.819 82.9821 173.037C84.0093 172.638 85.052 172.222 86.0946 171.764C89.0385 170.491 92.059 168.973 95.1715 167.331C96.2448 166.765 97.3319 166.166 98.4374 165.568C100.293 164.574 102.163 163.528 104.064 162.47C111.486 158.376 119.244 154.131 127.202 151.064C129.348 150.219 131.512 149.483 133.687 148.839C139.543 147.139 145.463 146.234 151.397 146.646C152.638 146.725 153.864 146.863 155.107 147.077H155.122C155.782 147.168 156.441 147.304 157.1 147.461C159.345 147.93 161.568 148.623 163.791 149.541Z"
          fill="url(#paint4_linear)"/>
    <path d="M171.78 137.827C169.618 141.585 167.211 145.204 164.541 148.591C163.868 149.465 163.163 150.325 162.442 151.17C160.708 153.254 158.853 155.248 156.936 157.18C154.82 159.28 152.599 161.29 150.282 163.191C148.565 164.602 146.801 165.95 144.977 167.222C144.932 167.254 144.87 167.3 144.824 167.33H144.808C144.485 167.56 144.164 167.791 143.841 168.003C143.536 168.219 143.243 168.418 142.936 168.616C142.476 159.602 147.491 160.321 147.491 160.321C147.491 160.321 142.6 153.376 147.89 148.575C152.95 143.991 157.12 148.378 157.473 148.746C157.318 148.347 155.97 144.756 158.454 143.011C161.107 141.139 163.744 143.67 163.744 143.67C163.744 143.67 166.703 138.931 171.78 137.827Z"
          fill="url(#paint5_linear)"/>
    <path d="M48.9807 173.324C48.7353 173.201 48.49 173.078 48.2447 172.94C47.2173 172.39 46.2053 171.806 45.2086 171.206C43.4606 163.756 37.7581 155.69 39.9493 152.762C42.4946 149.356 46.604 154.908 48.168 164.689C48.49 166.638 48.6893 168.325 48.812 169.78C48.812 169.78 48.812 169.795 48.812 169.828C48.9347 171.206 48.9807 172.356 48.9807 173.324Z"
          fill="url(#paint6_linear)"/>
    <path d="M53.3024 172.157C52.8885 173.154 52.5052 174.074 52.1218 174.919C51.0639 174.413 50.0213 173.889 48.9786 173.323C48.7333 173.2 48.488 173.077 48.2427 172.939C48.4573 171.912 48.6413 170.856 48.81 169.828C48.81 169.796 48.81 169.781 48.81 169.781C49.6839 164.094 50.0059 158.665 52.4592 157.685C56.3859 156.104 57.0298 162.973 53.3024 172.157Z"
          fill="url(#paint7_linear)"/>
    <path d="M85.043 183.736C84.077 183.657 83.1111 183.565 82.1451 183.475C81.9151 183.443 81.7004 183.427 81.4705 183.397C81.6866 182.586 81.9611 181.647 82.3306 180.591C82.7906 179.196 83.4024 177.569 84.1859 175.715C88.0344 166.591 93.3395 162.176 95.0108 166.069C96.5118 169.613 88.2168 176.557 85.043 183.736Z"
          fill="url(#paint8_linear)"/>
    <path d="M82.3288 180.591C82.2506 181.543 82.1739 182.507 82.1448 183.475C81.9148 183.442 81.7002 183.427 81.4702 183.396C80.1669 183.243 78.8636 183.076 77.5757 182.86C77.5143 182.492 77.4699 182.124 77.407 181.741C75.9811 171.928 78.2365 165.411 81.6864 167.878C83.8314 169.445 82.8179 174.826 82.3288 180.591Z"
          fill="url(#paint9_linear)"/>
</svg>
