<svg width="24" height="24" viewBox="0 0 24 24" fill="none" xmlns="http://www.w3.org/2000/svg">
<path d="M4.5 5C4.5 4.17157 5.17157 3.5 6 3.5H16C16.8284 3.5 17.5 4.17157 17.5 5V17C17.5 17.8284 16.8284 18.5 16 18.5H6C5.17157 18.5 4.5 17.8284 4.5 17V5Z" stroke="#4C85FF"/>
<path d="M17.5 4.5V4.5C18.6046 4.5 19.5 5.39543 19.5 6.5V18.5C19.5 19.6046 18.6046 20.5 17.5 20.5H8.5C7.39543 20.5 6.5 19.6046 6.5 18.5V18.5" stroke="#4C85FF"/>
<path d="M8.5 7.5L13.5 7.5M8.5 9.5H13.5M8.5 11.5H10.5" stroke="#4C85FF" stroke-linecap="round"/>
<rect x="8.5" y="13.5" width="2" height="2" rx="1" stroke="#4C85FF"/>
</svg>
