<svg width="48" height="48" viewBox="0 0 48 48" fill="none" xmlns="http://www.w3.org/2000/svg">

    <path
        d="M10 12C10 10.8954 10.8954 10 12 10H36C37.1046 10 38 10.8954 38 12C38 13.1046 37.1046 14 36 14H12C10.8954 14 10 13.1046 10 12Z"
        stroke="#97B8FF" stroke-width="2" />
    <path
        d="M13.2104 38.9244L13.053 38.4603C13.0179 38.3569 13 38.2484 13 38.1391V14.5612V14H35V38.139C35 38.2483 34.9821 38.3569 34.947 38.4604L34.7894 38.9246C34.5958 39.4951 33.9453 39.7662 33.4039 39.5019L31.3882 38.5181C31.1114 38.3831 30.7878 38.383 30.511 38.5181L27.9133 39.7859C27.6365 39.921 27.3129 39.921 27.0361 39.7859L24.4385 38.5181C24.1617 38.3831 23.8381 38.383 23.5613 38.5181L20.9636 39.7859C20.6868 39.921 20.3632 39.921 20.0864 39.7859L17.4887 38.5181C17.2119 38.383 16.8883 38.383 16.6115 38.5181L14.596 39.5018C14.0545 39.7661 13.4039 39.495 13.2104 38.9244Z"
        stroke="#97B8FF" stroke-width="2" />
    <path d="M18 19H30" stroke="#97B8FF" stroke-width="2" stroke-linecap="round" />
    <path
        d="M18.0001 23H21.0001M18.0001 27H20.0001M18.0001 31H25.0001M23.0001 27H25.0001M28.0001 27H30.0001"
        stroke="#97B8FF" stroke-width="2" stroke-linecap="round" stroke-linejoin="bevel" />
</svg>
