<svg width="24" height="24" viewBox="0 0 24 24" fill="none" xmlns="http://www.w3.org/2000/svg">
<path d="M15.4938 3.10801C15.8829 2.70943 16.5227 2.70557 16.9165 3.09943L19.4932 5.67607C19.8784 6.06126 19.8844 6.68388 19.5067 7.07646L7.36934 19.6932C7.18081 19.8892 6.92061 19.9999 6.64868 19.9999L3.00004 19.9999L3.00007 16.3142L2.00007 16.3142L3.00007 16.3142C3.00007 16.0532 3.10214 15.8025 3.28448 15.6157L15.4938 3.10801Z" stroke="#97B8FF" stroke-width="2"/>
<path d="M12.5 5.5L17 9.99997" stroke="#97B8FF" stroke-width="2"/>
<path d="M21 21C21.5523 21 22 20.5523 22 20C22 19.4477 21.5523 19 21 19V21ZM4 21H21V19H4V21Z" fill="#97B8FF"/>
</svg>
