<svg width="50" height="50" viewBox="0 0 50 50" fill="none" xmlns="http://www.w3.org/2000/svg">
<path opacity="0.7" d="M26.2465 14.9473C26.2465 14.6711 26.0227 14.4473 25.7465 14.4473C25.4704 14.4473 25.2465 14.6711 25.2465 14.9473H26.2465ZM22.0659 26.937C21.7898 26.937 21.5659 27.1609 21.5659 27.437C21.5659 27.7132 21.7898 27.937 22.0659 27.937L22.0659 26.937ZM23.7465 27.437L23.7465 26.937L23.7465 27.437ZM25.2465 14.9473V25.437H26.2465V14.9473H25.2465ZM23.7465 26.937L22.0659 26.937L22.0659 27.937L23.7465 27.937L23.7465 26.937ZM25.2465 25.437C25.2465 26.2655 24.575 26.937 23.7465 26.937L23.7465 27.937C25.1272 27.937 26.2465 26.8178 26.2465 25.437H25.2465Z" fill="#97B8FF"/>
<path d="M15.5195 14.9141C15.5195 14.6379 15.2957 14.4141 15.0195 14.4141C14.7434 14.4141 14.5195 14.6379 14.5195 14.9141H15.5195ZM14.5195 18.489C14.5195 18.7652 14.7434 18.989 15.0195 18.989C15.2957 18.989 15.5195 18.7652 15.5195 18.489H14.5195ZM14.5195 14.9141V18.489H15.5195V14.9141H14.5195Z" fill="#97B8FF"/>
<path d="M36.9199 14.9141C36.9199 14.6379 36.6961 14.4141 36.4199 14.4141C36.1438 14.4141 35.9199 14.6379 35.9199 14.9141H36.9199ZM35.9199 18.489C35.9199 18.7652 36.1438 18.989 36.4199 18.989C36.6961 18.989 36.9199 18.7652 36.9199 18.489H35.9199ZM35.9199 14.9141V18.489H36.9199V14.9141H35.9199Z" fill="#97B8FF"/>
<path d="M16.3017 34.3574C16.0959 34.1732 15.7798 34.1908 15.5957 34.3965C15.4115 34.6023 15.4291 34.9184 15.6348 35.1026L16.3017 34.3574ZM33.8386 35.1125C34.0499 34.9347 34.077 34.6193 33.8992 34.408C33.7214 34.1967 33.406 34.1696 33.1947 34.3474L33.8386 35.1125ZM15.9683 34.73C15.6348 35.1026 15.635 35.1027 15.6351 35.1028C15.6352 35.1029 15.6354 35.1031 15.6355 35.1032C15.6358 35.1034 15.6362 35.1037 15.6365 35.1041C15.6373 35.1048 15.6383 35.1057 15.6395 35.1067C15.6419 35.1088 15.6452 35.1117 15.6492 35.1152C15.6573 35.1223 15.6688 35.1323 15.6835 35.1448C15.7129 35.1699 15.7554 35.2055 15.8106 35.2501C15.921 35.3393 16.0822 35.4647 16.2911 35.6144C16.7086 35.9135 17.318 36.3104 18.0935 36.7087C19.6432 37.5045 21.8684 38.3116 24.5574 38.3426L24.5689 37.3427C22.0745 37.3139 20.0023 36.5647 18.5503 35.8191C17.8251 35.4467 17.2576 35.0766 16.8735 34.8015C16.6815 34.6639 16.5358 34.5504 16.4393 34.4724C16.3911 34.4334 16.3553 34.4034 16.3322 34.3837C16.3206 34.3739 16.3123 34.3667 16.3072 34.3622C16.3046 34.36 16.3029 34.3584 16.302 34.3576C16.3015 34.3572 16.3013 34.357 16.3012 34.3569C16.3012 34.3569 16.3012 34.357 16.3013 34.357C16.3013 34.3571 16.3014 34.3571 16.3015 34.3572C16.3016 34.3573 16.3017 34.3574 15.9683 34.73ZM24.5574 38.3426C27.2514 38.3737 29.5687 37.5653 31.2051 36.757C32.0247 36.3522 32.6781 35.945 33.1284 35.6377C33.3537 35.484 33.5286 35.3549 33.6484 35.2632C33.7083 35.2174 33.7545 35.1809 33.7864 35.1552C33.8023 35.1424 33.8147 35.1323 33.8234 35.1251C33.8278 35.1215 33.8312 35.1187 33.8337 35.1166C33.835 35.1155 33.836 35.1147 33.8368 35.114C33.8372 35.1136 33.8376 35.1134 33.8379 35.1131C33.838 35.113 33.8382 35.1128 33.8383 35.1128C33.8384 35.1127 33.8386 35.1125 33.5166 34.73C33.1947 34.3474 33.1948 34.3473 33.1949 34.3472C33.1949 34.3472 33.195 34.3471 33.1951 34.3471C33.1951 34.347 33.1951 34.347 33.1951 34.3471C33.1949 34.3472 33.1946 34.3475 33.194 34.3479C33.1929 34.3489 33.1909 34.3506 33.1879 34.353C33.1821 34.3578 33.1727 34.3655 33.1597 34.3759C33.1338 34.3967 33.094 34.4283 33.0407 34.4691C32.9341 34.5507 32.7739 34.669 32.5647 34.8117C32.1461 35.0974 31.5331 35.4796 30.7622 35.8604C29.2177 36.6234 27.0583 37.3714 24.5689 37.3427L24.5574 38.3426Z" fill="#97B8FF"/>
<path d="M13.129 1H6C3.23858 1 1 3.23857 1 6V12.6757" stroke="#97B8FF" stroke-linecap="round"/>
<path d="M13.129 49H6C3.23858 49 1 46.7614 1 44V37.3243" stroke="#97B8FF" stroke-linecap="round"/>
<path d="M36.6129 1H44C46.7614 1 49 3.23857 49 6V12.4162" stroke="#97B8FF" stroke-linecap="round"/>
<path d="M36.6129 49H44C46.7614 49 49 46.7614 49 44V37.5838" stroke="#97B8FF" stroke-linecap="round"/>
</svg>
