<svg width="24" height="24" viewBox="0 0 24 24" fill="none" xmlns="http://www.w3.org/2000/svg">
    <path fill-rule="evenodd" clip-rule="evenodd"
          d="M11.6896 11.9852C10.8038 12.7303 9.96776 13.4893 9.06126 14.1847C6.98107 15.7806 3.68041 14.9157 3.08475 12.6147C2.6234 10.8323 4.10806 9.28457 6.0236 9.04125C7.22384 8.88883 8.27507 9.15794 9.14556 9.86336C9.98641 10.5448 10.8087 11.2421 11.6388 11.9328C11.6593 11.9498 11.6755 11.9706 11.6896 11.9852Z"
          stroke="#97B8FF" stroke-width="2" stroke-miterlimit="10"/>
    <path fill-rule="evenodd" clip-rule="evenodd"
          d="M12.3101 11.9852C13.1959 12.7303 14.032 13.4893 14.9385 14.1847C17.0187 15.7806 20.3193 14.9157 20.915 12.6147C21.3764 10.8323 19.8917 9.28457 17.9762 9.04125C16.7759 8.88883 15.7247 9.15794 14.8542 9.86336C14.0134 10.5448 13.1911 11.2421 12.361 11.9328C12.3404 11.9498 12.3242 11.9706 12.3101 11.9852Z"
          stroke="#97B8FF" stroke-width="2" stroke-miterlimit="10"/>
</svg>
