<svg width="24" height="24" viewBox="0 0 24 24" fill="none" xmlns="http://www.w3.org/2000/svg">
<circle cx="11.5" cy="12.5" r="8" stroke="#97B8FF"/>
<path d="M12.2441 17H10.8203V10.6602H12.2441V17ZM10.7324 9.01367C10.7324 8.79492 10.8008 8.61328 10.9375 8.46875C11.0781 8.32422 11.2773 8.25195 11.5352 8.25195C11.793 8.25195 11.9922 8.32422 12.1328 8.46875C12.2734 8.61328 12.3438 8.79492 12.3438 9.01367C12.3438 9.22852 12.2734 9.4082 12.1328 9.55273C11.9922 9.69336 11.793 9.76367 11.5352 9.76367C11.2773 9.76367 11.0781 9.69336 10.9375 9.55273C10.8008 9.4082 10.7324 9.22852 10.7324 9.01367Z" fill="#97B8FF"/>
</svg>
