<svg width="48" height="48" viewBox="0 0 48 48" fill="none" xmlns="http://www.w3.org/2000/svg">
    <rect x="19.2043" y="13.1685" width="9.76384" height="17.5576" fill="#FF5F00"/>
    <path d="M19.7934 21.9471C19.7934 18.3798 21.4672 15.2157 24.0399 13.1684C22.1491 11.6794 19.7624 10.7798 17.1587 10.7798C10.9904 10.7798 6 15.7741 6 21.9471C6 28.1202 10.9904 33.1145 17.1587 33.1145C19.7624 33.1145 22.1491 32.2149 24.0399 30.7259C21.4672 28.7096 19.7934 25.5145 19.7934 21.9471Z"
          fill="#EB001B"/>
    <path d="M42.1107 21.9471C42.1107 28.1202 37.1203 33.1145 30.952 33.1145C28.3483 33.1145 25.9616 32.2149 24.0708 30.7259C26.6745 28.6786 28.3173 25.5145 28.3173 21.9471C28.3173 18.3798 26.6435 15.2157 24.0708 13.1684C25.9616 11.6794 28.3483 10.7798 30.952 10.7798C37.1203 10.7798 42.1107 15.8051 42.1107 21.9471Z"
          fill="#F79E1B"/>
    <path fill-rule="evenodd" clip-rule="evenodd"
          d="M40.8774 37.3953V34.7275H40.2265V36.2786C40.0096 35.9994 39.6996 35.8443 39.2966 35.8443C38.4597 35.8443 37.8088 36.4957 37.8088 37.3953C37.8088 38.2949 38.4597 38.9463 39.2966 38.9463C39.7306 38.9463 40.0405 38.7912 40.2265 38.512V38.8843H40.8774V37.3953ZM21.6597 35.9062H22.7135V36.4956H21.6597V37.8295C21.6597 38.1397 21.7837 38.3258 22.0936 38.3258C22.2486 38.3258 22.4656 38.2948 22.6516 38.1707L22.8375 38.7291C22.6206 38.8532 22.3106 38.9462 22.0316 38.9462C21.2877 38.9462 21.0087 38.543 21.0087 37.8605V36.4956H20.4198V35.9062H21.0087V35.0066H21.6597V35.9062ZM13.0737 37.023V38.8843H12.3608V37.2402C12.3608 36.7438 12.1438 36.4647 11.7099 36.4647C11.3069 36.4647 10.997 36.7128 10.997 37.2402V38.8843H10.3461V37.2402C10.3461 36.7438 10.1291 36.4647 9.69514 36.4647C9.26119 36.4647 8.98222 36.7128 8.98222 37.2402V38.8843H8.3313V35.9063H8.98222V36.2785C9.23019 35.9373 9.54016 35.8443 9.85012 35.8443C10.3151 35.8443 10.625 36.0304 10.842 36.3716C11.121 35.9683 11.5239 35.8443 11.8959 35.8443C12.6398 35.8443 13.0737 36.3096 13.0737 37.023ZM28.231 35.8443C27.859 35.8443 27.611 36.0304 27.456 36.2785V35.9063H26.8051V38.8843H27.456V37.2092C27.456 36.7128 27.673 36.4336 28.076 36.4336C28.2 36.4336 28.3549 36.4647 28.4789 36.4957L28.6649 35.8753C28.5409 35.8443 28.3549 35.8443 28.231 35.8443ZM18.6841 35.8443C19.149 35.8443 19.583 35.9373 19.8929 36.1545L19.614 36.6818C19.428 36.5887 19.056 36.4336 18.6841 36.4336C18.3431 36.4336 18.1261 36.5577 18.1261 36.7749C18.1261 36.961 18.3431 37.023 18.6221 37.0541L18.932 37.0851C19.552 37.1781 19.9549 37.4573 19.9549 37.9847C19.9549 38.543 19.459 38.9463 18.5911 38.9463C18.1261 38.9463 17.6612 38.8222 17.3202 38.5741L17.6302 38.0777C17.8472 38.2328 18.1881 38.3879 18.6221 38.3879C19.056 38.3879 19.304 38.2328 19.304 38.0157C19.304 37.8606 19.118 37.7675 18.7771 37.7055L18.4671 37.6745C17.8162 37.5814 17.4442 37.3022 17.4442 36.8059C17.4442 36.2165 17.9402 35.8443 18.6841 35.8443ZM37.1889 35.8443C36.8169 35.8443 36.569 36.0304 36.414 36.2785V35.9063H35.763V38.8843H36.414V37.2092C36.414 36.7128 36.6309 36.4336 37.0339 36.4336C37.1579 36.4336 37.3129 36.4647 37.4368 36.4957L37.6228 35.8753C37.4988 35.8443 37.3129 35.8443 37.1889 35.8443ZM30.4627 38.9463C29.5018 38.9463 28.8819 38.2949 28.8819 37.3953C28.8819 36.4957 29.5018 35.8443 30.4627 35.8443C30.8967 35.8443 31.2066 35.9373 31.5166 36.1855L31.2066 36.7128C30.9586 36.5267 30.7107 36.4336 30.4317 36.4336C29.9048 36.4647 29.5328 36.8369 29.5328 37.3953C29.5328 37.9847 29.9048 38.3569 30.4317 38.3569C30.7107 38.3569 30.9586 38.2639 31.2066 38.0777L31.5166 38.6051C31.2066 38.8532 30.8967 38.9463 30.4627 38.9463ZM34.8952 37.3953V35.9063H34.2442V36.2785C34.0273 35.9994 33.7173 35.8443 33.3144 35.8443C32.4775 35.8443 31.8265 36.4957 31.8265 37.3953C31.8265 38.2949 32.4775 38.9463 33.3144 38.9463C33.7483 38.9463 34.0583 38.7912 34.2442 38.512V38.8843H34.8952V37.3953ZM33.4073 36.4336C32.8493 36.4336 32.5084 36.8679 32.5084 37.3953C32.5084 37.9226 32.8493 38.3259 33.4073 38.3569C33.9342 38.3569 34.3062 37.9226 34.3062 37.3953C34.3062 36.8369 33.9342 36.4336 33.4073 36.4336ZM24.7283 35.8443C23.8604 35.8443 23.2405 36.4647 23.2405 37.3953C23.2405 38.3259 23.8604 38.9463 24.7593 38.9463C25.1933 38.9463 25.6272 38.8222 25.9682 38.543L25.6582 38.0777C25.4102 38.2639 25.1003 38.3879 24.7903 38.3879C24.3874 38.3879 23.9844 38.2018 23.8914 37.6745H26.0922V37.4263C26.1232 36.4647 25.5652 35.8443 24.7283 35.8443ZM25.4723 37.1162C25.4103 36.6509 25.1313 36.4027 24.7284 36.4027C24.2634 36.4027 23.9845 36.7129 23.9225 37.1162H25.4723ZM39.3896 36.4336C38.8317 36.4336 38.4907 36.8679 38.4907 37.3953C38.4907 37.9226 38.8317 38.3259 39.3896 38.3569C39.9166 38.3569 40.2885 37.9226 40.2885 37.3953C40.2885 36.8369 39.9166 36.4336 39.3896 36.4336ZM16.7313 37.3953V35.9063H16.0804V36.2785C15.8634 35.9994 15.5534 35.8443 15.1505 35.8443C14.3136 35.8443 13.6627 36.4957 13.6627 37.3953C13.6627 38.2949 14.3136 38.9463 15.1505 38.9463C15.5844 38.9463 15.8944 38.7912 16.0804 38.512V38.8843H16.7313V37.3953ZM15.2125 36.4336C14.6545 36.4336 14.3136 36.8679 14.3136 37.3953C14.3136 37.9226 14.6545 38.3259 15.2125 38.3569C15.7394 38.3569 16.1114 37.9226 16.1114 37.3953C16.1114 36.8369 15.7394 36.4336 15.2125 36.4336Z"
          fill="#353A48"/>
</svg>
