<svg width="48" height="48" viewBox="0 0 48 48" fill="none" xmlns="http://www.w3.org/2000/svg">
    <defs>
        <linearGradient id="paint0_linear" x1="32.7745" y1="20.4808" x2="45.4545" y2="20.4808"
                        gradientUnits="userSpaceOnUse">
            <stop offset="0.0099" stop-color="#1AA5DE"/>
            <stop offset="0.349" stop-color="#169CD7"/>
            <stop offset="0.9076" stop-color="#0B83C5"/>
            <stop offset="1" stop-color="#097EC2"/>
        </linearGradient>
    </defs>
    <path d="M26.3955 19.2803L23.6793 25.1652H23.4035V18.0005H19.5439V30.1267H22.8194C23.6787 30.1267 24.461 29.6279 24.8221 28.8463L27.5383 22.9614H27.8129V30.1267H31.6725V18.0005H28.3971C27.5377 18.0005 26.7573 18.4998 26.3955 19.2803Z"
          fill="#22A94C"/>
    <path d="M11.9168 19.5929L10.3102 25.1659H10.0356L8.42665 19.5929C8.15562 18.6494 7.29036 18 6.30944 18H2.45459V30.1274H6.31419V22.9603H6.58877L8.79434 30.128H11.5509L13.7564 22.9603H14.0322V30.128H17.8906V18.0006H14.0363C13.0542 18.0006 12.1902 18.6494 11.9168 19.5929Z"
          fill="#22A94C"/>
    <path d="M33.3271 23.5112V30.1279H37.1773V26.2683H41.3203C43.1191 26.2683 44.6456 25.1172 45.2143 23.5112H33.3271Z"
          fill="#22A94C"/>
    <path d="M41.3203 18.0005H32.7744C33.2945 20.8216 35.764 22.9614 38.7364 22.9614H45.3721C45.4266 22.6939 45.4545 22.417 45.4545 22.1335C45.4545 19.8496 43.6036 18.0005 41.3203 18.0005Z"
          fill="url(#paint0_linear)"/>
</svg>
