<svg width="24" height="24" viewBox="0 0 24 24" fill="none" xmlns="http://www.w3.org/2000/svg">
    <path fill-rule="evenodd" clip-rule="evenodd" d="M4 5C4 3.89543 4.89543 3 6 3H18C19.1046 3 20 3.89543 20 5V18V20.5C20 21.3284 19.3284 22 18.5 22C17.6716 22 17 21.3284 17 20.5V18H7V20.5C7 21.3284 6.32843 22 5.5 22C4.67157 22 4 21.3284 4 20.5V18V5ZM11 5C10.4477 5 10 5.44772 10 6C10 6.55228 10.4477 7 11 7H13C13.5523 7 14 6.55228 14 6C14 5.44772 13.5523 5 13 5H11ZM6.5 16C7.05228 16 7.5 15.5523 7.5 15C7.5 14.4477 7.05228 14 6.5 14C5.94772 14 5.5 14.4477 5.5 15C5.5 15.5523 5.94772 16 6.5 16ZM18.5 15C18.5 15.5523 18.0523 16 17.5 16C16.9477 16 16.5 15.5523 16.5 15C16.5 14.4477 16.9477 14 17.5 14C18.0523 14 18.5 14.4477 18.5 15ZM10 13.9643C9.44772 13.9643 9 14.412 9 14.9643C9 15.5166 9.44771 15.9643 10 15.9643L14 15.9643C14.5523 15.9643 15 15.5166 15 14.9643C15 14.4121 14.5523 13.9643 14 13.9643L10 13.9643ZM3 7.04673C3 6.46864 2.55228 6 2 6C1.44772 6 1 6.46864 1 7.04673V8.95327C1 9.53136 1.44772 10 2 10C2.55228 10 3 9.53136 3 8.95327V7.04673ZM22 6C22.5523 6 23 6.46864 23 7.04673V8.95327C23 9.53136 22.5523 10 22 10C21.4477 10 21 9.53136 21 8.95327V7.04673C21 6.46864 21.4477 6 22 6Z" fill="#4C85FF"/>
</svg>
