<svg width="48" height="48" viewBox="0 0 48 48" fill="none" xmlns="http://www.w3.org/2000/svg">
<g clip-path="url(#clip0)">
<rect x="14" y="13" width="21" height="22" rx="3" stroke="#97B8FF" stroke-width="2"/>
<path d="M14 41L13.2929 40.2929C13.0069 40.5789 12.9213 41.009 13.0761 41.3827C13.2309 41.7564 13.5955 42 14 42V41ZM34.9763 41V42C35.38 42 35.7442 41.7572 35.8994 41.3845C36.0547 41.0118 35.9706 40.5823 35.6862 40.2957L34.9763 41ZM32 38L32.7099 37.2957C32.5221 37.1065 32.2666 37 32 37V38ZM17 38V37C16.7348 37 16.4804 37.1054 16.2929 37.2929L17 38ZM22.9762 10L22.3551 10.7837C22.5318 10.9238 22.7507 11 22.9762 11V10ZM25.5 10V11C25.7255 11 25.9444 10.9238 26.1211 10.7837L25.5 10ZM29.2857 7L29.9068 7.78375C30.2403 7.51945 30.37 7.07305 30.2301 6.67117C30.0902 6.2693 29.7113 6 29.2857 6V7ZM19.1905 7V6C18.7649 6 18.386 6.2693 18.2461 6.67117C18.1062 7.07305 18.2359 7.51945 18.5694 7.78375L19.1905 7ZM14 42H34.9763V40H14V42ZM35.6862 40.2957L32.7099 37.2957L31.2901 38.7043L34.2664 41.7043L35.6862 40.2957ZM32 37H17V39H32V37ZM16.2929 37.2929L13.2929 40.2929L14.7071 41.7071L17.7071 38.7071L16.2929 37.2929ZM22.9762 11H25.5V9H22.9762V11ZM26.1211 10.7837L29.9068 7.78375L28.6646 6.21625L24.8789 9.21625L26.1211 10.7837ZM29.2857 6H19.1905V8H29.2857V6ZM18.5694 7.78375L22.3551 10.7837L23.5973 9.21625L19.8116 6.21625L18.5694 7.78375Z" fill="#97B8FF"/>
<path d="M22 16H27" stroke="#97B8FF" stroke-width="2" stroke-linecap="round"/>
<path d="M11 18V22" stroke="#97B8FF" stroke-width="2" stroke-linecap="round"/>
<path d="M38 18V22" stroke="#97B8FF" stroke-width="2" stroke-linecap="round"/>
<path d="M19.5693 26C20.3181 24.1502 22.1317 23.4762 24.25 23.4762C26.3684 23.4762 28.182 24.1502 28.9308 26" stroke="#97B8FF" stroke-width="2" stroke-linecap="round" stroke-linejoin="round"/>
<path d="M13.5239 26H19.8334M28.6668 26H34.9763" stroke="#97B8FF" stroke-width="2"/>
<circle cx="17.5" cy="30.5" r="1.5" fill="#97B8FF"/>
<circle cx="31.5" cy="30.5" r="1.5" fill="#97B8FF"/>
<path d="M22 31H24.1548H27" stroke="#97B8FF" stroke-width="2" stroke-linecap="round"/>
</g>
<defs>
<clipPath id="clip0">
<rect width="40" height="40" fill="white" transform="translate(4 4)"/>
</clipPath>
</defs>
</svg>
