<svg width="48" height="48" viewBox="0 0 48 48" fill="none" xmlns="http://www.w3.org/2000/svg">
    <path fill-rule="evenodd" clip-rule="evenodd"
          d="M14.2504 31.2231H10.7021L8.04135 20.8004C7.91506 20.3209 7.6469 19.8971 7.25246 19.6973C6.26807 19.1953 5.18334 18.7957 4 18.5942V18.193H9.71602C10.5049 18.193 11.0966 18.7957 11.1952 19.4958L12.5758 27.014L16.1223 18.193H19.572L14.2504 31.2231ZM21.5442 31.2231H18.1931L20.9525 18.193H24.3036L21.5442 31.2231ZM28.6391 21.8028C28.7377 21.101 29.3294 20.6998 30.0197 20.6998C31.1044 20.599 32.286 20.8005 33.2721 21.3008L33.8638 18.4954C32.8777 18.0941 31.7929 17.8926 30.8085 17.8926C27.5561 17.8926 25.1894 19.6974 25.1894 22.2024C25.1894 24.108 26.8658 25.1086 28.0492 25.7113C29.3294 26.3124 29.8224 26.7137 29.7238 27.3147C29.7238 28.2163 28.7377 28.6175 27.7533 28.6175C26.57 28.6175 25.3866 28.317 24.3036 27.815L23.712 30.6222C24.8953 31.1225 26.1755 31.324 27.3589 31.324C31.0058 31.423 33.2721 29.6199 33.2721 26.9134C33.2721 23.5052 28.6391 23.3054 28.6391 21.8028ZM45 31.2231L42.3392 18.193H39.4812C38.8896 18.193 38.2979 18.5942 38.1007 19.1953L33.1735 31.2231H36.6232L37.3118 29.3192H41.5503L41.9448 31.2231H45ZM39.9743 21.7019L40.9587 26.6128H38.1993L39.9743 21.7019Z"
          fill="#224DBA"/>
</svg>
