<svg width="24" height="24" viewBox="0 0 24 24" fill="none" xmlns="http://www.w3.org/2000/svg">
<path d="M20 21V18.5C20 15.1863 17.3137 12.5 14 12.5H12H10C6.68629 12.5 4 15.1863 4 18.5V21" stroke="#4C85FF"/>
<path d="M13.3536 16.1464C13.1583 15.9512 12.8417 15.9512 12.6464 16.1464C12.4512 16.3417 12.4512 16.6583 12.6464 16.8536L13.3536 16.1464ZM12.6464 20.1464C12.4512 20.3417 12.4512 20.6583 12.6464 20.8536C12.8417 21.0488 13.1583 21.0488 13.3536 20.8536L12.6464 20.1464ZM12.6464 16.8536L13.9393 18.1464L14.6464 17.4393L13.3536 16.1464L12.6464 16.8536ZM13.9393 18.8536L12.6464 20.1464L13.3536 20.8536L14.6464 19.5607L13.9393 18.8536ZM13.9393 18.1464C14.1346 18.3417 14.1346 18.6583 13.9393 18.8536L14.6464 19.5607C15.2322 18.9749 15.2322 18.0251 14.6464 17.4393L13.9393 18.1464Z" fill="#4C85FF"/>
<path d="M9 18.5H14.5" stroke="#4C85FF"/>
<path d="M15.5 7C15.5 8.93323 13.9332 10.5 12 10.5C10.0672 10.5 8.5 8.93319 8.5 7C8.5 5.06729 10.0673 3.5 12 3.5C13.9332 3.5 15.5 5.06725 15.5 7Z" stroke="#4C85FF" stroke-width="0.999999"/>
</svg>
