<svg width="24" height="24" viewBox="0 0 24 24" fill="none" xmlns="http://www.w3.org/2000/svg">
<path d="M19.5 3.5L8.5 3.5C6.84315 3.5 5.5 4.84315 5.5 6.5L5.5 12L5.5 17.5C5.5 19.1569 6.84315 20.5 8.5 20.5L19.5 20.5" stroke="#4C85FF" stroke-linecap="round"/>
<path d="M17.3536 9.64645C17.1583 9.45118 16.8417 9.45118 16.6464 9.64645C16.4512 9.84171 16.4512 10.1583 16.6464 10.3536L17.3536 9.64645ZM16.6464 13.6464C16.4512 13.8417 16.4512 14.1583 16.6464 14.3536C16.8417 14.5488 17.1583 14.5488 17.3536 14.3536L16.6464 13.6464ZM16.6464 10.3536L17.9393 11.6464L18.6464 10.9393L17.3536 9.64645L16.6464 10.3536ZM17.9393 12.3536L16.6464 13.6464L17.3536 14.3536L18.6464 13.0607L17.9393 12.3536ZM17.9393 11.6464C18.1346 11.8417 18.1346 12.1583 17.9393 12.3536L18.6464 13.0607C19.2322 12.4749 19.2322 11.5251 18.6464 10.9393L17.9393 11.6464Z" fill="#4C85FF"/>
<path d="M13 12H18.5" stroke="#4C85FF"/>
</svg>
