<svg width="24" height="24" viewBox="0 0 24 24" fill="none" xmlns="http://www.w3.org/2000/svg">
    <path d="M5.5 3.5L16.5 3.5C18.1569 3.5 19.5 4.84315 19.5 6.5V12L19.5 17.5C19.5 19.1569 18.1569 20.5 16.5 20.5L5.5 20.5"
          stroke="#4C85FF" stroke-linecap="round"/>
    <path d="M10.3536 9.64645C10.1583 9.45118 9.84171 9.45118 9.64645 9.64645C9.45118 9.84171 9.45118 10.1583 9.64645 10.3536L10.3536 9.64645ZM9.64645 13.6464C9.45118 13.8417 9.45118 14.1583 9.64645 14.3536C9.84171 14.5488 10.1583 14.5488 10.3536 14.3536L9.64645 13.6464ZM9.64645 10.3536L10.9393 11.6464L11.6464 10.9393L10.3536 9.64645L9.64645 10.3536ZM10.9393 12.3536L9.64645 13.6464L10.3536 14.3536L11.6464 13.0607L10.9393 12.3536ZM10.9393 11.6464C11.1346 11.8417 11.1346 12.1583 10.9393 12.3536L11.6464 13.0607C12.2322 12.4749 12.2322 11.5251 11.6464 10.9393L10.9393 11.6464Z"
          fill="#4C85FF"/>
    <path d="M6 12H11.5" stroke="#4C85FF"/>
</svg>
