<svg width="24" height="24" viewBox="0 0 24 24" fill="none" xmlns="http://www.w3.org/2000/svg">
    <path d="M2.5 4.5C2.5 3.94772 2.94772 3.5 3.5 3.5H20.5C21.0523 3.5 21.5 3.94772 21.5 4.5C21.5 5.05228 21.0523 5.5 20.5 5.5H3.5C2.94772 5.5 2.5 5.05228 2.5 4.5Z"
          stroke="#4C85FF"/>
    <path d="M7.55279 20.2236L6.80902 20.5955C6.36221 20.8189 5.8189 20.6378 5.59549 20.191C5.53269 20.0654 5.5 19.9269 5.5 19.7865V6V5.5H18.5V19.7865C18.5 19.9269 18.4673 20.0654 18.4045 20.191C18.1811 20.6378 17.6378 20.8189 17.191 20.5955L16.4472 20.2236C16.1657 20.0828 15.8343 20.0828 15.5528 20.2236L14.4472 20.7764C14.1657 20.9172 13.8343 20.9172 13.5528 20.7764L12.4472 20.2236C12.1657 20.0828 11.8343 20.0828 11.5528 20.2236L10.4472 20.7764C10.1657 20.9172 9.83431 20.9172 9.55279 20.7764L8.44721 20.2236C8.16569 20.0828 7.83431 20.0828 7.55279 20.2236Z"
          stroke="#4C85FF"/>
    <path d="M8.5 8.5H15.5" stroke="#4C85FF" stroke-linecap="round"/>
    <path d="M8.5 11.5H10.5M8.5 13.5H9.5M8.5 15.5H12.5M11.5 13.5H12.5M14.5 13.5H15.5" stroke="#4C85FF"
          stroke-linecap="round" stroke-linejoin="bevel"/>
    <path d="M4 5.5H20" stroke="#4C85FF"/>
</svg>
