<svg width="48" height="48" viewBox="0 0 48 48" fill="none" xmlns="http://www.w3.org/2000/svg">
<path d="M9.10448 34.4366C8.01405 32.4374 9.46099 30 11.7382 30H36.2618C38.539 30 39.986 32.4374 38.8955 34.4366L37.2592 37.4366C36.7335 38.4003 35.7233 39 34.6255 39H13.3745C12.2767 39 11.2665 38.4003 10.7408 37.4366L9.10448 34.4366Z" stroke="#97B8FF" stroke-width="2"/>
<path d="M14 25C14 23.3431 15.3431 22 17 22H31C32.6569 22 34 23.3431 34 25V30H14V25Z" stroke="#97B8FF" stroke-width="2"/>
<path d="M19 21C19 19.3431 20.3431 18 22 18H26C27.6569 18 29 19.3431 29 21V22H19V21Z" stroke="#97B8FF" stroke-width="2"/>
<rect x="23" y="9" width="2" height="9" fill="#97B8FF"/>
<path d="M24 8H30C30.5523 8 31 8.44772 31 9V10.5V12C31 12.5523 30.5523 13 30 13H24V8Z" stroke="#97B8FF" stroke-width="2"/>
<path d="M18 27C18 26.4477 18.4477 26 19 26H21C21.5523 26 22 26.4477 22 27V30H18V27Z" stroke="#97B8FF" stroke-width="2"/>
<path d="M26 27C26 26.4477 26.4477 26 27 26H29C29.5523 26 30 26.4477 30 27V30H26V27Z" stroke="#97B8FF" stroke-width="2"/>
<rect x="30" y="33" width="5" height="2" rx="1" fill="#97B8FF"/>
</svg>
