<svg width="24" height="24" viewBox="0 0 24 24" fill="none" xmlns="http://www.w3.org/2000/svg">
    <rect x="10" y="7" width="2" height="10" fill="#4C85FF"/>
    <rect x="6" y="7" width="1" height="10" fill="#4C85FF"/>
    <rect x="13" y="7" width="1" height="10" fill="#4C85FF"/>
    <rect x="17" y="7" width="1" height="10" fill="#4C85FF"/>
    <rect x="8" y="7" width="1" height="10" fill="#4C85FF"/>
    <rect x="15" y="7" width="1" height="10" fill="#4C85FF"/>
    <path d="M2.5 6V4.5C2.5 3.39543 3.39543 2.5 4.5 2.5H6" stroke="#4C85FF"/>
    <path d="M2.5 18V19.5C2.5 20.6046 3.39543 21.5 4.5 21.5H6" stroke="#4C85FF"/>
    <path d="M21.5 6.5V4.5C21.5 3.39543 20.6046 2.5 19.5 2.5H18" stroke="#4C85FF"/>
    <path d="M21.5 18V19.5C21.5 20.6046 20.6046 21.5 19.5 21.5H18" stroke="#4C85FF"/>
</svg>
