<svg width="59" height="48" viewBox="0 0 59 48" fill="none" xmlns="http://www.w3.org/2000/svg">
    <defs>
        <linearGradient id="paint0_linear_8469_71654" x1="29.8052" y1="42.9337" x2="33.1267"
            y2="29.7324" gradientUnits="userSpaceOnUse">
            <stop stop-color="white" stop-opacity="0" />
            <stop offset="1" stop-color="white" />
        </linearGradient>
        <linearGradient id="paint1_linear_8469_71654" x1="-2.38356" y1="27.6395" x2="11.1528"
            y2="33.3126" gradientUnits="userSpaceOnUse">
            <stop offset="4e-07" stop-color="#C7FFAB" />
            <stop offset="1" stop-color="#83CFD3" />
        </linearGradient>
        <linearGradient id="paint2_linear_8469_71654" x1="10.2329" y1="22.0883" x2="7.31896"
            y2="51.92" gradientUnits="userSpaceOnUse">
            <stop offset="4e-07" stop-color="#C7FFAB" />
            <stop offset="1" stop-color="#83CFD3" />
        </linearGradient>
        <linearGradient id="paint3_linear_8469_71654" x1="35.1803" y1="16.3525" x2="35.0533" y2="41"
            gradientUnits="userSpaceOnUse">
            <stop stop-color="white" />
            <stop offset="1" stop-color="white" stop-opacity="0" />
        </linearGradient>
        <clipPath id="clip0_8469_71654">
            <rect width="58.5205" height="48" fill="white" />
        </clipPath>
    </defs>
    <g clip-path="url(#clip0_8469_71654)">
        <path
            d="M58.6375 23.9996C58.6375 27.5433 57.8566 30.9077 56.4535 33.9358C55.6564 35.6638 54.6519 37.2842 53.4765 38.7638C53.298 38.9918 53.1109 39.2163 52.9194 39.4359C52.4598 39.9795 51.9677 40.4999 51.4593 41.0039C50.8981 41.5523 50.3084 42.0759 49.6943 42.5719C49.2388 42.9399 48.7711 43.2923 48.2871 43.6243C48.2749 43.6323 48.2586 43.6439 48.2464 43.6523H48.242C48.1565 43.7115 48.0711 43.7719 47.9857 43.8279C47.8271 43.9359 47.6726 44.0395 47.5099 44.1395C46.8145 44.5839 46.095 44.9959 45.3544 45.3676C45.3178 45.388 45.2853 45.4036 45.2527 45.42C44.7362 45.6756 44.2116 45.916 43.6748 46.1356C42.5442 46.6036 41.3688 46.992 40.1609 47.284C39.9088 47.348 39.6566 47.4036 39.4045 47.456L38.705 47.596C37.4157 47.832 36.0858 47.968 34.7311 47.992C34.5644 48 34.4017 48 34.235 48C33.9381 48 33.6412 47.996 33.3484 47.9844C33.1816 47.9796 33.0108 47.972 32.8441 47.96C30.2005 47.8164 27.6668 47.256 25.3161 46.3484C24.035 45.8524 22.8068 45.2524 21.6437 44.5599C21.2284 44.3163 20.8218 44.0599 20.4236 43.7843C20.326 43.7243 20.2288 43.6563 20.1308 43.5883C19.7648 43.3319 19.4024 43.0639 19.049 42.7883C18.6748 42.4963 18.3047 42.1883 17.9468 41.8719C17.288 41.2883 16.6572 40.6719 16.0679 40.0203C16.0105 39.9603 15.9581 39.9039 15.9052 39.8439C15.6937 39.6079 15.4904 39.3683 15.287 39.1243V39.1203C14.3882 38.0358 13.587 36.8718 12.8953 35.6438C11.7728 33.6602 10.9313 31.5077 10.4185 29.2321C10.39 29.1201 10.366 29.0077 10.3416 28.8961C10.3091 28.7477 10.2806 28.5961 10.2517 28.4437C10.0935 27.6281 9.98332 26.792 9.91459 25.9476C9.86172 25.304 9.83325 24.656 9.83325 24C9.83325 22.1116 10.0569 20.2679 10.4758 18.5079C11.1225 15.7923 12.2368 13.2518 13.7335 10.9798C18.077 4.37167 25.6374 0 34.235 0C43.9102 0 52.2678 5.53609 56.2128 13.5642C57.7668 16.7195 58.6375 20.2595 58.6375 23.9996Z"
            fill="#D3E1FF" />
        <path
            d="M56.4534 33.9358C55.6563 35.6638 54.6518 37.2842 53.4764 38.7638C53.2979 38.9918 53.1108 39.2162 52.9192 39.4358C52.4597 39.9795 51.9676 40.4999 51.4592 41.0039C50.898 41.5523 50.3083 42.0759 49.6941 42.5719C49.2387 42.9399 48.771 43.2923 48.287 43.6243C48.2748 43.6323 48.2585 43.6439 48.2463 43.6523H48.2418C48.1564 43.7115 48.071 43.7719 47.9856 43.8279C47.827 43.9359 47.6725 44.0395 47.5098 44.1395C46.8143 44.5839 46.0949 44.9959 45.3543 45.3675C45.3177 45.3879 45.2852 45.4035 45.2526 45.4199C44.7361 45.6755 44.2115 45.9159 43.6747 46.1356C42.544 46.6036 41.3687 46.992 40.1608 47.284C39.9087 47.348 39.6565 47.4036 39.4044 47.456L38.7048 47.596C37.4156 47.832 36.0857 47.968 34.731 47.992C34.5643 48 34.4016 48 34.2348 48C33.938 48 33.6411 47.996 33.3483 47.9844C33.1815 47.9796 33.0107 47.972 32.844 47.96C30.2004 47.8164 27.6667 47.256 25.316 46.3484C24.0349 45.8524 22.8067 45.2523 21.6436 44.5599C21.2283 44.3163 20.8216 44.0599 20.4235 43.7843C20.3259 43.7243 20.2287 43.6563 20.1307 43.5883C19.7646 43.3319 19.4023 43.0639 19.0488 42.7883C18.6747 42.4963 18.3046 42.1883 17.9467 41.8719C17.2264 41.2359 16.5436 40.5603 15.9047 39.8439C13.1717 36.7846 11.2159 33.0357 10.3411 28.8961C10.1377 27.9321 9.9954 26.9476 9.91406 25.9476C12.7772 24.6396 16.7384 26.092 17.7429 31.5001C21.8302 28.0401 32.7988 27.5721 33.1974 36.4246C37.4717 32.4121 47.9726 36.2042 48.6884 39.5042C50.109 36.3842 53.3178 34.2242 56.4534 33.9358Z"
            fill="url(#paint0_linear_8469_71654)" />
        <path
            d="M16.203 38.8922C16.1863 39.3602 16.142 39.7322 16.0688 40.0202C16.0114 39.9602 15.959 39.9038 15.9061 39.8438C15.6946 39.6078 15.4913 39.3682 15.2879 39.1242V39.1202C14.3891 38.0358 13.5879 36.8717 12.8961 35.6437C11.9246 34.3037 10.3136 33.4641 8.54898 32.7877C7.87793 32.5281 7.18248 32.2961 6.49517 32.0677C4.00213 31.2396 1.57416 30.4876 0.504547 28.9472C-1.5086 26.0316 2.85118 24.6675 7.41837 26.7236C7.9792 26.9712 8.54085 27.2752 9.09761 27.6316C9.24036 27.7196 9.38271 27.8156 9.52505 27.9156C9.77679 28.0916 10.0172 28.2676 10.2526 28.4432C14.0105 31.2676 15.7638 34.1557 16.1338 37.2433C16.1989 37.7882 16.2193 38.3358 16.203 38.8922Z"
            fill="url(#paint1_linear_8469_71654)" />
        <path opacity="0.15"
            d="M16.2029 38.8923C16.1862 39.3603 16.1419 39.7323 16.0687 40.0204C16.0114 39.9604 15.9589 39.9039 15.906 39.8439C15.6945 39.6079 15.4912 39.3683 15.2878 39.1243V39.1203C14.3891 38.0359 13.5879 36.8719 12.8961 35.6439C11.9245 34.3039 10.3136 33.4642 8.54891 32.7878C9.92354 31.0962 9.58191 28.3757 7.4187 26.7241C7.97953 26.9717 8.54118 27.2757 9.09795 27.6321C9.2407 27.7201 9.38304 27.8161 9.52538 27.9161C9.77713 28.0921 10.0175 28.2681 10.253 28.4438C14.0108 31.2682 15.7641 34.1563 16.1342 37.2439C16.1988 37.7883 16.2192 38.3359 16.2029 38.8923Z"
            fill="black" />
        <path opacity="0.15" d="M3.12207 28.0381C3.12207 28.0381 11.1177 29.0593 12.9865 33.1954"
            stroke="black" stroke-miterlimit="10" />
        <path
            d="M16.882 33.62C16.8088 34.888 16.5521 36.092 16.1336 37.2436C15.9018 37.8844 15.6167 38.5077 15.2877 39.1201C14.3889 38.0357 13.5877 36.8716 12.8959 35.6436C13.0672 33.3476 11.961 31.2319 10.4192 29.2319C10.0043 28.6919 9.56145 28.1559 9.09741 27.6319C7.15341 25.4158 4.94546 23.3158 3.73716 21.2358C3.28573 20.4678 2.97258 19.6997 2.86277 18.9317C2.28933 15.0237 6.6369 15.1597 10.4761 18.5073C11.7247 19.5917 12.9163 21.0114 13.8679 22.7434C15.247 25.2518 16.1296 27.5355 16.5643 29.6395C16.7473 30.4919 16.8531 31.3115 16.8897 32.1075C16.9186 32.6196 16.9186 33.124 16.882 33.62Z"
            fill="url(#paint2_linear_8469_71654)" />
        <path opacity="0.15" d="M7.01611 18.8462C9.92358 21.7562 16.9891 28.1431 14.1577 37.6393"
            stroke="black" stroke-miterlimit="10" />
        <path opacity="0.25"
            d="M16.5644 29.6394C16.6092 30.2074 16.6498 30.7598 16.6905 31.2919C15.1654 25.4754 11.05 19.4157 8.05228 17.8512C5.07161 16.2916 2.89986 18.2632 3.73765 21.2353C3.28622 20.4673 2.97307 19.6993 2.86326 18.9312C2.28982 15.0232 6.63739 15.1592 10.4766 18.5068C11.7251 19.5913 12.9168 21.0109 13.8684 22.7429C15.2471 25.2514 16.1297 27.5354 16.5644 29.6394Z"
            fill="white" />
    </g>
    <path fill-rule="evenodd" clip-rule="evenodd"
        d="M46.1066 21.0533C46.1066 22.9368 45.6355 24.7103 44.8046 26.2623H44.8359L44.6457 26.549C44.4072 26.9643 44.1426 27.3626 43.854 27.7417L35.0542 41L26.2522 27.7413C25.9643 27.363 25.7003 26.9657 25.4623 26.5514L25.2704 26.2623H25.3019C24.4711 24.7103 24 22.9368 24 21.0533C24 14.9487 28.9487 10 35.0533 10C41.1578 10 46.1066 14.9487 46.1066 21.0533ZM35.0532 25.5001C37.6494 25.5001 39.754 23.3954 39.754 20.7992C39.754 18.203 37.6494 16.0984 35.0532 16.0984C32.457 16.0984 30.3524 18.203 30.3524 20.7992C30.3524 23.3954 32.457 25.5001 35.0532 25.5001Z"
        fill="#F87777" />
    <path fill-rule="evenodd" clip-rule="evenodd"
        d="M46.1066 21.0533C46.1066 22.9368 45.6355 24.7103 44.8046 26.2623H44.8359L44.6457 26.549C44.4072 26.9643 44.1426 27.3626 43.854 27.7417L35.0542 41L26.2522 27.7413C25.9643 27.363 25.7003 26.9657 25.4623 26.5514L25.2704 26.2623H25.3019C24.4711 24.7103 24 22.9368 24 21.0533C24 14.9487 28.9487 10 35.0533 10C41.1578 10 46.1066 14.9487 46.1066 21.0533ZM35.0532 25.5001C37.6494 25.5001 39.754 23.3954 39.754 20.7992C39.754 18.203 37.6494 16.0984 35.0532 16.0984C32.457 16.0984 30.3524 18.203 30.3524 20.7992C30.3524 23.3954 32.457 25.5001 35.0532 25.5001Z"
        fill="url(#paint3_linear_8469_71654)" fill-opacity="0.5" />
    <circle cx="35" cy="21" r="5" fill="white" />
</svg>
