<svg width="58" height="20" viewBox="0 0 58 20" fill="none" xmlns="http://www.w3.org/2000/svg">
    <path fill-rule="evenodd" clip-rule="evenodd" d="M24.6051 1.31152L20.8901 18.4149H25.3806L29.0947 1.31152H24.6051Z" stroke="white" stroke-opacity="0.4"/>
    <path fill-rule="evenodd" clip-rule="evenodd" d="M17.9598 1.31152L13.2811 12.9519L11.3897 3.05613C11.1702 1.9499 10.2932 1.31152 9.31976 1.31152H1.67724L1.57129 1.80829C3.1412 2.14453 4.92261 2.68454 6.00158 3.26303C6.66222 3.61673 6.85239 3.92448 7.06895 4.76726L10.6505 18.4149H15.401L22.678 1.31152H17.9598Z" stroke="white" stroke-opacity="0.4"/>
    <mask id="mask0" mask-type="alpha" maskUnits="userSpaceOnUse" x="40" y="0" width="18" height="19">
        <path fill-rule="evenodd" clip-rule="evenodd" d="M57.1566 18.4149V1.31152L41.0469 1.31152V18.4149H57.1566Z" fill="white" stroke="white"/>
    </mask>
    <g mask="url(#mask0)">
        <path d="M47.992 12.3545L47.5228 12.1817L47.275 12.8545H47.992V12.3545ZM50.3568 5.93359L50.8459 5.83007L50.4869 4.13351L49.8876 5.76079L50.3568 5.93359ZM51.7156 12.3545V12.8545H52.3325L52.2048 12.251L51.7156 12.3545ZM53.5296 1.31152L54.0187 1.20779L53.9347 0.811523H53.5296V1.31152ZM47.7845 2.56685L48.2447 2.76248L48.2447 2.76237L47.7845 2.56685ZM41.0469 18.4149L40.5867 18.2193L40.291 18.9149H41.0469V18.4149ZM45.763 18.4149V18.9149H46.1123L46.2325 18.5869L45.763 18.4149ZM46.6986 15.8602V15.3602H46.3493L46.2291 15.6882L46.6986 15.8602ZM52.4588 15.8602L52.9478 15.7558L52.8634 15.3602H52.4588V15.8602ZM53.004 18.4149L52.515 18.5193L52.5995 18.9149H53.004V18.4149ZM57.1568 18.4149V18.9149H57.7739L57.6459 18.3112L57.1568 18.4149ZM48.4612 12.5273L50.826 6.10639L49.8876 5.76079L47.5228 12.1817L48.4612 12.5273ZM49.8676 6.03711L51.2264 12.4581L52.2048 12.251L50.8459 5.83007L49.8676 6.03711ZM51.7156 11.8545H47.992V12.8545H51.7156V11.8545ZM53.5296 0.811523H49.6966V1.81152H53.5296V0.811523ZM49.6966 0.811523C48.633 0.811523 47.7258 1.4264 47.3244 2.37133L48.2447 2.76237C48.49 2.18518 49.0358 1.81152 49.6966 1.81152V0.811523ZM47.3244 2.37122L40.5867 18.2193L41.507 18.6105L48.2447 2.76248L47.3244 2.37122ZM41.0469 18.9149H45.763V17.9149H41.0469V18.9149ZM46.2325 18.5869L47.1681 16.0321L46.2291 15.6882L45.2934 18.2429L46.2325 18.5869ZM46.6986 16.3602H52.4588V15.3602H46.6986V16.3602ZM51.9698 15.9645L52.515 18.5193L53.493 18.3106L52.9478 15.7558L51.9698 15.9645ZM53.004 18.9149H57.1568V17.9149H53.004V18.9149ZM57.6459 18.3112L54.0187 1.20779L53.0405 1.41525L56.6676 18.5186L57.6459 18.3112Z" fill="white" opacity="0.4"/>
    </g>
    <path d="M34.9876 6.05125C35.0006 5.43741 35.5952 4.78636 36.8918 4.61855C37.5358 4.53496 39.3108 4.47154 41.3215 5.38335L42.109 1.75752C41.0306 1.37117 39.638 1 37.91 1C33.4708 1 30.3447 3.32475 30.3181 6.65344C30.2896 9.11481 32.5489 10.4905 34.2516 11.3067C36.0013 12.1466 36.5885 12.682 36.5824 13.4341C36.5684 14.5803 35.1858 15.0874 33.8928 15.1074C31.6352 15.1411 30.3245 14.5054 29.2807 14.0274L28.4673 17.774C29.5165 18.2487 31.4541 18.6625 33.4622 18.6829C38.1802 18.6829 41.2672 16.3862 41.2799 12.8313C41.2995 8.31653 34.9458 8.06784 34.9876 6.05125" stroke="white" stroke-opacity="0.4"/>
</svg>
