<svg width="48" height="48" viewBox="0 0 48 48" fill="none" xmlns="http://www.w3.org/2000/svg">
<mask id="path-1-inside-1" fill="white">
<path fill-rule="evenodd" clip-rule="evenodd" d="M13 13C10.2386 13 8 15.2386 8 18V30C8 32.7614 10.2386 35 13 35H35C37.7614 35 40 32.7614 40 30V27.1359C38.3246 27.0275 37 25.6649 37 23.9999C37 22.3349 38.3246 20.9723 40 20.864V18C40 15.2386 37.7614 13 35 13H13Z"/>
</mask>
<path d="M40 27.1359H42V25.261L40.129 25.14L40 27.1359ZM40 20.864L40.129 22.8598L42 22.7389V20.864H40ZM10 18C10 16.3431 11.3431 15 13 15V11C9.13401 11 6 14.134 6 18H10ZM10 30V18H6V30H10ZM13 33C11.3431 33 10 31.6569 10 30H6C6 33.866 9.13401 37 13 37V33ZM35 33H13V37H35V33ZM38 30C38 31.6569 36.6569 33 35 33V37C38.866 37 42 33.866 42 30H38ZM38 27.1359V30H42V27.1359H38ZM40.129 25.14C39.4598 25.0968 39 24.5648 39 23.9999H35C35 26.7651 37.1895 28.9583 39.871 29.1317L40.129 25.14ZM39 23.9999C39 23.435 39.4598 22.9031 40.129 22.8598L39.871 18.8682C37.1895 19.0415 35 21.2348 35 23.9999H39ZM38 18V20.864H42V18H38ZM35 15C36.6569 15 38 16.3431 38 18H42C42 14.134 38.866 11 35 11V15ZM13 15H35V11H13V15Z" fill="#97B8FF" mask="url(#path-1-inside-1)"/>
<path d="M32 22V33" stroke="#97B8FF" stroke-width="2" stroke-linecap="round"/>
<path d="M32 15V17" stroke="#97B8FF" stroke-width="2" stroke-linecap="round"/>
<path d="M16 22H25" stroke="#97B8FF" stroke-width="2" stroke-linecap="round"/>
<path d="M16 26H17" stroke="#97B8FF" stroke-width="2" stroke-linecap="round"/>
</svg>
