<svg width="80" height="120" viewBox="0 0 80 120" fill="none" xmlns="http://www.w3.org/2000/svg">
    <rect width="80" height="120" rx="16" fill="#4C85FF"/>
    <rect x="15" y="16" width="48" height="33" rx="8" fill="#97B8FF"/>
    <rect x="15" y="64" width="48" height="16" rx="4" fill="#97B8FF"/>
    <rect x="15" y="88" width="48" height="16" rx="4" fill="#97B8FF"/>
    <path d="M33.9688 40H52.1658C52.9575 40 53.4352 39.1237 53.0063 38.4583L44.4765 25.2241C44.0963 24.6342 43.2425 24.6093 42.8284 25.176L33.1613 38.4101C32.6787 39.0709 33.1506 40 33.9688 40Z" fill="#EEF3FF"/>
    <path opacity="0.5" d="M25.8833 40H36.239C37.0151 40 37.4954 39.1542 37.0978 38.4877L32.2435 30.351C31.8683 29.7221 30.9665 29.6966 30.5563 30.3033L25.0549 38.4399C24.6058 39.104 25.0816 40 25.8833 40Z" fill="#EEF3FF"/>
    <circle cx="36" cy="26" r="2" fill="#EEF3FF"/>
</svg>
