<svg width="180" height="180" viewBox="0 0 180 180" fill="none" xmlns="http://www.w3.org/2000/svg">
    <defs>
        <filter id="filter0_d" x="35" y="63" width="113" height="74" filterUnits="userSpaceOnUse"
                color-interpolation-filters="sRGB">
            <feFlood flood-opacity="0" result="BackgroundImageFix"/>
            <feColorMatrix in="SourceAlpha" type="matrix" values="0 0 0 0 0 0 0 0 0 0 0 0 0 0 0 0 0 0 127 0"/>
            <feOffset dx="2" dy="2"/>
            <feGaussianBlur stdDeviation="2"/>
            <feColorMatrix type="matrix" values="0 0 0 0 0.298039 0 0 0 0 0.521569 0 0 0 0 1 0 0 0 0.18 0"/>
            <feBlend mode="normal" in2="BackgroundImageFix" result="effect1_dropShadow"/>
            <feBlend mode="normal" in="SourceGraphic" in2="effect1_dropShadow" result="shape"/>
        </filter>
        <linearGradient id="paint0_linear" x1="100.025" y1="183.82" x2="91.3437" y2="33.6888"
                        gradientUnits="userSpaceOnUse">
            <stop stop-color="white" stop-opacity="0"/>
            <stop offset="1" stop-color="white"/>
        </linearGradient>
        <linearGradient id="paint1_linear" x1="93.8284" y1="122.158" x2="107.999" y2="190.327"
                        gradientUnits="userSpaceOnUse">
            <stop offset="4e-07" stop-color="#C7FFAB"/>
            <stop offset="1" stop-color="#83CFD3"/>
        </linearGradient>
        <linearGradient id="paint2_linear" x1="90.0149" y1="95.7948" x2="104.314" y2="202.776"
                        gradientUnits="userSpaceOnUse">
            <stop offset="4e-07" stop-color="#C7FFAB"/>
            <stop offset="1" stop-color="#83CFD3"/>
        </linearGradient>
        <linearGradient id="paint3_linear" x1="87.0573" y1="39.5841" x2="94.697" y2="178.617"
                        gradientUnits="userSpaceOnUse">
            <stop offset="4e-07" stop-color="#C7FFAB"/>
            <stop offset="1" stop-color="#83CFD3"/>
        </linearGradient>
        <linearGradient id="paint4_linear" x1="113.932" y1="201.24" x2="92.9943" y2="147.111"
                        gradientUnits="userSpaceOnUse">
            <stop offset="4e-07" stop-color="#5399A5"/>
            <stop offset="1" stop-color="#83CFD3"/>
        </linearGradient>
        <linearGradient id="paint5_linear" x1="141.537" y1="137.67" x2="167.483" y2="163.232"
                        gradientUnits="userSpaceOnUse">
            <stop offset="4e-07" stop-color="#C7FFAB"/>
            <stop offset="1" stop-color="#83CFD3"/>
        </linearGradient>
        <linearGradient id="paint6_linear" x1="41.2146" y1="149.34" x2="46.1932" y2="170.213"
                        gradientUnits="userSpaceOnUse">
            <stop offset="4e-07" stop-color="#C7FFAB"/>
            <stop offset="1" stop-color="#83CFD3"/>
        </linearGradient>
        <linearGradient id="paint7_linear" x1="41.7002" y1="153.306" x2="66.7093" y2="177.946"
                        gradientUnits="userSpaceOnUse">
            <stop offset="4e-07" stop-color="#C7FFAB"/>
            <stop offset="1" stop-color="#83CFD3"/>
        </linearGradient>
        <linearGradient id="paint8_linear" x1="79.4408" y1="163.998" x2="97.3923" y2="181.684"
                        gradientUnits="userSpaceOnUse">
            <stop offset="4e-07" stop-color="#C7FFAB"/>
            <stop offset="1" stop-color="#83CFD3"/>
        </linearGradient>
        <linearGradient id="paint9_linear" x1="79.4017" y1="163.79" x2="77.295" y2="178.727"
                        gradientUnits="userSpaceOnUse">
            <stop offset="4e-07" stop-color="#C7FFAB"/>
            <stop offset="1" stop-color="#83CFD3"/>
        </linearGradient>
        <linearGradient id="paint10_linear" x1="83.692" y1="50.4694" x2="96.3133" y2="50.4694"
                        gradientUnits="userSpaceOnUse">
            <stop offset="8.1e-07" stop-color="#FF5467"/>
            <stop offset="1" stop-color="#FF6A83"/>
        </linearGradient>
        <linearGradient id="paint11_linear" x1="45" y1="92.5" x2="134" y2="91.5" gradientUnits="userSpaceOnUse">
            <stop stop-color="#FFC8C8"/>
            <stop offset="1" stop-color="#F87777" stop-opacity="0.2"/>
        </linearGradient>
    </defs>
    <path d="M180 89.9955C180 96.714 179.265 103.255 177.87 109.555C177.63 110.665 177.36 111.762 177.06 112.854C176.85 113.709 176.61 114.565 176.355 115.405C176.07 116.367 175.769 117.324 175.454 118.285C175.439 118.359 175.41 118.449 175.379 118.525C175.139 119.275 174.869 120.01 174.599 120.745C174.404 121.299 174.192 121.852 173.984 122.409C173.832 122.784 173.684 123.174 173.534 123.549C173.354 124 173.174 124.434 172.979 124.87C172.647 125.679 172.304 126.473 171.944 127.256C170.774 129.834 169.484 132.352 168.059 134.799C168.059 134.814 168.044 134.814 168.044 134.829C165.929 138.505 163.574 142.045 160.963 145.359C160.724 145.675 160.484 145.974 160.229 146.29C159.794 146.829 159.359 147.354 158.909 147.882C157.213 149.92 155.398 151.872 153.523 153.762C151.453 155.815 149.28 157.782 147.013 159.642C145.333 161.022 143.609 162.34 141.824 163.585C141.78 163.617 141.719 163.662 141.674 163.69H141.659C141.342 163.915 141.029 164.142 140.712 164.349C140.414 164.56 140.127 164.755 139.827 164.949C139.544 165.145 139.257 165.339 138.957 165.52C136.424 167.17 133.812 168.684 131.114 170.064C131.083 170.094 131.039 170.107 131.009 170.125C130.874 170.199 130.754 170.26 130.634 170.319C128.729 171.281 126.794 172.179 124.814 173.005C122.789 173.86 120.719 174.64 118.62 175.347C116.4 176.097 114.15 176.742 111.855 177.31C110.925 177.55 109.995 177.762 109.065 177.955L106.485 178.483C104.625 178.827 102.75 179.113 100.844 179.353C97.8889 179.697 94.8755 179.907 91.8292 179.968C91.5892 179.983 91.3642 179.983 91.1242 179.983C90.7492 179.998 90.3742 179.998 89.9993 179.998C88.9058 179.998 87.8093 179.983 86.7294 179.937C86.1144 179.922 85.4844 179.893 84.8695 179.848C84.3145 179.817 83.7595 179.772 83.2045 179.728H83.1895C82.9196 179.713 82.6646 179.697 82.3796 179.667C82.0361 179.652 81.7046 179.608 81.3596 179.575C81.0296 179.545 80.6996 179.517 80.3546 179.473C80.2031 179.473 80.0697 179.455 79.9197 179.427C79.8432 179.427 79.7682 179.412 79.6947 179.397C79.0647 179.338 78.4197 179.262 77.7898 179.172C77.1433 179.08 76.5133 178.993 75.8833 178.888C75.8683 178.888 75.8683 178.888 75.8533 178.888C75.2669 178.797 74.6834 178.692 74.0819 178.59C73.8719 178.559 73.6634 178.513 73.4519 178.47C72.642 178.317 71.832 178.168 71.0385 177.99C70.887 177.958 70.7386 177.928 70.5871 177.898C70.0021 177.778 69.4321 177.643 68.8486 177.493C68.6971 177.463 68.5486 177.417 68.3971 177.388C67.9322 177.268 67.4837 177.163 67.0337 177.043C66.5387 176.908 66.0588 176.788 65.5773 176.653C65.5338 176.638 65.4738 176.624 65.4273 176.61C65.2023 176.533 64.9773 176.475 64.7523 176.413C64.4088 176.308 64.0623 176.202 63.7324 176.1C62.8309 175.827 61.9474 175.543 61.0624 175.245C60.7475 175.14 60.4325 175.033 60.1175 174.913C59.7575 174.793 59.3975 174.673 59.0525 174.538C58.3926 174.298 57.7476 174.059 57.1026 173.803C55.0162 172.977 52.9778 172.092 50.9829 171.12C49.9479 170.625 48.928 170.112 47.908 169.558C47.668 169.438 47.428 169.318 47.188 169.183C47.068 169.107 46.933 169.048 46.813 168.972C46.2881 168.688 45.7631 168.388 45.2381 168.087C44.8931 167.893 44.5631 167.697 44.2167 167.487C43.9932 167.37 43.7832 167.232 43.5582 167.097C42.0282 166.183 40.5283 165.222 39.0584 164.188C38.6984 163.963 38.3384 163.708 37.9784 163.453C36.6285 162.495 35.2935 161.487 33.9886 160.453C32.6086 159.358 31.2437 158.203 29.9237 157.02C29.5788 156.703 29.2338 156.39 28.9038 156.073C27.4339 154.723 26.0224 153.328 24.659 151.89C24.0875 151.29 23.534 150.688 22.994 150.073C22.7841 149.848 22.5875 149.64 22.3941 149.415C21.6141 148.53 20.8641 147.632 20.1142 146.714V146.698C19.0042 145.348 17.9392 143.953 16.9343 142.53C16.5593 142.005 16.1843 141.478 15.8243 140.953C15.5694 140.593 15.3294 140.233 15.0894 139.875C14.7459 139.347 14.3994 138.823 14.0694 138.298C13.7544 137.818 13.4694 137.337 13.1694 136.857C12.8695 136.38 12.5695 135.885 12.2845 135.388C11.9395 134.817 11.6245 134.249 11.2945 133.663C10.2446 131.788 9.2681 129.87 8.35464 127.903C5.66975 122.112 3.56986 115.995 2.15991 109.62C2.05492 109.198 1.96342 108.778 1.87492 108.357C1.75493 107.803 1.64993 107.232 1.54493 106.663C0.958458 103.602 0.554972 100.467 0.299983 97.3035C0.268484 96.852 0.224998 96.4035 0.194999 95.9535C0.0750042 93.987 0 92.01 0 90C0 82.9185 0.824968 76.005 2.3699 69.405C3.94484 62.6985 6.25475 56.28 9.23962 50.235C10.7846 47.115 12.4945 44.0835 14.3844 41.175C30.4052 16.395 58.2891 0 89.9963 0C114.205 0 136.179 9.555 152.349 25.11C160.012 32.475 166.373 41.19 171.053 50.865C171.668 52.1415 172.253 53.415 172.793 54.72C177.435 65.5455 180 77.4705 180 89.9955Z"
          fill="#D3E1FF"/>
    <path d="M176.355 115.406C176.07 116.367 175.769 117.324 175.454 118.286C175.439 118.359 175.41 118.449 175.379 118.526C175.139 119.276 174.869 120.011 174.599 120.746C174.404 121.299 174.193 121.853 173.984 122.409C173.833 122.784 173.684 123.174 173.534 123.549C173.354 124.001 173.174 124.434 172.979 124.871C172.648 125.679 172.304 126.473 171.944 127.256C170.774 129.834 169.484 132.353 168.059 134.799C168.059 134.814 168.044 134.814 168.044 134.829C165.929 138.506 163.574 142.046 160.963 145.359C160.725 145.676 160.485 145.974 160.23 146.291C159.795 146.829 159.36 147.354 158.91 147.882C157.213 149.921 155.398 151.872 153.523 153.762C151.453 155.816 149.28 157.782 147.014 159.642C145.334 161.022 143.609 162.341 141.824 163.586C141.78 163.617 141.719 163.662 141.674 163.691H141.659C141.342 163.916 141.029 164.142 140.712 164.349C140.414 164.561 140.127 164.756 139.827 164.949C139.544 165.146 139.257 165.339 138.957 165.521C136.424 167.171 133.813 168.684 131.114 170.064C131.083 170.094 131.039 170.108 131.009 170.126C130.874 170.199 130.754 170.261 130.634 170.319C128.729 171.281 126.795 172.179 124.815 173.006C122.79 173.861 120.72 174.641 118.62 175.347C116.4 176.097 114.15 176.742 111.855 177.311C110.925 177.551 109.995 177.762 109.065 177.956L106.485 178.484C104.625 178.827 102.75 179.114 100.844 179.354C97.8892 179.697 94.8758 179.907 91.8295 179.969C91.5895 179.984 91.3645 179.984 91.1245 179.984C90.7495 179.999 90.3745 179.999 89.9995 179.999C88.9061 179.999 87.8096 179.984 86.7297 179.937C86.1147 179.922 85.4847 179.894 84.8698 179.849C84.3148 179.817 83.7598 179.772 83.2048 179.729H83.1898C82.9198 179.714 82.6648 179.697 82.3799 179.667C82.0364 179.652 81.7049 179.609 81.3599 179.576C81.0299 179.546 80.6999 179.517 80.3549 179.474C80.2034 179.474 80.0699 179.456 79.92 179.427C79.8435 179.427 79.7685 179.412 79.695 179.397C79.065 179.339 78.42 179.262 77.79 179.172C77.1436 179.081 76.5136 178.994 75.8836 178.889C75.8686 178.889 75.8686 178.889 75.8536 178.889C75.2672 178.797 74.6837 178.692 74.0822 178.59C73.8722 178.559 73.6637 178.514 73.4522 178.47C72.6423 178.317 71.8323 178.169 71.0388 177.99C70.8873 177.959 70.7388 177.929 70.5873 177.899C70.0024 177.779 69.4324 177.644 68.8489 177.494C68.6974 177.464 68.5489 177.417 68.3974 177.389C67.9324 177.269 67.484 177.164 67.034 177.044C66.539 176.909 66.059 176.789 65.5776 176.654L65.5625 176.639L53.0231 166.019L50.9982 164.294L48.3283 162.029L47.0833 160.977L39.2686 154.347H39.2536L23.1893 140.727L17.0546 135.524L16.9346 135.419C23.5928 130.857 29.5341 126.689 34.9188 123.044C57.0729 108.059 70.0324 101.967 86.8167 113.894C88.9166 115.379 91.1965 116.639 93.6264 117.659C96.2363 118.799 99.0277 119.684 101.921 120.342C103.721 120.779 105.566 121.107 107.441 121.362H107.456C108.251 121.5 109.032 121.587 109.841 121.664C117.19 122.487 124.977 122.279 132.445 121.587C133.96 121.437 135.476 121.274 136.96 121.092C139.704 120.749 142.389 120.357 144.971 119.937C152.5 118.707 159.175 117.236 164.11 116.157C166.18 115.706 168.385 115.451 170.65 115.346C172.531 115.272 174.436 115.301 176.355 115.406Z"
          fill="url(#paint0_linear)"/>
    <path d="M177.87 109.555C177.63 110.665 177.36 111.762 177.06 112.854C176.85 113.709 176.61 114.565 176.355 115.405C176.07 116.367 175.769 117.324 175.454 118.285C175.439 118.359 175.41 118.449 175.379 118.525C175.139 119.275 174.869 120.01 174.599 120.745C174.404 121.299 174.192 121.852 173.984 122.409C173.832 122.784 173.684 123.174 173.534 123.549C173.354 124 173.174 124.434 172.979 124.87C172.647 125.679 172.304 126.472 171.944 127.255C170.774 129.834 169.484 132.352 168.059 134.799C168.059 134.814 168.044 134.814 168.044 134.829C165.929 138.505 163.574 142.045 160.963 145.359C160.724 145.675 160.484 145.974 160.229 146.29C159.794 146.829 159.359 147.354 158.909 147.882C157.213 149.92 155.398 151.872 153.523 153.762C151.453 155.815 149.28 157.782 147.013 159.642C145.333 161.022 143.608 162.34 141.823 163.585C141.78 163.617 141.718 163.662 141.673 163.69H141.658C141.342 163.915 141.028 164.142 140.712 164.349C140.413 164.56 140.127 164.755 139.827 164.949C139.544 165.145 139.257 165.339 138.957 165.52C136.424 167.17 133.812 168.684 131.114 170.064C131.082 170.094 131.039 170.107 131.009 170.125C130.874 170.199 130.754 170.26 130.634 170.319C128.729 171.28 126.794 172.179 124.814 173.005C122.789 173.86 120.719 174.64 118.619 175.347C116.4 176.097 114.15 176.742 111.855 177.31C110.925 177.55 109.995 177.762 109.065 177.955L106.485 178.483C104.625 178.827 102.75 179.113 100.844 179.353C97.8888 179.697 94.8754 179.907 91.829 179.968C91.589 179.983 91.364 179.983 91.1241 179.983C90.7491 179.998 90.3741 179.998 89.9991 179.998C88.9056 179.998 87.8092 179.983 86.7292 179.937C86.1143 179.922 85.4843 179.893 84.8693 179.848C84.3143 179.817 83.7594 179.787 83.1894 179.743C82.9194 179.728 82.6494 179.697 82.3794 179.667C82.0359 179.652 81.7045 179.608 81.3595 179.575C81.0295 179.545 80.6845 179.517 80.3545 179.487C80.203 179.472 80.0695 179.455 79.9195 179.425C79.843 179.425 79.768 179.41 79.6945 179.41C79.0496 179.337 78.4196 179.26 77.7896 179.17C77.1431 179.079 76.5132 178.992 75.8832 178.887C75.8682 178.887 75.8682 178.887 75.8532 178.887C75.2667 178.795 74.6832 178.69 74.0818 178.588C73.8718 178.557 73.6633 178.512 73.4518 178.468C72.6418 178.315 71.8318 178.167 71.0384 177.988C70.8869 177.957 70.7384 177.927 70.5869 177.897C70.0019 177.777 69.432 177.642 68.8485 177.492C68.697 177.462 68.5485 177.415 68.397 177.387C67.932 177.267 67.4835 177.162 67.0336 177.042C66.5386 176.907 66.0586 176.787 65.5771 176.652L65.5621 176.637C65.5171 176.622 65.4721 176.622 65.4271 176.607C65.2021 176.53 64.9771 176.472 64.7522 176.41C64.4087 176.305 64.0622 176.199 63.7322 176.097C62.8307 175.824 61.9473 175.54 61.0623 175.242C60.7473 175.137 60.4323 175.03 60.1174 174.91C59.7574 174.79 59.3974 174.67 59.0524 174.535C58.3924 174.295 57.7474 174.055 57.1025 173.8C55.016 172.974 52.9777 172.089 50.9827 171.117C49.9478 170.622 48.9278 170.109 47.9079 169.555C47.6679 169.435 47.4279 169.315 47.1879 169.18C47.0679 169.104 46.9329 169.045 46.8129 168.969C46.2879 168.685 45.763 168.385 45.238 168.084C44.893 167.89 44.563 167.694 44.2165 167.484C43.993 167.367 43.783 167.229 43.558 167.094C42.0281 166.18 40.5282 165.219 39.0582 164.185C38.6982 163.96 38.3382 163.705 37.9783 163.45C36.6283 162.492 35.2934 161.484 33.9884 160.45C32.6085 159.355 31.2435 158.2 29.9236 157.017C29.5786 156.7 29.2336 156.387 28.9037 156.07C27.4337 154.72 26.0223 153.325 24.6588 151.887C24.0874 151.287 23.5339 150.685 22.9939 150.07C22.7839 149.845 22.5874 149.637 22.3939 149.412C21.6139 148.527 20.864 147.628 20.114 146.71V146.695C19.0041 145.345 17.9391 143.95 16.9341 142.527C16.5592 142.002 16.1842 141.475 15.8242 140.95C15.5692 140.59 15.3292 140.23 15.0892 139.872C14.7457 139.344 14.3993 138.82 14.0693 138.295C13.7543 137.815 13.4693 137.334 13.1693 136.854C12.8693 136.377 12.5693 135.882 12.2843 135.385C11.9394 134.814 11.6244 134.245 11.2944 133.66C10.2444 131.785 9.26795 129.867 8.35449 127.9C17.9526 123.444 26.2173 121.689 34.9184 123.04C43.603 124.39 52.7062 128.859 64.0157 136.854C73.9018 143.859 83.4849 147.507 92.4545 148.242H92.471C94.6294 148.42 96.7458 148.435 98.8457 148.272C98.8607 148.287 98.8607 148.272 98.8607 148.272C99.4592 148.242 100.061 148.18 100.661 148.105C110.44 146.937 119.318 142.137 126.878 134.412C127.178 134.11 127.478 133.797 127.763 133.48C127.988 133.258 128.213 133.017 128.423 132.777C129.308 131.815 130.163 130.797 130.988 129.762C131.393 129.267 131.798 128.757 132.188 128.23C133.853 126.012 135.458 123.642 136.958 121.09C137.424 120.31 137.873 119.502 138.323 118.69C150.39 96.6854 163.756 97.3439 177.87 109.555Z"
          fill="url(#paint1_linear)"/>
    <path d="M175.38 118.525C175.14 119.275 174.87 120.01 174.6 120.745C174.405 121.299 174.194 121.852 173.985 122.409C173.834 122.784 173.685 123.174 173.535 123.549C173.355 124 173.175 124.434 172.98 124.87C172.649 125.679 172.305 126.472 171.945 127.255C170.775 129.834 169.485 132.352 168.06 134.799C168.06 134.814 168.045 134.814 168.045 134.829C165.931 138.505 163.576 142.045 160.964 145.359C160.726 145.675 160.486 145.974 160.231 146.29C159.796 146.829 159.361 147.354 158.911 147.882C157.214 149.92 155.399 151.872 153.525 153.762C151.455 155.815 149.281 157.782 147.015 159.642C145.335 161.022 143.61 162.34 141.825 163.585C141.782 163.617 141.72 163.662 141.675 163.69H141.66C141.344 163.915 141.03 164.142 140.714 164.349C140.415 164.56 140.129 164.755 139.829 164.949C139.545 165.145 139.259 165.339 138.959 165.52C136.425 167.17 133.814 168.684 131.115 170.064C131.084 170.094 131.04 170.107 131.01 170.125C130.876 170.199 130.756 170.26 130.636 170.319C128.731 171.28 126.796 172.179 124.816 173.005C122.791 173.86 120.721 174.64 118.621 175.347C116.401 176.097 114.151 176.742 111.856 177.31C110.926 177.55 109.996 177.762 109.066 177.955L106.487 178.483C104.627 178.827 102.752 179.113 100.845 179.353C97.8904 179.697 94.877 179.907 91.8306 179.968C91.5906 179.983 91.3656 179.983 91.1256 179.983C90.7507 179.998 90.3757 179.998 90.0007 179.998C88.9072 179.998 87.8108 179.983 86.7308 179.937C86.1159 179.922 85.4859 179.893 84.8709 179.848C84.3159 179.817 83.761 179.787 83.191 179.743C82.921 179.728 82.651 179.697 82.381 179.667C82.0375 179.652 81.706 179.608 81.3611 179.575C81.0311 179.545 80.6861 179.517 80.3561 179.487C80.2046 179.472 80.0711 179.455 79.9211 179.425C79.8446 179.425 79.7696 179.41 79.6961 179.41C79.0512 179.337 78.4212 179.26 77.7912 179.17C77.1447 179.079 76.5148 178.992 75.8848 178.887C75.8698 178.887 75.8698 178.887 75.8548 178.887C75.2683 178.795 74.6848 178.69 74.0834 178.588C73.8734 178.557 73.6649 178.512 73.4534 178.468C72.6434 178.315 71.8335 178.167 71.04 177.988C70.8885 177.957 70.74 177.927 70.5885 177.897C70.0035 177.777 69.4336 177.642 68.8501 177.492C68.6986 177.462 68.5501 177.415 68.3986 177.387C67.9336 177.267 67.4851 177.162 67.0352 177.042C66.5402 176.907 66.0602 176.787 65.5787 176.652L65.5637 176.637C65.5187 176.622 65.4737 176.622 65.4287 176.607C65.2037 176.53 64.9788 176.472 64.7538 176.41C64.4103 176.305 64.0638 176.199 63.7338 176.097C62.8323 175.824 61.9489 175.54 61.0639 175.242C60.7489 175.137 60.4339 175.03 60.1189 174.91C59.759 174.79 59.399 174.67 59.054 174.535C58.394 174.295 57.7491 174.055 57.1041 173.8C55.0177 172.974 52.9792 172.089 50.9843 171.117C49.9494 170.622 48.9294 170.109 47.9095 169.555C47.6695 169.435 47.4295 169.315 47.1895 169.18C47.0695 169.104 46.9345 169.045 46.8145 168.969C46.2895 168.685 45.7645 168.385 45.2396 168.084C44.8946 167.89 44.5646 167.694 44.2181 167.484C43.9946 167.367 43.7846 167.229 43.5596 167.094C42.0297 166.18 40.5298 165.219 39.0598 164.185C38.6998 163.96 38.3399 163.705 37.9799 163.45C36.6299 162.492 35.295 161.484 33.99 160.45C32.6101 159.355 31.2452 158.2 29.9252 157.017C29.5802 156.7 29.2352 156.387 28.9053 156.07C27.4353 154.72 26.0239 153.325 24.6604 151.887C24.0889 151.287 23.5355 150.685 22.9955 150.07C22.7855 149.845 22.589 149.637 22.3955 149.412C21.6156 148.527 20.8656 147.628 20.1156 146.71V146.695C19.0057 145.345 17.9407 143.95 16.9358 142.527C16.5608 142.002 16.1858 141.475 15.8258 140.95C15.5708 140.59 15.3308 140.23 15.0908 139.872C14.7474 139.344 14.4009 138.82 14.0709 138.295C13.7559 137.815 13.4709 137.334 13.1709 136.854C14.4908 136.344 15.7808 135.895 17.0558 135.52C32.1151 130.929 44.9546 134.349 64.0188 147.849C68.2486 150.849 72.4199 153.219 76.4983 155.02C78.6732 155.979 80.8031 156.775 82.918 157.405H82.933C87.7928 158.875 92.5176 159.505 97.0774 159.372C98.6688 159.325 100.242 159.175 101.802 158.935C106.617 158.215 111.207 156.609 115.527 154.224C115.542 154.224 115.542 154.224 115.542 154.209C116.08 153.91 116.607 153.594 117.132 153.265C119.666 151.719 122.111 149.875 124.436 147.775C126.611 145.795 128.696 143.589 130.676 141.16C133.181 138.069 135.519 134.635 137.651 130.872C137.889 130.479 138.101 130.09 138.324 129.685C138.639 129.099 138.971 128.545 139.286 127.992C141.144 124.78 143.05 122.109 144.97 119.935C153.084 110.724 161.68 110.215 170.649 115.344C172.214 116.229 173.79 117.295 175.38 118.525Z"
          fill="url(#paint2_linear)"/>
    <path d="M168.06 134.8C168.06 134.815 168.045 134.815 168.045 134.83C165.93 138.507 163.575 142.047 160.964 145.36C160.726 145.677 160.486 145.975 160.231 146.292C159.796 146.83 159.361 147.355 158.911 147.883C157.214 149.922 155.399 151.873 153.524 153.763C151.454 155.817 149.281 157.783 147.015 159.643C145.335 161.023 143.61 162.342 141.825 163.587C141.781 163.618 141.72 163.663 141.675 163.692H141.66C141.343 163.917 141.03 164.143 140.713 164.35C140.415 164.562 140.128 164.757 139.828 164.95C139.545 165.147 139.258 165.34 138.958 165.522C136.425 167.172 133.814 168.685 131.115 170.065C131.084 170.095 131.04 170.109 131.01 170.127C130.875 170.2 130.755 170.262 130.635 170.32C128.73 171.282 126.795 172.18 124.816 173.007C122.791 173.862 120.721 174.642 118.621 175.348C116.401 176.098 114.151 176.743 111.856 177.312C110.926 177.552 109.996 177.763 109.066 177.957L106.486 178.485C104.626 178.828 102.751 179.115 100.845 179.355C97.8902 179.698 94.8768 179.908 91.8304 179.97C91.5904 179.985 91.3654 179.985 91.1254 179.985C90.7505 180 90.3755 180 90.0005 180C88.907 180 87.8106 179.985 86.7306 179.938C86.1157 179.923 85.4857 179.895 84.8707 179.85C84.3157 179.818 83.7608 179.788 83.1908 179.745C82.9208 179.73 82.6508 179.698 82.3808 179.668C82.0373 179.653 81.7058 179.61 81.3609 179.577C81.0309 179.547 80.6859 179.518 80.3559 179.488C80.1309 179.457 79.9209 179.442 79.6959 179.412C79.0509 179.338 78.421 179.262 77.791 179.172C77.1445 179.08 76.5146 178.993 75.8846 178.888C75.8696 178.888 75.8696 178.888 75.8546 178.888C75.0446 178.753 74.2496 178.618 73.4532 178.47C72.6432 178.317 71.8333 178.168 71.0398 177.99C70.3048 177.84 69.5698 177.673 68.8499 177.495C68.6984 177.465 68.5499 177.418 68.3984 177.39C67.9334 177.27 67.4849 177.165 67.035 177.045C66.54 176.91 66.06 176.79 65.5785 176.655L65.5635 176.64C65.5185 176.625 65.4735 176.625 65.4285 176.61C65.2035 176.533 64.9785 176.475 64.7536 176.413C64.4101 176.308 64.0636 176.202 63.7336 176.1C62.8321 175.827 61.9487 175.543 61.0637 175.245C60.7487 175.14 60.4337 175.033 60.1187 174.913C59.7588 174.793 59.3988 174.673 59.0538 174.538C58.3938 174.298 57.7488 174.058 57.1039 173.803C55.0175 172.977 52.979 172.092 50.9841 171.12C49.9492 170.625 48.9292 170.112 47.9092 169.558C47.6693 169.438 47.4293 169.318 47.1893 169.183C47.0693 169.107 46.9343 169.048 46.8143 168.972C46.2893 168.688 45.7643 168.388 45.2394 168.087C44.8944 167.893 44.5644 167.697 44.2179 167.487C43.9944 167.37 43.7844 167.232 43.5594 167.097C42.0295 166.183 40.5296 165.222 39.0596 164.188C38.6996 163.963 38.3397 163.708 37.9797 163.453C36.6297 162.495 35.2948 161.487 33.9898 160.453C32.6099 159.358 31.245 158.203 29.925 157.02C29.58 156.703 29.235 156.39 28.905 156.073C27.4351 154.723 26.0237 153.328 24.6602 151.89C24.0887 151.29 23.5353 150.688 22.9953 150.073C22.7853 149.848 22.5888 149.64 22.3953 149.415C21.6154 148.53 20.8654 147.631 20.1154 146.713V146.698C19.0055 145.348 17.9405 143.953 16.9355 142.53C19.1105 141.675 21.1954 141.073 23.1903 140.728C27.1951 139.996 30.8999 140.19 34.5448 141.073C42.4495 142.978 50.1142 148.048 59.9388 153.78C60.2987 153.988 60.6437 154.17 61.0037 154.348C61.9937 154.843 63.0136 155.218 64.0636 155.488C64.2286 155.55 64.3786 155.593 64.5586 155.626C67.4084 156.3 70.4383 156.256 73.6032 155.685C73.9182 155.626 74.2482 155.565 74.5631 155.488C74.8781 155.43 75.2081 155.353 75.5231 155.28C75.8546 155.188 76.1696 155.113 76.4981 155.025C77.128 154.858 77.758 154.665 78.388 154.468C78.613 154.41 78.823 154.333 79.0345 154.26C79.4529 154.107 79.8879 153.973 80.3229 153.808C80.9679 153.568 81.6128 153.328 82.2728 153.058C82.8878 152.818 83.5028 152.563 84.1327 152.278C84.2527 152.232 84.3727 152.173 84.4927 152.128C85.0477 151.888 85.6027 151.633 86.1576 151.378C87.5376 150.73 88.946 150.042 90.3725 149.322C91.0624 148.977 91.7524 148.618 92.4574 148.243H92.4739C93.6288 147.628 94.7988 146.998 95.9838 146.35C96.7022 145.96 97.4387 145.57 98.1737 145.167C98.7721 144.835 99.3586 144.508 99.9571 144.177C100.799 143.71 101.654 143.23 102.522 142.768C104.608 141.612 106.723 140.457 108.853 139.332C109.348 139.062 109.842 138.793 110.353 138.538C110.563 138.418 110.772 138.313 110.983 138.207C111.522 137.923 112.063 137.653 112.603 137.383C114.223 136.542 115.858 135.748 117.493 134.98C118.063 134.71 118.633 134.455 119.203 134.2C119.354 134.127 119.518 134.05 119.683 133.975C119.683 133.975 119.683 133.975 119.698 133.975C120.224 133.735 120.748 133.512 121.273 133.287C121.859 133.032 122.443 132.792 123.044 132.552C123.268 132.46 123.479 132.373 123.689 132.297C124.334 132.042 124.979 131.787 125.639 131.547C125.819 131.47 125.999 131.412 126.179 131.35C126.854 131.095 127.544 130.855 128.234 130.632C129.147 130.315 130.064 130.032 130.994 129.762C131.384 129.657 131.789 129.537 132.179 129.43C133.949 128.964 135.734 128.56 137.504 128.262C138.103 128.157 138.688 128.065 139.288 127.992C139.798 127.915 140.308 127.854 140.803 127.81C141.313 127.767 141.823 127.719 142.318 127.675C142.828 127.645 143.338 127.617 143.85 127.599C144.343 127.584 144.838 127.569 145.333 127.569C150.388 127.569 155.443 128.469 160.484 130.615C163.019 131.68 165.54 133.06 168.06 134.8Z"
          fill="url(#paint3_linear)"/>
    <path opacity="0.15"
          d="M160.486 130.617C159.96 131.066 158.986 131.171 157.47 130.796C146.747 128.186 133.532 130.541 117.511 137.367C101.492 144.206 89.2375 158.05 75.3031 159.267C61.3537 160.48 56.7489 155.622 46.6693 148.451C41.343 144.671 37.7597 142.301 34.5498 141.071C42.4545 142.976 50.1192 148.046 59.9438 153.777C83.8093 167.68 122.716 114.594 160.486 130.617Z"
          fill="white"/>
    <path d="M160.231 146.291C159.796 146.829 159.361 147.354 158.911 147.882C157.214 149.921 155.4 151.872 153.525 153.762C151.455 155.816 149.281 157.782 147.015 159.642C145.335 161.022 143.61 162.341 141.825 163.586C141.782 163.617 141.72 163.662 141.675 163.691H141.66C141.344 163.916 141.03 164.142 140.714 164.349C140.415 164.561 140.129 164.756 139.829 164.949C139.545 165.146 139.259 165.339 138.959 165.521C136.425 167.171 133.814 168.684 131.116 170.064C131.084 170.094 131.041 170.108 131.011 170.126C130.876 170.199 130.756 170.261 130.636 170.319C128.731 171.281 126.796 172.179 124.816 173.006C122.791 173.861 120.721 174.641 118.621 175.347C116.401 176.097 114.151 176.742 111.856 177.311C110.926 177.55 109.996 177.762 109.066 177.955L106.487 178.484C104.627 178.827 102.752 179.113 100.845 179.353C97.8904 179.697 94.877 179.907 91.8307 179.969C91.5907 179.984 91.3657 179.984 91.1257 179.984C90.7507 179.999 90.3757 179.998 90.0007 179.998C88.9073 179.998 87.8108 179.983 86.7309 179.937C86.1159 179.922 85.4859 179.894 84.8709 179.848C84.316 179.817 83.761 179.787 83.191 179.743C82.921 179.729 82.6511 179.697 82.3811 179.667C82.0376 179.652 81.7061 179.609 81.3611 179.576C81.0311 179.546 80.6861 179.517 80.3561 179.487C80.1311 179.456 79.9212 179.441 79.6962 179.41C79.0512 179.337 78.4212 179.261 77.7912 179.171C77.1448 179.079 76.5148 178.992 75.8848 178.887C75.8698 178.887 75.8698 178.887 75.8548 178.887C75.0448 178.752 74.2499 178.617 73.4534 178.469C72.6435 178.316 71.8335 178.167 71.04 177.989C70.3051 177.839 69.5701 177.672 68.8501 177.494C68.6986 177.464 68.5501 177.417 68.3986 177.389C67.9337 177.269 67.4852 177.163 67.0352 177.043C66.5402 176.908 66.0602 176.789 65.5787 176.654L65.5638 176.639C65.5188 176.624 65.4738 176.624 65.4288 176.609C65.2038 176.532 64.9788 176.474 64.7538 176.412C64.4103 176.307 64.0638 176.201 63.7338 176.099C62.8324 175.826 61.9489 175.542 61.0639 175.244C60.749 175.139 60.434 175.032 60.119 174.912C59.759 174.792 59.399 174.672 59.054 174.537C58.3941 174.297 57.7491 174.057 57.1041 173.802C55.0177 172.976 52.9793 172.091 50.9844 171.119C49.9494 170.624 48.9294 170.111 47.9095 169.557C47.6695 169.437 47.4295 169.317 47.1895 169.182C47.0695 169.106 46.9345 169.047 46.8145 168.971C46.2896 168.687 45.7646 168.387 45.2396 168.086C44.8946 167.892 44.5646 167.696 44.2181 167.486C43.9946 167.369 43.7847 167.231 43.5597 167.096C42.0297 166.182 40.5298 165.221 39.0599 164.187C38.6999 163.962 38.3399 163.707 37.9799 163.452C36.63 162.494 35.295 161.486 33.9901 160.452C32.6101 159.357 31.2452 158.202 29.9252 157.019C29.5803 156.702 29.2353 156.389 28.9053 156.072C33.1201 156.207 37.1099 157.361 41.2033 159.164C43.1982 160.034 45.2081 161.054 47.2795 162.194C47.593 162.357 47.9245 162.539 48.2395 162.719C49.1544 163.229 50.0694 163.755 50.9993 164.295C51.7178 164.7 52.4393 165.137 53.1893 165.57C55.3342 166.83 57.5691 168.18 59.939 169.56C64.5438 172.247 69.7186 172.44 75.3283 171.104C77.2348 170.655 79.1832 170.04 81.1781 169.275C82.1831 168.885 83.203 168.479 84.223 168.03C87.1029 166.785 90.0577 165.3 93.1026 163.694C94.1526 163.14 95.216 162.554 96.2975 161.969C98.1124 160.997 99.9423 159.974 101.802 158.939C109.062 154.934 116.652 150.78 124.436 147.78C126.536 146.954 128.653 146.234 130.781 145.604C136.509 143.94 142.301 143.055 148.105 143.459C149.32 143.535 150.519 143.67 151.735 143.88H151.75C152.395 143.969 153.04 144.102 153.685 144.255C155.881 144.714 158.056 145.392 160.231 146.291Z"
          fill="url(#paint4_linear)"/>
    <path d="M168.046 134.83C165.931 138.507 163.576 142.047 160.965 145.36C160.306 146.215 159.616 147.057 158.911 147.883C157.215 149.922 155.4 151.873 153.525 153.763C151.455 155.817 149.282 157.783 147.015 159.643C145.335 161.023 143.61 162.342 141.825 163.587C141.782 163.618 141.72 163.663 141.675 163.692H141.66C141.344 163.917 141.03 164.143 140.714 164.35C140.415 164.562 140.129 164.757 139.829 164.95C139.379 156.132 144.285 156.835 144.285 156.835C144.285 156.835 139.5 150.042 144.675 145.345C149.625 140.86 153.705 145.152 154.05 145.512C153.898 145.122 152.58 141.609 155.01 139.902C157.605 138.07 160.185 140.547 160.185 140.547C160.185 140.547 163.08 135.91 168.046 134.83Z"
          fill="url(#paint5_linear)"/>
    <path d="M47.9157 169.555C47.6757 169.435 47.4357 169.315 47.1957 169.18C46.1908 168.641 45.2008 168.07 44.2259 167.483C42.5159 160.195 36.9377 152.305 39.0811 149.44C41.571 146.109 45.5908 151.54 47.1207 161.108C47.4357 163.015 47.6307 164.665 47.7507 166.088C47.7507 166.088 47.7507 166.103 47.7507 166.135C47.8707 167.483 47.9157 168.608 47.9157 169.555Z"
          fill="url(#paint6_linear)"/>
    <path d="M52.1441 168.415C51.7391 169.39 51.3642 170.29 50.9892 171.116C49.9542 170.621 48.9343 170.108 47.9143 169.555C47.6743 169.435 47.4343 169.315 47.1943 169.18C47.4043 168.175 47.5843 167.141 47.7493 166.136C47.7493 166.105 47.7493 166.09 47.7493 166.09C48.6043 160.526 48.9193 155.215 51.3192 154.257C55.1605 152.71 55.7905 159.43 52.1441 168.415Z"
          fill="url(#paint7_linear)"/>
    <path d="M83.1941 179.741C82.2491 179.665 81.3042 179.575 80.3592 179.486C80.1342 179.455 79.9242 179.44 79.6992 179.41C79.9107 178.616 80.1792 177.698 80.5407 176.665C80.9907 175.3 81.5891 173.708 82.3556 171.895C86.1204 162.969 91.3102 158.651 92.9452 162.459C94.4136 165.925 86.2989 172.718 83.1941 179.741Z"
          fill="url(#paint8_linear)"/>
    <path d="M80.5395 176.665C80.463 177.596 80.388 178.54 80.3595 179.486C80.1345 179.455 79.9245 179.44 79.6995 179.41C78.4246 179.26 77.1497 179.096 75.8897 178.885C75.8297 178.525 75.7862 178.165 75.7247 177.79C74.3298 168.19 76.5362 161.815 79.911 164.229C82.0095 165.762 81.018 171.025 80.5395 176.665Z"
          fill="url(#paint9_linear)"/>
    <path d="M90.2917 71.973C102.168 71.973 111.795 62.3453 111.795 50.469C111.795 38.5926 102.168 28.965 90.2917 28.965C78.4158 28.965 68.7886 38.5926 68.7886 50.469C68.7886 62.3453 78.4158 71.973 90.2917 71.973Z"
          fill="white"/>
    <path fill-rule="evenodd" clip-rule="evenodd"
          d="M96.2701 45.614C96.6606 45.2234 96.6605 44.5903 96.2699 44.1998C95.8793 43.8093 95.2462 43.8094 94.8557 44.2L90.0037 49.0533L85.151 44.1999C84.7605 43.8094 84.1273 43.8093 83.7368 44.1998C83.3462 44.5903 83.3462 45.2235 83.7367 45.614L88.5897 50.4677L83.7352 55.3235C83.3447 55.7141 83.3448 56.3473 83.7354 56.7377C84.1259 57.1282 84.7591 57.1281 85.1496 56.7375L90.0038 51.882L94.8587 56.7376C95.2492 57.1281 95.8824 57.1282 96.2729 56.7377C96.6635 56.3472 96.6635 55.714 96.273 55.3235L91.4178 50.4676L96.2701 45.614Z"
          fill="url(#paint10_linear)"/>
    <g filter="url(#filter0_d)">
        <rect x="37" y="65" width="105" height="66" rx="13" fill="#F87777"/>
        <rect x="37" y="65" width="105" height="66" rx="13" fill="url(#paint11_linear)"/>
    </g>
    <rect opacity="0.6" x="50" y="82" width="16" height="12" rx="6" fill="white"/>
    <rect opacity="0.6" x="50" y="111" width="16" height="4" rx="2" fill="white"/>
    <rect opacity="0.6" x="72" y="111" width="16" height="4" rx="2" fill="white"/>
    <rect opacity="0.6" x="94" y="111" width="16" height="4" rx="2" fill="white"/>
    <rect opacity="0.6" x="116" y="111" width="16" height="4" rx="2" fill="white"/>
</svg>
