<svg width="180" height="180" viewBox="0 0 180 180" fill="none" xmlns="http://www.w3.org/2000/svg">
    <defs>
        <filter id="filter0_d_8835_67806" x="56.2953" y="50.1592" width="75.0808" height="75.0808"
            filterUnits="userSpaceOnUse" color-interpolation-filters="sRGB">
            <feFlood flood-opacity="0" result="BackgroundImageFix" />
            <feColorMatrix in="SourceAlpha" type="matrix"
                values="0 0 0 0 0 0 0 0 0 0 0 0 0 0 0 0 0 0 127 0" result="hardAlpha" />
            <feOffset dx="4" dy="4" />
            <feGaussianBlur stdDeviation="3" />
            <feColorMatrix type="matrix"
                values="0 0 0 0 0.298039 0 0 0 0 0.521569 0 0 0 0 1 0 0 0 0.19 0" />
            <feBlend mode="normal" in2="BackgroundImageFix"
                result="effect1_dropShadow_8835_67806" />
            <feBlend mode="normal" in="SourceGraphic" in2="effect1_dropShadow_8835_67806"
                result="shape" />
        </filter>
        <linearGradient id="paint0_linear_8835_67806" x1="100.028" y1="183.819" x2="91.3471"
            y2="33.6885" gradientUnits="userSpaceOnUse">
            <stop stop-color="white" stop-opacity="0" />
            <stop offset="1" stop-color="white" />
        </linearGradient>
        <linearGradient id="paint1_linear_8835_67806" x1="93.8315" y1="122.157" x2="108.001"
            y2="190.325" gradientUnits="userSpaceOnUse">
            <stop offset="4e-07" stop-color="#C7FFAB" />
            <stop offset="1" stop-color="#83CFD3" />
        </linearGradient>
        <linearGradient id="paint2_linear_8835_67806" x1="90.0178" y1="95.7941" x2="104.316"
            y2="202.775" gradientUnits="userSpaceOnUse">
            <stop offset="4e-07" stop-color="#C7FFAB" />
            <stop offset="1" stop-color="#83CFD3" />
        </linearGradient>
        <linearGradient id="paint3_linear_8835_67806" x1="87.0604" y1="39.5838" x2="94.6997"
            y2="178.616" gradientUnits="userSpaceOnUse">
            <stop offset="4e-07" stop-color="#C7FFAB" />
            <stop offset="1" stop-color="#83CFD3" />
        </linearGradient>
        <linearGradient id="paint4_linear_8835_67806" x1="113.936" y1="201.238" x2="92.9988"
            y2="147.109" gradientUnits="userSpaceOnUse">
            <stop offset="4e-07" stop-color="#5399A5" />
            <stop offset="1" stop-color="#83CFD3" />
        </linearGradient>
        <linearGradient id="paint5_linear_8835_67806" x1="141.541" y1="137.669" x2="167.487"
            y2="163.232" gradientUnits="userSpaceOnUse">
            <stop offset="4e-07" stop-color="#C7FFAB" />
            <stop offset="1" stop-color="#83CFD3" />
        </linearGradient>
        <linearGradient id="paint6_linear_8835_67806" x1="41.2156" y1="149.339" x2="46.1943"
            y2="170.212" gradientUnits="userSpaceOnUse">
            <stop offset="4e-07" stop-color="#C7FFAB" />
            <stop offset="1" stop-color="#83CFD3" />
        </linearGradient>
        <linearGradient id="paint7_linear_8835_67806" x1="41.701" y1="153.305" x2="66.7109"
            y2="177.945" gradientUnits="userSpaceOnUse">
            <stop offset="4e-07" stop-color="#C7FFAB" />
            <stop offset="1" stop-color="#83CFD3" />
        </linearGradient>
        <linearGradient id="paint8_linear_8835_67806" x1="79.4431" y1="163.997" x2="97.3952"
            y2="181.684" gradientUnits="userSpaceOnUse">
            <stop offset="4e-07" stop-color="#C7FFAB" />
            <stop offset="1" stop-color="#83CFD3" />
        </linearGradient>
        <linearGradient id="paint9_linear_8835_67806" x1="79.4037" y1="163.788" x2="77.297"
            y2="178.727" gradientUnits="userSpaceOnUse">
            <stop offset="4e-07" stop-color="#C7FFAB" />
            <stop offset="1" stop-color="#83CFD3" />
        </linearGradient>
        <linearGradient id="paint10_linear_8835_67806" x1="80.1548" y1="83.7005" x2="98.6676"
            y2="83.7005" gradientUnits="userSpaceOnUse">
            <stop offset="8.1e-07" stop-color="#FF5467" />
            <stop offset="1" stop-color="#FF6A83" />
        </linearGradient>
        <linearGradient id="paint11_linear_8835_67806" x1="80.1581" y1="83.7005" x2="98.6707"
            y2="83.7005" gradientUnits="userSpaceOnUse">
            <stop offset="8.1e-07" stop-color="#FF5467" />
            <stop offset="1" stop-color="#FF6A83" />
        </linearGradient>
        <clipPath id="clip0_8835_67806">
            <rect width="180" height="180" fill="white" />
        </clipPath>
    </defs>
    <g clip-path="url(#clip0_8835_67806)">
        <path
            d="M180.006 89.9948C180.006 96.7132 179.271 103.255 177.876 109.555C177.636 110.665 177.366 111.761 177.066 112.853C176.856 113.708 176.616 114.565 176.361 115.405C176.076 116.366 175.775 117.323 175.46 118.285C175.445 118.358 175.416 118.448 175.385 118.525C175.145 119.275 174.875 120.01 174.605 120.745C174.41 121.298 174.198 121.852 173.99 122.408C173.838 122.783 173.69 123.173 173.54 123.548C173.36 123.999 173.18 124.433 172.985 124.869C172.653 125.678 172.31 126.471 171.95 127.254C170.78 129.833 169.49 132.351 168.065 134.798C168.065 134.813 168.05 134.813 168.05 134.828C165.935 138.504 163.58 142.044 160.968 145.358C160.73 145.674 160.49 145.973 160.235 146.289C159.8 146.828 159.365 147.353 158.915 147.881C157.218 149.919 155.403 151.871 153.528 153.761C151.458 155.814 149.285 157.781 147.018 159.641C145.338 161.021 143.613 162.339 141.828 163.584C141.785 163.616 141.723 163.661 141.678 163.689H141.663C141.347 163.914 141.033 164.141 140.717 164.348C140.418 164.559 140.132 164.754 139.832 164.948C139.548 165.144 139.262 165.338 138.962 165.519C136.428 167.169 133.817 168.683 131.118 170.063C131.087 170.093 131.043 170.106 131.013 170.124C130.878 170.198 130.758 170.259 130.638 170.318C128.733 171.279 126.798 172.178 124.818 173.004C122.793 173.859 120.724 174.639 118.624 175.346C116.404 176.096 114.154 176.741 111.859 177.309C110.929 177.549 109.999 177.761 109.069 177.954L106.489 178.482C104.629 178.826 102.754 179.112 100.847 179.352C97.8922 179.696 94.8787 179.906 91.8322 179.967C91.5923 179.982 91.3673 179.982 91.1273 179.982C90.7523 179.997 90.3773 179.997 90.0023 179.997C88.9088 179.997 87.8123 179.982 86.7323 179.936C86.1173 179.921 85.4873 179.892 84.8723 179.847C84.3173 179.816 83.7623 179.771 83.2073 179.727H83.1923C82.9223 179.712 82.6673 179.696 82.3823 179.666C82.0388 179.651 81.7073 179.607 81.3623 179.574C81.0323 179.544 80.7023 179.516 80.3573 179.472C80.2058 179.472 80.0723 179.454 79.9223 179.426C79.8458 179.426 79.7709 179.411 79.6974 179.396C79.0674 179.337 78.4224 179.261 77.7924 179.171C77.1459 179.079 76.5159 178.992 75.8859 178.887C75.8709 178.887 75.8709 178.887 75.8559 178.887C75.2694 178.796 74.6859 178.691 74.0844 178.589C73.8744 178.557 73.6659 178.512 73.4544 178.469C72.6444 178.316 71.8344 178.167 71.0409 177.989C70.8894 177.957 70.7409 177.927 70.5894 177.897C70.0044 177.777 69.4344 177.642 68.8509 177.492C68.6994 177.462 68.5509 177.416 68.3994 177.387C67.9344 177.267 67.4859 177.162 67.0359 177.042C66.5409 176.907 66.061 176.787 65.5795 176.652C65.536 176.637 65.476 176.622 65.4295 176.609C65.2045 176.532 64.9795 176.474 64.7545 176.412C64.411 176.307 64.0645 176.201 63.7345 176.099C62.833 175.826 61.9495 175.542 61.0645 175.244C60.7495 175.139 60.4345 175.032 60.1195 174.912C59.7595 174.792 59.3995 174.672 59.0545 174.537C58.3945 174.297 57.7495 174.057 57.1045 173.802C55.018 172.976 52.9796 172.091 50.9846 171.119C49.9496 170.624 48.9296 170.111 47.9096 169.557C47.6696 169.437 47.4296 169.317 47.1896 169.182C47.0696 169.106 46.9346 169.047 46.8146 168.971C46.2896 168.687 45.7646 168.387 45.2396 168.086C44.8946 167.892 44.5646 167.696 44.2181 167.486C43.9946 167.369 43.7846 167.231 43.5596 167.096C42.0296 166.182 40.5297 165.221 39.0597 164.187C38.6997 163.962 38.3397 163.707 37.9797 163.452C36.6297 162.494 35.2947 161.486 33.9897 160.452C32.6097 159.357 31.2447 158.202 29.9248 157.019C29.5798 156.702 29.2348 156.389 28.9048 156.072C27.4348 154.722 26.0233 153.327 24.6598 151.889C24.0883 151.289 23.5348 150.687 22.9948 150.072C22.7848 149.847 22.5883 149.639 22.3948 149.414C21.6148 148.529 20.8648 147.63 20.1148 146.712V146.697C19.0048 145.347 17.9398 143.952 16.9349 142.529C16.5599 142.004 16.1849 141.477 15.8249 140.952C15.5699 140.592 15.3299 140.232 15.0899 139.874C14.7464 139.346 14.3999 138.822 14.0699 138.297C13.7549 137.817 13.4699 137.336 13.1699 136.856C12.8699 136.379 12.5699 135.884 12.2849 135.387C11.9399 134.816 11.6249 134.247 11.2949 133.662C10.2449 131.787 9.26841 129.869 8.35492 127.902C5.66994 122.111 3.56997 115.994 2.15999 109.619C2.05499 109.198 1.96348 108.778 1.87498 108.356C1.75499 107.803 1.64998 107.231 1.54499 106.663C0.95849 103.601 0.554991 100.466 0.299993 97.3027C0.268493 96.8512 0.225005 96.4027 0.195006 95.9527C0.0750067 93.9862 0 92.0093 0 89.9993C0 82.9178 0.824996 76.0044 2.36998 69.4044C3.94497 62.698 6.25495 56.2795 9.23993 50.2346C10.7849 47.1146 12.4949 44.0831 14.3849 41.1747C30.4062 16.3949 58.291 0 89.9993 0C114.209 0 136.184 9.55493 152.354 25.1098C160.017 32.4747 166.379 41.1897 171.059 50.8646C171.674 52.1411 172.259 53.4146 172.799 54.7196C177.441 65.545 180.006 77.4699 180.006 89.9948Z"
            fill="#D3E1FF" />
        <path
            d="M176.361 115.405C176.076 116.366 175.774 117.323 175.459 118.285C175.444 118.358 175.416 118.448 175.384 118.525C175.144 119.275 174.874 120.01 174.604 120.745C174.409 121.298 174.198 121.852 173.989 122.408C173.838 122.783 173.689 123.173 173.539 123.548C173.359 124 173.179 124.433 172.984 124.87C172.653 125.678 172.309 126.472 171.949 127.255C170.78 129.833 169.49 132.351 168.065 134.798C168.065 134.813 168.05 134.813 168.05 134.828C165.935 138.504 163.58 142.044 160.968 145.358C160.73 145.674 160.49 145.973 160.235 146.289C159.8 146.828 159.365 147.353 158.915 147.881C157.218 149.919 155.403 151.871 153.528 153.761C151.458 155.814 149.285 157.781 147.018 159.641C145.338 161.021 143.613 162.339 141.828 163.584C141.785 163.616 141.723 163.661 141.678 163.689H141.663C141.347 163.914 141.033 164.141 140.717 164.348C140.418 164.559 140.132 164.754 139.832 164.948C139.548 165.144 139.262 165.338 138.962 165.519C136.428 167.169 133.817 168.683 131.118 170.063C131.087 170.093 131.043 170.106 131.013 170.124C130.878 170.198 130.758 170.259 130.638 170.318C128.733 171.279 126.798 172.178 124.818 173.004C122.793 173.859 120.723 174.639 118.623 175.346C116.403 176.096 114.153 176.741 111.858 177.309C110.928 177.549 109.999 177.761 109.069 177.954L106.489 178.482C104.629 178.826 102.754 179.112 100.847 179.352C97.8921 179.696 94.8786 179.906 91.8322 179.967C91.5922 179.982 91.3672 179.982 91.1272 179.982C90.7522 179.997 90.3772 179.997 90.0022 179.997C88.9087 179.997 87.8122 179.982 86.7322 179.936C86.1172 179.921 85.4872 179.892 84.8722 179.847C84.3172 179.816 83.7622 179.771 83.2072 179.727H83.1922C82.9222 179.712 82.6672 179.696 82.3822 179.666C82.0387 179.651 81.7072 179.607 81.3622 179.574C81.0323 179.544 80.7022 179.516 80.3572 179.472C80.2057 179.472 80.0722 179.454 79.9222 179.426C79.8458 179.426 79.7708 179.411 79.6973 179.396C79.0673 179.337 78.4223 179.261 77.7923 179.171C77.1458 179.079 76.5158 178.992 75.8858 178.887C75.8708 178.887 75.8708 178.887 75.8558 178.887C75.2693 178.796 74.6858 178.691 74.0843 178.589C73.8743 178.557 73.6658 178.512 73.4543 178.469C72.6443 178.316 71.8343 178.167 71.0408 177.989C70.8893 177.957 70.7408 177.927 70.5893 177.897C70.0043 177.777 69.4343 177.642 68.8508 177.492C68.6993 177.462 68.5508 177.416 68.3993 177.387C67.9343 177.267 67.4858 177.162 67.0358 177.042C66.5409 176.907 66.0609 176.787 65.5794 176.652L65.5644 176.637L53.0245 166.017L50.9995 164.292L48.3295 162.027L47.0845 160.976L39.2696 154.346H39.2546L23.1897 140.726L17.0548 135.522L16.9348 135.417C23.5932 130.856 29.5347 126.688 34.9196 123.043C57.0744 108.058 70.0343 101.966 86.8192 113.893C88.9192 115.378 91.1992 116.638 93.6291 117.658C96.2391 118.798 99.0306 119.683 101.924 120.341C103.724 120.778 105.569 121.106 107.444 121.361H107.459C108.254 121.499 109.036 121.586 109.844 121.663C117.194 122.486 124.98 122.278 132.449 121.586C133.964 121.436 135.48 121.273 136.964 121.091C139.709 120.748 142.394 120.356 144.975 119.936C152.505 118.706 159.18 117.235 164.115 116.156C166.185 115.705 168.39 115.45 170.655 115.345C172.536 115.271 174.441 115.3 176.361 115.405Z"
            fill="url(#paint0_linear_8835_67806)" />
        <path
            d="M177.876 109.555C177.636 110.665 177.366 111.761 177.066 112.853C176.856 113.708 176.616 114.564 176.361 115.404C176.076 116.366 175.774 117.323 175.459 118.284C175.444 118.358 175.416 118.448 175.384 118.524C175.144 119.274 174.874 120.009 174.604 120.744C174.409 121.298 174.198 121.851 173.989 122.408C173.838 122.783 173.689 123.173 173.539 123.548C173.359 123.999 173.179 124.433 172.984 124.869C172.653 125.678 172.309 126.471 171.949 127.254C170.779 129.833 169.489 132.351 168.064 134.798C168.064 134.813 168.049 134.813 168.049 134.828C165.934 138.504 163.579 142.044 160.968 145.358C160.729 145.674 160.489 145.973 160.234 146.289C159.799 146.828 159.364 147.353 158.914 147.881C157.218 149.919 155.403 151.871 153.528 153.761C151.458 155.814 149.285 157.781 147.018 159.641C145.338 161.021 143.613 162.339 141.828 163.584C141.785 163.616 141.723 163.661 141.678 163.689H141.663C141.347 163.914 141.033 164.141 140.717 164.348C140.418 164.559 140.132 164.754 139.832 164.948C139.548 165.144 139.262 165.338 138.962 165.519C136.428 167.169 133.817 168.683 131.118 170.063C131.087 170.093 131.043 170.106 131.013 170.124C130.878 170.198 130.758 170.259 130.638 170.318C128.733 171.279 126.798 172.178 124.818 173.004C122.793 173.859 120.723 174.639 118.623 175.345C116.403 176.095 114.153 176.74 111.858 177.309C110.928 177.549 109.998 177.76 109.068 177.954L106.488 178.482C104.628 178.825 102.753 179.112 100.847 179.352C97.892 179.695 94.8785 179.905 91.832 179.967C91.592 179.982 91.367 179.982 91.127 179.982C90.752 179.997 90.377 179.997 90.002 179.997C88.9085 179.997 87.812 179.982 86.732 179.935C86.117 179.92 85.4871 179.892 84.8721 179.847C84.3171 179.815 83.7621 179.785 83.1921 179.742C82.9221 179.727 82.6521 179.695 82.3821 179.665C82.0386 179.65 81.7071 179.607 81.3621 179.574C81.0321 179.544 80.6871 179.515 80.3571 179.485C80.2056 179.47 80.0721 179.454 79.9221 179.424C79.8456 179.424 79.7706 179.409 79.6971 179.409C79.0521 179.335 78.4221 179.259 77.7921 179.169C77.1456 179.077 76.5156 178.99 75.8856 178.885C75.8706 178.885 75.8706 178.885 75.8556 178.885C75.2691 178.794 74.6856 178.689 74.0842 178.587C73.8742 178.555 73.6657 178.51 73.4542 178.467C72.6442 178.314 71.8342 178.165 71.0407 177.987C70.8892 177.955 70.7407 177.925 70.5892 177.895C70.0042 177.775 69.4342 177.64 68.8507 177.49C68.6992 177.46 68.5507 177.414 68.3992 177.385C67.9342 177.265 67.4857 177.16 67.0357 177.04C66.5407 176.905 66.0607 176.785 65.5792 176.65L65.5642 176.635C65.5192 176.62 65.4742 176.62 65.4292 176.605C65.2042 176.529 64.9792 176.47 64.7542 176.409C64.4107 176.304 64.0642 176.197 63.7342 176.095C62.8328 175.822 61.9492 175.539 61.0642 175.24C60.7492 175.135 60.4343 175.029 60.1193 174.909C59.7593 174.789 59.3993 174.669 59.0543 174.534C58.3943 174.294 57.7493 174.054 57.1043 173.799C55.0178 172.972 52.9793 172.088 50.9843 171.116C49.9494 170.621 48.9294 170.108 47.9094 169.554C47.6694 169.434 47.4294 169.314 47.1894 169.179C47.0694 169.103 46.9344 169.044 46.8144 168.968C46.2894 168.684 45.7644 168.384 45.2394 168.083C44.8944 167.889 44.5644 167.693 44.2179 167.483C43.9944 167.366 43.7844 167.228 43.5594 167.093C42.0294 166.179 40.5294 165.218 39.0594 164.184C38.6994 163.959 38.3394 163.704 37.9794 163.449C36.6294 162.491 35.2945 161.483 33.9895 160.449C32.6095 159.354 31.2445 158.199 29.9245 157.016C29.5795 156.699 29.2345 156.386 28.9045 156.069C27.4345 154.719 26.023 153.324 24.6596 151.886C24.0881 151.286 23.5346 150.684 22.9946 150.069C22.7846 149.844 22.5881 149.636 22.3946 149.411C21.6146 148.526 20.8646 147.627 20.1146 146.709V146.694C19.0046 145.344 17.9396 143.949 16.9346 142.526C16.5596 142.001 16.1846 141.474 15.8246 140.949C15.5696 140.589 15.3296 140.229 15.0896 139.871C14.7461 139.343 14.3996 138.819 14.0696 138.294C13.7547 137.814 13.4696 137.333 13.1696 136.853C12.8696 136.376 12.5697 135.881 12.2847 135.384C11.9397 134.813 11.6247 134.244 11.2947 133.659C10.2447 131.784 9.26817 129.866 8.35468 127.899C17.9531 123.443 26.218 121.688 34.9195 123.039C43.6044 124.389 52.7078 128.858 64.0177 136.853C73.9042 143.858 83.4876 147.506 92.4575 148.241H92.474C94.6325 148.419 96.749 148.434 98.849 148.271C98.864 148.286 98.8639 148.271 98.8639 148.271C99.4624 148.241 100.064 148.179 100.664 148.104C110.444 146.936 119.322 142.136 126.882 134.411C127.182 134.109 127.482 133.796 127.767 133.479C127.992 133.257 128.217 133.016 128.427 132.776C129.312 131.814 130.167 130.796 130.992 129.761C131.397 129.266 131.802 128.756 132.192 128.229C133.857 126.011 135.462 123.641 136.962 121.089C137.429 120.309 137.877 119.501 138.327 118.689C150.395 96.6846 163.761 97.3431 177.876 109.555Z"
            fill="url(#paint1_linear_8835_67806)" />
        <path
            d="M175.386 118.525C175.146 119.275 174.876 120.01 174.606 120.745C174.411 121.298 174.199 121.852 173.991 122.408C173.839 122.783 173.691 123.173 173.541 123.548C173.361 124 173.181 124.433 172.986 124.87C172.654 125.678 172.311 126.472 171.951 127.255C170.781 129.833 169.491 132.351 168.066 134.798C168.066 134.813 168.051 134.813 168.051 134.828C165.936 138.504 163.581 142.044 160.97 145.358C160.731 145.674 160.491 145.973 160.236 146.289C159.801 146.828 159.366 147.353 158.916 147.881C157.22 149.919 155.405 151.871 153.53 153.761C151.46 155.814 149.286 157.781 147.02 159.641C145.34 161.021 143.615 162.339 141.83 163.584C141.786 163.616 141.725 163.661 141.68 163.689H141.665C141.348 163.914 141.035 164.141 140.718 164.348C140.42 164.559 140.133 164.754 139.833 164.948C139.55 165.144 139.263 165.338 138.963 165.519C136.43 167.169 133.818 168.683 131.12 170.063C131.088 170.093 131.045 170.106 131.015 170.124C130.88 170.198 130.76 170.259 130.64 170.318C128.735 171.279 126.8 172.178 124.82 173.004C122.795 173.859 120.725 174.639 118.625 175.346C116.405 176.096 114.155 176.741 111.86 177.309C110.93 177.549 110 177.761 109.07 177.954L106.49 178.482C104.63 178.826 102.755 179.112 100.849 179.352C97.8935 179.696 94.88 179.906 91.8336 179.967C91.5936 179.982 91.3686 179.982 91.1286 179.982C90.7536 179.997 90.3786 179.997 90.0036 179.997C88.9101 179.997 87.8136 179.982 86.7336 179.936C86.1186 179.921 85.4886 179.892 84.8736 179.847C84.3186 179.816 83.7636 179.786 83.1936 179.742C82.9236 179.727 82.6537 179.696 82.3837 179.666C82.0402 179.651 81.7087 179.607 81.3637 179.574C81.0337 179.544 80.6887 179.516 80.3587 179.486C80.2072 179.471 80.0737 179.454 79.9237 179.424C79.8472 179.424 79.7722 179.409 79.6987 179.409C79.0537 179.336 78.4237 179.259 77.7937 179.169C77.1472 179.078 76.5172 178.991 75.8872 178.886C75.8722 178.886 75.8722 178.886 75.8572 178.886C75.2707 178.794 74.6872 178.689 74.0857 178.587C73.8757 178.556 73.6672 178.511 73.4557 178.467C72.6457 178.314 71.8357 178.166 71.0422 177.987C70.8907 177.956 70.7423 177.926 70.5908 177.896C70.0058 177.776 69.4357 177.641 68.8523 177.491C68.7008 177.461 68.5523 177.414 68.4008 177.386C67.9358 177.266 67.4873 177.161 67.0373 177.041C66.5423 176.906 66.0623 176.786 65.5808 176.651L65.5658 176.636C65.5208 176.621 65.4758 176.621 65.4308 176.606C65.2058 176.529 64.9808 176.471 64.7558 176.409C64.4123 176.304 64.0658 176.198 63.7358 176.096C62.8343 175.823 61.9508 175.539 61.0658 175.241C60.7508 175.136 60.4358 175.029 60.1208 174.909C59.7608 174.789 59.4008 174.669 59.0558 174.534C58.3959 174.294 57.7509 174.054 57.1059 173.799C55.0194 172.973 52.9809 172.088 50.9859 171.116C49.9509 170.621 48.9309 170.108 47.9109 169.554C47.6709 169.434 47.4309 169.314 47.1909 169.179C47.0709 169.103 46.9359 169.044 46.8159 168.968C46.2909 168.684 45.7659 168.384 45.2409 168.083C44.896 167.889 44.566 167.693 44.2195 167.483C43.996 167.366 43.786 167.228 43.561 167.093C42.031 166.179 40.531 165.218 39.061 164.184C38.701 163.959 38.341 163.704 37.981 163.449C36.631 162.491 35.296 161.483 33.991 160.449C32.6111 159.354 31.2461 158.199 29.9261 157.016C29.5811 156.699 29.2361 156.386 28.9061 156.069C27.4361 154.719 26.0246 153.324 24.6611 151.886C24.0896 151.286 23.5361 150.684 22.9961 150.069C22.7861 149.844 22.5896 149.636 22.3961 149.411C21.6161 148.526 20.8661 147.627 20.1162 146.709V146.694C19.0062 145.344 17.9412 143.949 16.9362 142.526C16.5612 142.001 16.1862 141.474 15.8262 140.949C15.5712 140.589 15.3312 140.229 15.0912 139.871C14.7477 139.343 14.4012 138.819 14.0712 138.294C13.7562 137.814 13.4712 137.333 13.1712 136.853C14.4912 136.343 15.7812 135.894 17.0562 135.519C32.1161 130.928 44.956 134.348 64.0208 147.848C68.2508 150.848 72.4222 153.218 76.5007 155.019C78.6757 155.978 80.8057 156.774 82.9206 157.404H82.9356C87.7956 158.874 92.5206 159.504 97.0805 159.371C98.672 159.324 100.245 159.174 101.805 158.934C106.62 158.214 111.21 156.608 115.53 154.223C115.545 154.223 115.545 154.223 115.545 154.208C116.084 153.909 116.61 153.593 117.135 153.264C119.67 151.718 122.115 149.874 124.44 147.774C126.615 145.794 128.7 143.588 130.68 141.159C133.185 138.068 135.524 134.634 137.655 130.871C137.894 130.478 138.105 130.089 138.329 129.684C138.644 129.098 138.975 128.544 139.29 127.991C141.149 124.78 143.055 122.108 144.975 119.935C153.089 110.723 161.685 110.215 170.655 115.343C172.219 116.228 173.796 117.295 175.386 118.525Z"
            fill="url(#paint2_linear_8835_67806)" />
        <path
            d="M168.066 134.799C168.066 134.814 168.051 134.814 168.051 134.829C165.936 138.506 163.581 142.046 160.97 145.359C160.731 145.676 160.491 145.974 160.236 146.291C159.801 146.829 159.366 147.354 158.916 147.882C157.22 149.921 155.405 151.872 153.53 153.762C151.46 155.816 149.286 157.782 147.02 159.642C145.34 161.022 143.615 162.341 141.83 163.586C141.786 163.617 141.725 163.662 141.68 163.691H141.665C141.348 163.916 141.035 164.142 140.718 164.349C140.42 164.561 140.133 164.756 139.833 164.949C139.55 165.146 139.263 165.339 138.963 165.521C136.43 167.171 133.818 168.684 131.12 170.064C131.088 170.094 131.045 170.108 131.015 170.126C130.88 170.199 130.76 170.261 130.64 170.319C128.735 171.281 126.8 172.179 124.82 173.006C122.795 173.86 120.725 174.64 118.625 175.347C116.405 176.097 114.155 176.742 111.86 177.31C110.93 177.55 110 177.762 109.07 177.955L106.49 178.483C104.63 178.827 102.755 179.113 100.849 179.353C97.8936 179.697 94.8801 179.907 91.8336 179.968C91.5936 179.983 91.3686 179.983 91.1287 179.983C90.7537 179.998 90.3787 179.998 90.0037 179.998C88.9102 179.998 87.8137 179.983 86.7337 179.937C86.1187 179.922 85.4887 179.893 84.8737 179.848C84.3187 179.817 83.7637 179.787 83.1937 179.743C82.9237 179.728 82.6537 179.697 82.3837 179.667C82.0402 179.652 81.7087 179.608 81.3637 179.575C81.0337 179.545 80.6887 179.517 80.3588 179.487C80.1338 179.455 79.9238 179.44 79.6988 179.41C79.0538 179.337 78.4238 179.26 77.7938 179.17C77.1473 179.079 76.5173 178.992 75.8873 178.887C75.8723 178.887 75.8723 178.887 75.8573 178.887C75.0473 178.752 74.2523 178.617 73.4558 178.468C72.6458 178.315 71.8358 178.167 71.0423 177.988C70.3073 177.838 69.5723 177.672 68.8523 177.493C68.7008 177.463 68.5523 177.417 68.4009 177.388C67.9359 177.268 67.4874 177.163 67.0374 177.043C66.5424 176.908 66.0624 176.788 65.5809 176.653L65.5659 176.638C65.5209 176.623 65.4759 176.623 65.4309 176.608C65.2059 176.532 64.9809 176.473 64.7559 176.412C64.4124 176.307 64.0659 176.2 63.7359 176.098C62.8344 175.825 61.9509 175.542 61.0659 175.243C60.7509 175.138 60.4359 175.032 60.1209 174.912C59.7609 174.792 59.4009 174.672 59.0559 174.537C58.3959 174.297 57.7509 174.057 57.1059 173.802C55.0195 172.976 52.981 172.091 50.986 171.119C49.951 170.624 48.931 170.111 47.911 169.557C47.671 169.437 47.431 169.317 47.191 169.182C47.071 169.106 46.936 169.047 46.816 168.971C46.291 168.687 45.766 168.387 45.241 168.086C44.896 167.892 44.566 167.696 44.2195 167.486C43.996 167.369 43.7861 167.231 43.5611 167.096C42.0311 166.182 40.5311 165.221 39.0611 164.187C38.7011 163.962 38.3411 163.707 37.9811 163.452C36.6311 162.494 35.2961 161.486 33.9911 160.452C32.6111 159.357 31.2462 158.202 29.9262 157.019C29.5812 156.702 29.2362 156.389 28.9062 156.072C27.4362 154.722 26.0247 153.327 24.6612 151.889C24.0897 151.289 23.5362 150.687 22.9962 150.072C22.7862 149.847 22.5897 149.639 22.3962 149.414C21.6162 148.529 20.8662 147.63 20.1162 146.712V146.697C19.0063 145.347 17.9413 143.952 16.9363 142.529C19.1113 141.674 21.1962 141.072 23.1912 140.727C27.1962 139.995 30.9011 140.189 34.5461 141.072C42.4511 142.977 50.116 148.047 59.9409 153.779C60.3009 153.987 60.6459 154.169 61.0059 154.347C61.9959 154.842 63.0159 155.217 64.0659 155.487C64.2309 155.549 64.3809 155.592 64.5609 155.625C67.4109 156.299 70.4408 156.255 73.6058 155.684C73.9208 155.625 74.2508 155.564 74.5658 155.487C74.8808 155.429 75.2108 155.352 75.5258 155.279C75.8573 155.187 76.1723 155.112 76.5008 155.024C77.1308 154.857 77.7608 154.664 78.3908 154.467C78.6158 154.409 78.8258 154.332 79.0373 154.259C79.4558 154.106 79.8908 153.972 80.3257 153.807C80.9707 153.567 81.6157 153.327 82.2757 153.057C82.8907 152.817 83.5057 152.562 84.1357 152.277C84.2557 152.231 84.3757 152.172 84.4957 152.127C85.0507 151.887 85.6057 151.632 86.1607 151.377C87.5407 150.729 88.9492 150.041 90.3757 149.321C91.0657 148.976 91.7556 148.617 92.4606 148.242H92.4771C93.6321 147.627 94.8021 146.997 95.9871 146.349C96.7056 145.959 97.4421 145.569 98.1771 145.166C98.7756 144.834 99.3621 144.507 99.9606 144.176C100.802 143.709 101.657 143.229 102.526 142.767C104.612 141.611 106.727 140.456 108.857 139.331C109.352 139.061 109.846 138.792 110.357 138.537C110.567 138.417 110.775 138.312 110.987 138.206C111.525 137.922 112.067 137.652 112.607 137.382C114.227 136.541 115.862 135.747 117.497 134.979C118.067 134.709 118.637 134.454 119.207 134.199C119.358 134.126 119.522 134.049 119.687 133.974C119.687 133.974 119.687 133.974 119.702 133.974C120.228 133.734 120.752 133.511 121.277 133.286C121.863 133.031 122.447 132.791 123.048 132.551C123.272 132.459 123.483 132.372 123.693 132.296C124.338 132.041 124.983 131.786 125.643 131.546C125.823 131.469 126.003 131.411 126.183 131.349C126.858 131.094 127.548 130.854 128.238 130.631C129.152 130.314 130.068 130.031 130.998 129.761C131.388 129.656 131.793 129.536 132.183 129.429C133.953 128.963 135.738 128.559 137.508 128.261C138.108 128.156 138.693 128.064 139.293 127.991C139.803 127.914 140.313 127.853 140.808 127.809C141.318 127.766 141.828 127.718 142.323 127.674C142.833 127.644 143.343 127.616 143.855 127.598C144.348 127.583 144.843 127.568 145.338 127.568C150.393 127.568 155.448 128.468 160.49 130.614C163.025 131.679 165.546 133.059 168.066 134.799Z"
            fill="url(#paint3_linear_8835_67806)" />
        <path opacity="0.15"
            d="M160.491 130.616C159.965 131.065 158.991 131.17 157.475 130.795C146.751 128.185 133.536 130.54 117.515 137.366C101.495 144.204 89.2401 158.049 75.3053 159.266C61.3554 160.479 56.7504 155.621 46.6705 148.449C41.344 144.669 37.7606 142.299 34.5506 141.069C42.4555 142.974 50.1205 148.044 59.9454 153.776C83.8117 167.679 122.72 114.593 160.491 130.616Z"
            fill="white" />
        <path
            d="M160.236 146.289C159.801 146.828 159.366 147.353 158.916 147.881C157.22 149.919 155.405 151.871 153.53 153.761C151.46 155.814 149.286 157.781 147.02 159.641C145.34 161.021 143.615 162.339 141.83 163.584C141.786 163.616 141.725 163.661 141.68 163.689H141.665C141.348 163.914 141.035 164.141 140.718 164.348C140.42 164.559 140.133 164.754 139.833 164.948C139.55 165.144 139.263 165.338 138.963 165.519C136.43 167.169 133.818 168.683 131.12 170.063C131.088 170.093 131.045 170.106 131.015 170.124C130.88 170.198 130.76 170.259 130.64 170.318C128.735 171.279 126.8 172.178 124.82 173.004C122.795 173.859 120.725 174.639 118.625 175.346C116.405 176.096 114.155 176.741 111.86 177.309C110.93 177.549 110 177.761 109.07 177.954L106.49 178.482C104.63 178.826 102.755 179.112 100.849 179.352C97.8936 179.696 94.8801 179.906 91.8336 179.967C91.5936 179.982 91.3686 179.982 91.1286 179.982C90.7536 179.997 90.3786 179.997 90.0036 179.997C88.9101 179.997 87.8137 179.982 86.7337 179.936C86.1187 179.921 85.4887 179.892 84.8737 179.847C84.3187 179.816 83.7637 179.786 83.1937 179.742C82.9237 179.727 82.6537 179.696 82.3837 179.666C82.0402 179.651 81.7087 179.607 81.3637 179.574C81.0337 179.544 80.6887 179.516 80.3587 179.486C80.1337 179.454 79.9237 179.439 79.6987 179.409C79.0537 179.336 78.4237 179.259 77.7937 179.169C77.1472 179.078 76.5172 178.991 75.8872 178.886C75.8722 178.886 75.8722 178.886 75.8572 178.886C75.0472 178.751 74.2523 178.616 73.4558 178.467C72.6458 178.314 71.8358 178.166 71.0423 177.987C70.3073 177.837 69.5723 177.671 68.8523 177.492C68.7008 177.462 68.5523 177.416 68.4008 177.387C67.9358 177.267 67.4873 177.162 67.0373 177.042C66.5423 176.907 66.0623 176.787 65.5808 176.652L65.5658 176.637C65.5208 176.622 65.4758 176.622 65.4308 176.607C65.2058 176.531 64.9808 176.472 64.7559 176.411C64.4124 176.306 64.0658 176.199 63.7358 176.097C62.8344 175.824 61.9509 175.541 61.0659 175.242C60.7509 175.137 60.4359 175.031 60.1209 174.911C59.7609 174.791 59.4009 174.671 59.0559 174.536C58.3959 174.296 57.7509 174.056 57.1059 173.801C55.0194 172.974 52.9809 172.089 50.986 171.117C49.951 170.622 48.931 170.109 47.911 169.556C47.671 169.436 47.431 169.316 47.191 169.181C47.071 169.104 46.936 169.046 46.816 168.969C46.291 168.686 45.766 168.386 45.241 168.084C44.896 167.891 44.566 167.694 44.2195 167.484C43.996 167.367 43.786 167.229 43.561 167.094C42.031 166.181 40.531 165.219 39.0611 164.186C38.7011 163.961 38.3411 163.706 37.9811 163.451C36.6311 162.492 35.2961 161.484 33.9911 160.451C32.6111 159.356 31.2461 158.201 29.9261 157.017C29.5811 156.701 29.2361 156.387 28.9061 156.071C33.1211 156.206 37.1111 157.359 41.2045 159.162C43.1995 160.032 45.2095 161.052 47.281 162.192C47.5945 162.356 47.926 162.537 48.241 162.717C49.156 163.227 50.0709 163.754 51.0009 164.294C51.7194 164.699 52.4409 165.135 53.1909 165.569C55.3359 166.829 57.5709 168.179 59.9409 169.559C64.5458 172.245 69.7208 172.439 75.3307 171.102C77.2372 170.654 79.1857 170.039 81.1807 169.274C82.1857 168.884 83.2057 168.477 84.2257 168.029C87.1057 166.784 90.0606 165.299 93.1056 163.692C94.1556 163.139 95.2191 162.552 96.3006 161.967C98.1156 160.995 99.9455 159.972 101.806 158.937C109.065 154.932 116.655 150.779 124.44 147.779C126.54 146.952 128.657 146.232 130.785 145.602C136.514 143.939 142.305 143.054 148.11 143.457C149.325 143.534 150.524 143.669 151.74 143.879H151.755C152.4 143.967 153.045 144.101 153.69 144.254C155.886 144.713 158.061 145.391 160.236 146.289Z"
            fill="url(#paint4_linear_8835_67806)" />
        <path
            d="M168.051 134.829C165.936 138.506 163.581 142.046 160.97 145.359C160.311 146.214 159.621 147.056 158.916 147.882C157.22 149.921 155.405 151.872 153.53 153.762C151.46 155.816 149.286 157.782 147.02 159.642C145.34 161.022 143.615 162.341 141.83 163.586C141.786 163.617 141.725 163.662 141.68 163.691H141.665C141.348 163.916 141.035 164.142 140.718 164.349C140.42 164.561 140.133 164.756 139.833 164.949C139.383 156.131 144.29 156.834 144.29 156.834C144.29 156.834 139.505 150.041 144.68 145.344C149.63 140.859 153.71 145.151 154.055 145.511C153.903 145.121 152.585 141.608 155.015 139.901C157.61 138.069 160.19 140.546 160.19 140.546C160.19 140.546 163.085 135.909 168.051 134.829Z"
            fill="url(#paint5_linear_8835_67806)" />
        <path
            d="M47.9169 169.554C47.6769 169.434 47.4369 169.314 47.1969 169.179C46.1919 168.641 45.202 168.069 44.227 167.483C42.517 160.194 36.9385 152.304 39.082 149.439C41.572 146.108 45.5919 151.539 47.1219 161.108C47.4369 163.014 47.6319 164.664 47.7519 166.088C47.7519 166.088 47.7519 166.103 47.7519 166.134C47.8719 167.483 47.9169 168.608 47.9169 169.554Z"
            fill="url(#paint6_linear_8835_67806)" />
        <path
            d="M52.1452 168.414C51.7403 169.389 51.3653 170.289 50.9903 171.115C49.9553 170.62 48.9353 170.107 47.9153 169.554C47.6753 169.434 47.4353 169.314 47.1953 169.179C47.4053 168.174 47.5853 167.141 47.7503 166.136C47.7503 166.104 47.7503 166.089 47.7503 166.089C48.6053 160.526 48.9203 155.214 51.3203 154.256C55.1617 152.709 55.7917 159.429 52.1452 168.414Z"
            fill="url(#paint7_linear_8835_67806)" />
        <path
            d="M83.1965 179.741C82.2515 179.664 81.3065 179.574 80.3615 179.486C80.1365 179.454 79.9265 179.439 79.7015 179.409C79.913 178.616 80.1815 177.698 80.543 176.664C80.993 175.299 81.5915 173.708 82.358 171.894C86.123 162.968 91.3129 158.649 92.9479 162.458C94.4164 165.924 86.3015 172.718 83.1965 179.741Z"
            fill="url(#paint8_linear_8835_67806)" />
        <path
            d="M80.5416 176.664C80.4651 177.596 80.3901 178.539 80.3616 179.485C80.1366 179.454 79.9266 179.439 79.7016 179.409C78.4267 179.259 77.1517 179.095 75.8917 178.884C75.8317 178.524 75.7882 178.164 75.7267 177.789C74.3317 168.189 76.5382 161.814 79.9131 164.228C82.0116 165.761 81.0201 171.024 80.5416 176.664Z"
            fill="url(#paint9_linear_8835_67806)" />
        <g filter="url(#filter0_d_8835_67806)">
            <path
                d="M89.8357 115.24C107.255 115.24 121.376 101.119 121.376 83.6996C121.376 66.2803 107.255 52.1592 89.8357 52.1592C72.4164 52.1592 58.2953 66.2803 58.2953 83.6996C58.2953 101.119 72.4164 115.24 89.8357 115.24Z"
                fill="white" />
        </g>

    </g>
    <path d="M81.2555 91.8576L97.5669 75.5417" stroke="url(#paint10_linear_8835_67806)"
        stroke-width="2" stroke-miterlimit="10" stroke-linecap="round" stroke-linejoin="round" />
    <path d="M97.5713 91.8576L81.2577 75.5417" stroke="url(#paint11_linear_8835_67806)"
        stroke-width="2" stroke-miterlimit="10" stroke-linecap="round" stroke-linejoin="round" />
</svg>
