<svg width="128" height="64" viewBox="0 0 128 64" fill="none" xmlns="http://www.w3.org/2000/svg">
    <mask id="mask0_9487_89734" style="mask-type:alpha" maskUnits="userSpaceOnUse" x="0" y="0"
        width="128" height="64">
        <path fill-rule="evenodd" clip-rule="evenodd" d="M0 64H128V0H0V64Z" fill="white" />
    </mask>
    <g mask="url(#mask0_9487_89734)">
        <path fill-rule="evenodd" clip-rule="evenodd"
            d="M0 52C0 58.6274 5.37258 64 12 64H116C122.627 64 128 58.6274 128 52V12C128 5.37258 122.627 0 116 0H12C5.37258 0 0 5.37258 0 12V52Z"
            fill="#E0002E" />
    </g>
    <path fill-rule="evenodd" clip-rule="evenodd"
        d="M117.249 20.1483C117.249 20.0942 117.239 20.0347 117.222 20.0095C117.201 19.9572 117.164 19.9184 117.118 19.8941C117.076 19.8716 117.021 19.8553 116.96 19.849C116.909 19.84 116.848 19.8337 116.764 19.8337H116.413V20.5404H116.705C116.804 20.5404 116.885 20.5404 116.951 20.5242C117.021 20.508 117.078 20.4746 117.12 20.4476C117.177 20.407 117.203 20.3655 117.234 20.3187C117.239 20.2718 117.249 20.2213 117.249 20.1483ZM118.062 21.6419H117.545L116.793 20.8243H116.413V21.6419H116.038V19.547H116.753C116.895 19.547 117.021 19.5515 117.11 19.5687C117.203 19.5813 117.292 19.6092 117.384 19.6435C117.478 19.7039 117.554 19.7796 117.6 19.849C117.642 19.9148 117.671 20.0095 117.671 20.123C117.671 20.2718 117.624 20.3871 117.545 20.4971C117.45 20.5972 117.326 20.6747 117.18 20.7261L118.062 21.6419ZM118.497 20.635C118.497 20.169 118.336 19.7562 117.995 19.4208C117.66 19.0738 117.257 18.9133 116.788 18.9133C116.311 18.9133 115.903 19.0738 115.571 19.4208C115.241 19.7562 115.066 20.169 115.066 20.635C115.066 21.1146 115.24 21.5139 115.571 21.8528C115.903 22.1945 116.311 22.354 116.788 22.354C117.257 22.354 117.66 22.1945 117.995 21.8528C118.336 21.5139 118.497 21.1146 118.497 20.635ZM118.765 20.6351C118.765 21.1795 118.569 21.65 118.187 22.0449C117.8 22.418 117.327 22.6136 116.788 22.6136C116.239 22.6136 115.778 22.418 115.386 22.0449C114.994 21.65 114.796 21.1795 114.796 20.6351C114.796 20.0897 114.994 19.6318 115.386 19.2307C115.778 18.8485 116.239 18.6583 116.788 18.6583C117.327 18.6583 117.8 18.8485 118.187 19.2307C118.569 19.6318 118.765 20.0897 118.765 20.6351Z"
        fill="#FFFFFE" />
    <path fill-rule="evenodd" clip-rule="evenodd"
        d="M47.3086 18.277C47.3086 19.6949 46.6992 20.8766 45.4706 21.6077C46.6604 22.2368 47.6628 23.2699 47.6628 24.6932C47.6628 26.9179 46.3621 28.5611 44.2979 29.2976C43.5713 29.5572 42.7411 29.6879 41.8055 29.6879C39.9233 29.6879 37.6265 28.9794 36.2203 27.6931L37.2579 26.0525C37.6121 25.5495 38.1917 25.5459 38.6911 25.8353C39.7845 26.4654 40.5958 26.9043 41.91 26.9043C43.3595 26.9043 44.3709 26.4275 44.3709 24.8284C44.3709 23.4042 42.9205 22.9922 41.7433 23.0103H39.5429L39.5321 20.2898H41.4521C42.3265 20.2898 42.9719 20.1438 43.3937 19.849C43.8156 19.5552 44.0265 19.127 44.0265 18.5654C44.0265 17.2971 42.7258 17.0087 41.7009 17.0087C40.6057 17.0087 39.8873 17.3539 38.9453 17.8362C38.3828 18.1219 37.9637 18.0174 37.6319 17.4864L36.7603 15.8567C38.1052 14.7164 39.9999 14.2486 41.7334 14.2486C42.5861 14.2486 43.3541 14.3468 44.0428 14.5442C45.8501 15.058 47.3086 16.2731 47.3086 18.277Z"
        fill="#FFFFFE" />
    <path fill-rule="evenodd" clip-rule="evenodd"
        d="M53.9647 27.3199C55.809 27.3199 56.1235 25.6622 56.1235 24.1532C56.1235 22.6416 55.8108 20.9965 53.9647 20.9965C52.0924 20.9965 51.7634 22.6037 51.7634 24.1532C51.7634 25.7001 52.0933 27.3199 53.9647 27.3199ZM53.9647 18.6087C57.299 18.6087 59.4462 20.8072 59.4462 24.1316C59.4462 27.4587 57.3215 29.7077 53.9647 29.7077C50.5988 29.7077 48.4418 27.4821 48.4418 24.1316C48.4418 20.7856 50.6214 18.6087 53.9647 18.6087Z"
        fill="#FFFFFE" />
    <path fill-rule="evenodd" clip-rule="evenodd"
        d="M70.1791 18.7745V29.541H66.9601V21.1516H64.6859C64.5398 23.2401 64.5525 26.6213 63.2031 28.3205C62.6721 28.9893 62.0141 29.4571 61.1632 29.6086C60.7927 29.6753 60.2726 29.7077 59.8525 29.7077C59.6488 29.7077 59.5046 29.7032 59.3072 29.6248C59.1098 29.5428 59.117 29.3994 59.117 29.2615V27.3289H59.0953C59.3171 27.3289 59.5343 27.3001 59.7489 27.2424C60.4141 27.0603 60.7341 26.5897 61.0189 25.9957C61.8609 24.2317 61.6292 20.7108 61.732 18.7745H70.1791Z"
        fill="#FFFFFE" />
    <path fill-rule="evenodd" clip-rule="evenodd"
        d="M76.7937 27.3199C78.6371 27.3199 78.9535 25.6631 78.9535 24.1532C78.9535 22.6416 78.638 20.9965 76.7937 20.9965C74.9206 20.9965 74.5915 22.6037 74.5915 24.1532C74.5915 25.7001 74.9215 27.3199 76.7937 27.3199ZM76.7935 18.6087C80.1278 18.6087 82.275 20.8081 82.275 24.1316C82.275 27.4587 80.1495 29.7077 76.7935 29.7077C73.4295 29.7077 71.2688 27.4803 71.2688 24.1316C71.2688 20.7865 73.4511 18.6087 76.7935 18.6087Z"
        fill="#FFFFFE" />
    <path fill-rule="evenodd" clip-rule="evenodd"
        d="M82.2074 18.7745H92.2707V21.0794H88.849V29.541H85.63V21.0794H82.2074V18.7745Z"
        fill="#FFFFFE" />
    <path fill-rule="evenodd" clip-rule="evenodd"
        d="M106.943 23.1211C107.193 23.3654 107.515 23.488 107.91 23.488H109.087V20.7883H107.91C107.316 20.7883 106.788 21.0488 106.632 21.6509C106.504 22.1539 106.559 22.7407 106.943 23.1211ZM112.138 29.541H109.087V25.3981C108.741 25.3981 108.339 25.417 108.064 25.6532C107.887 25.8001 107.762 26.0291 107.653 26.2301L106.639 28.4827C106.143 29.3426 105.599 29.541 104.657 29.541H102.434L104.568 25.9497C104.937 25.298 105.342 25.0096 106.044 24.7761C104.601 24.4624 103.331 23.6007 103.331 21.9926C103.331 21.102 103.7 20.3349 104.384 19.7661C105.326 18.9891 106.629 18.7745 107.816 18.7745H112.138V29.541Z"
        fill="#FFFFFE" />
    <path fill-rule="evenodd" clip-rule="evenodd"
        d="M20.5825 36.1771H21.4064C21.7805 36.1771 22.1032 36.1068 22.3727 35.9644C22.6441 35.8238 22.8919 35.5678 23.1173 35.1946C24.3811 33.6081 25.6962 29.2705 28.213 28.3196C30.0762 27.6165 31.6915 27.776 32.5127 27.7895L32.5118 30.8363C32.5794 32.2984 31.0975 31.8477 30.0879 32.5814C28.3626 33.838 28.3319 37.0632 26.3029 37.778C26.9609 37.9592 27.5216 38.2603 27.9831 38.6776C28.4464 39.0959 28.88 39.6737 29.2811 40.4092L34.0892 48.75H29.5317C28.5654 48.75 28.0156 48.1343 27.5703 47.3447L24.0007 40.9961C23.5482 40.1487 23.0272 39.9081 22.0852 39.9081H20.5825V48.75H15.5959V27.7895H20.5825V36.1771Z"
        fill="#FFFFFE" />
    <path fill-rule="evenodd" clip-rule="evenodd"
        d="M40.5476 45.522C43.2284 45.522 43.6854 43.1162 43.6854 40.9221C43.6854 38.7263 43.2275 36.3367 40.5476 36.3367C37.829 36.3367 37.3512 38.6731 37.3512 40.9221C37.3512 43.1693 37.8281 45.522 40.5476 45.522ZM40.5478 32.8698C45.4641 32.8698 48.5108 36.1347 48.5108 40.8924C48.5108 42.1399 48.3179 43.2631 47.9312 44.2636C46.6972 47.4456 43.8767 48.9915 40.5478 48.9915C37.227 48.9915 34.338 47.451 33.1058 44.2636C32.7191 43.2631 32.5253 42.1399 32.5253 40.8924C32.5253 36.1041 35.6171 32.8698 40.5478 32.8698Z"
        fill="#FFFFFE" />
    <path fill-rule="evenodd" clip-rule="evenodd"
        d="M57.3514 36.3845C56.0002 36.3845 55.2412 36.8541 54.3939 37.861V44.498C55.0537 45.23 55.8596 45.5527 56.8385 45.5527C59.3769 45.5527 59.824 42.7989 59.824 40.8023C59.824 39.1112 59.6067 36.3845 57.3514 36.3845ZM49.7198 53.7122V33.1096H52.6152C53.1984 33.1096 53.5815 33.3728 53.7618 33.8948L54.1079 35.0405C55.4168 33.6036 57.0186 32.8086 58.98 32.8086C61.796 32.8086 63.4916 34.9097 64.2199 37.431C64.804 39.4429 64.8139 42.0651 64.1613 44.0608C63.2275 46.8994 61.0614 48.9916 57.9542 48.9916C56.5444 48.9916 55.4672 48.6346 54.3937 47.7106V53.7122H49.7198Z"
        fill="#FFFFFE" />
    <path fill-rule="evenodd" clip-rule="evenodd"
        d="M73.8047 45.522C76.4846 45.522 76.9416 43.1162 76.9416 40.9221C76.9416 38.7263 76.4837 36.3367 73.8047 36.3367C71.0852 36.3367 70.6083 38.6731 70.6083 40.9221C70.6083 43.1693 71.0843 45.522 73.8047 45.522ZM73.8049 32.8698C78.6491 32.8698 81.7679 36.0653 81.7679 40.8924C81.7679 45.7266 78.6806 48.9915 73.8049 48.9915C68.9156 48.9915 65.7823 45.7591 65.7823 40.8924C65.7823 36.0338 68.9472 32.8698 73.8049 32.8698Z"
        fill="#FFFFFE" />
    <path fill-rule="evenodd" clip-rule="evenodd"
        d="M97.1565 33.1096V48.7509H92.4818V42.1445H87.6539V48.7509H82.9801V33.1096H87.6539V38.7966H92.4818V33.1096H97.1565Z"
        fill="#FFFFFE" />
    <path fill-rule="evenodd" clip-rule="evenodd"
        d="M98.6598 26.3806C98.3434 26.7033 98.0297 26.9386 97.7197 27.0819C97.214 27.3208 96.2026 27.4984 95.6311 27.0765C95.0632 26.6573 95.2534 25.5162 95.9078 25.1763C96.5604 24.8401 97.9306 24.7328 98.6598 24.7022V26.3806ZM97.5864 18.6006C95.9287 18.5997 94.618 18.8421 93.4156 19.0269C93.3822 19.5146 93.1154 21.7933 94.9867 21.3715C96.5092 21.1272 97.7234 20.8712 98.2724 21.4652C98.5121 21.7248 98.6392 22.0061 98.6582 22.5641C97.4322 22.592 96.4191 22.7164 95.615 22.9372C94.3458 23.2834 93.2948 23.8026 92.6917 25.0393C92.159 26.1453 92.3853 28.1357 93.3389 28.9902C94.3629 29.8952 96.2604 29.9403 97.4674 29.3859C98.0389 29.1281 98.5356 28.7504 99.0124 28.3484L99.2396 28.9379C99.4523 29.4842 99.7543 29.5761 100.312 29.5761H101.778V22.6308C101.778 20.2339 99.9192 18.6006 97.5864 18.6006Z"
        fill="#FFFFFE" />
    <path fill-rule="evenodd" clip-rule="evenodd"
        d="M15.6007 26.2905H32.5129V24.3002H15.6007V26.2905Z" fill="#F9C623" />
    <path fill-rule="evenodd" clip-rule="evenodd"
        d="M24.0332 5.78436L26.2949 8.00183L24.0332 10.2148L21.8185 8.00183L24.0332 5.78436Z"
        fill="#F9C623" />
    <path fill-rule="evenodd" clip-rule="evenodd"
        d="M35.9002 15.442C32.8688 12.7775 28.9314 11.1171 24.6083 10.9873V23.4231C24.6083 23.4231 27.8732 23.4195 28.7223 23.4231C29.4317 23.4258 29.685 22.7849 29.685 22.7849L32.6651 15.5069C32.9526 15.6917 33.233 15.8855 33.507 16.0874L30.4097 23.4231H32.5695C33.6791 20.763 34.7897 18.1021 35.9002 15.442ZM27.6505 21.65C27.4396 21.6573 26.5959 21.65 26.5959 21.65V13.1858C28.1256 13.431 29.5832 13.8934 30.9344 14.5415L28.131 21.3327C27.966 21.6618 27.6505 21.65 27.6505 21.65Z"
        fill="#F9C623" />
    <path fill-rule="evenodd" clip-rule="evenodd"
        d="M12.2134 15.442C15.2448 12.7775 19.1822 11.1171 23.5053 10.9873V23.4231C23.5053 23.4231 20.2404 23.4195 19.3913 23.4231C18.6819 23.4258 18.4286 22.7849 18.4286 22.7849L15.4485 15.5069C15.161 15.6917 14.8806 15.8855 14.6066 16.0874L17.7039 23.4231H15.5441C14.4344 20.763 13.323 18.1021 12.2134 15.442ZM20.4631 21.65C20.674 21.6573 21.5177 21.65 21.5177 21.65V13.1858C19.9871 13.431 18.5305 13.8934 17.1784 14.5415L19.9826 21.3327C20.1476 21.6618 20.4631 21.65 20.4631 21.65Z"
        fill="#F9C623" />
    <path fill-rule="evenodd" clip-rule="evenodd"
        d="M107.597 44.0879C107.137 44.5593 106.681 44.901 106.228 45.111C105.492 45.4571 104.02 45.7167 103.188 45.102C102.361 44.4917 102.637 42.8295 103.591 42.3355C104.542 41.8461 106.536 41.6901 107.597 41.6451V44.0879ZM106.034 32.7608C103.621 32.7608 101.713 33.1123 99.9616 33.3809C99.9129 34.0913 99.5253 37.4093 102.249 36.7955C104.467 36.4403 106.234 36.0671 107.034 36.9325C107.383 37.3093 107.568 37.7203 107.594 38.5316C105.81 38.5731 104.334 38.7533 103.164 39.0751C101.316 39.579 99.7858 40.3344 98.9078 42.1354C98.1317 43.7453 98.4616 46.6443 99.8507 47.8882C101.341 49.2052 104.104 49.2719 105.861 48.4651C106.693 48.0901 107.416 47.5394 108.111 46.9543L108.441 47.8116C108.751 48.6084 109.191 48.7418 110.003 48.7418H112.138V38.628C112.138 35.1396 109.431 32.7608 106.034 32.7608Z"
        fill="#FFFFFE" />
</svg>
