<svg width="80" height="120" viewBox="0 0 80 120" fill="none" xmlns="http://www.w3.org/2000/svg">
    <rect width="80" height="120" rx="16" fill="white"/>
    <rect x="16" y="16" width="48" height="33" rx="8" fill="#97B8FF"/>
    <rect x="16" y="64" width="48" height="16" rx="4" fill="#97B8FF"/>
    <rect x="16" y="88" width="48" height="16" rx="4" fill="#97B8FF"/>
    <path d="M34.9688 40H53.1658C53.9575 40 54.4352 39.1237 54.0063 38.4583L45.4765 25.2241C45.0963 24.6342 44.2425 24.6093 43.8284 25.176L34.1613 38.4101C33.6787 39.0709 34.1506 40 34.9688 40Z" fill="#EEF3FF"/>
    <path opacity="0.5" d="M26.8833 40H37.239C38.0151 40 38.4954 39.1542 38.0978 38.4877L33.2435 30.351C32.8683 29.7221 31.9665 29.6966 31.5563 30.3033L26.0549 38.4399C25.6058 39.104 26.0816 40 26.8833 40Z" fill="#EEF3FF"/>
    <circle cx="37" cy="26" r="2" fill="#EEF3FF"/>
</svg>
