<svg width="37" height="23" viewBox="0 0 37 23" fill="none" xmlns="http://www.w3.org/2000/svg">
    <path d="M14.0931 11.6622C14.0931 8.25622 15.7036 5.23526 18.1791 3.28053C16.3598 1.8589 14.0633 1 11.5581 1C5.62301 1 0.821289 5.76838 0.821289 11.6622C0.821289 17.556 5.62301 22.3244 11.5581 22.3244C14.0633 22.3244 16.3598 21.4655 18.1791 20.0439C15.7036 18.1188 14.0931 15.0682 14.0931 11.6622Z"
          stroke="white" opacity="0.4"/>
    <path d="M35.5672 11.6622C35.5672 17.556 30.7655 22.3244 24.8305 22.3244C22.3252 22.3244 20.0288 21.4655 18.2095 20.0439C20.7147 18.0891 22.2954 15.0682 22.2954 11.6622C22.2954 8.25622 20.6849 5.23526 18.2095 3.28053C20.0288 1.8589 22.3252 1 24.8305 1C30.7655 1 35.5672 5.79799 35.5672 11.6622Z"
          stroke="white" opacity="0.4"/>
</svg>
