<svg width="219" height="180" viewBox="0 0 219 180" fill="none" xmlns="http://www.w3.org/2000/svg">
    <defs>
        <filter id="filter0_d" x="80" y="57" width="101.563" height="65" filterUnits="userSpaceOnUse" color-interpolation-filters="sRGB">
            <feFlood flood-opacity="0" result="BackgroundImageFix"/>
            <feColorMatrix in="SourceAlpha" type="matrix" values="0 0 0 0 0 0 0 0 0 0 0 0 0 0 0 0 0 0 127 0"/>
            <feOffset dx="2" dy="2"/>
            <feGaussianBlur stdDeviation="2"/>
            <feColorMatrix type="matrix" values="0 0 0 0 0.298039 0 0 0 0 0.521569 0 0 0 0 1 0 0 0 0.18 0"/>
            <feBlend mode="normal" in2="BackgroundImageFix" result="effect1_dropShadow"/>
            <feBlend mode="normal" in="SourceGraphic" in2="effect1_dropShadow" result="shape"/>
        </filter>
        <linearGradient id="paint0_linear" x1="111.54" y1="161.001" x2="124.018" y2="111.509" gradientUnits="userSpaceOnUse">
            <stop stop-color="white" stop-opacity="0"/>
            <stop offset="1" stop-color="white"/>
        </linearGradient>
        <linearGradient id="paint1_linear" x1="-8.91994" y1="103.648" x2="41.7682" y2="124.848" gradientUnits="userSpaceOnUse">
            <stop offset="4e-07" stop-color="#C7FFAB"/>
            <stop offset="1" stop-color="#83CFD3"/>
        </linearGradient>
        <linearGradient id="paint2_linear" x1="38.2952" y1="82.8316" x2="27.3456" y2="194.696" gradientUnits="userSpaceOnUse">
            <stop offset="4e-07" stop-color="#C7FFAB"/>
            <stop offset="1" stop-color="#83CFD3"/>
        </linearGradient>
        <clipPath id="clip0">
            <rect width="219" height="180" fill="white"/>
        </clipPath>
    </defs>
    <g clip-path="url(#clip0)">
        <path d="M219.438 89.9985C219.438 103.287 216.516 115.904 211.265 127.259C208.282 133.739 204.523 139.816 200.124 145.364C199.456 146.219 198.756 147.061 198.039 147.884C196.319 149.923 194.478 151.875 192.575 153.765C190.475 155.821 188.268 157.785 185.97 159.645C184.265 161.025 182.515 162.346 180.704 163.591C180.658 163.621 180.597 163.665 180.552 163.696H180.535C180.215 163.918 179.896 164.145 179.576 164.355C178.982 164.76 178.404 165.148 177.795 165.523C175.193 167.19 172.5 168.735 169.729 170.128C169.592 170.205 169.47 170.263 169.348 170.325C167.415 171.283 165.452 172.185 163.443 173.008C159.212 174.763 154.814 176.22 150.293 177.315C149.35 177.555 148.406 177.763 147.462 177.96L144.845 178.485C140.02 179.37 135.043 179.88 129.974 179.97C129.35 180 128.741 180 128.117 180C127.006 180 125.895 179.985 124.799 179.941C124.175 179.924 123.536 179.895 122.912 179.85C113.019 179.312 103.537 177.21 94.7401 173.806C89.9459 171.946 85.3495 169.696 80.9967 167.1C79.4428 166.186 77.9208 165.225 76.4308 164.191C76.0655 163.966 75.7018 163.711 75.335 163.456C73.9652 162.495 72.6092 161.49 71.2866 160.456C69.8864 159.361 68.5014 158.206 67.1621 157.02C64.6965 154.831 62.3359 152.52 60.1306 150.076C59.916 149.851 59.7196 149.639 59.5218 149.414C58.7304 148.529 57.9694 147.631 57.2084 146.716V146.701C53.8448 142.634 50.8466 138.269 48.2577 133.664C44.0571 126.226 40.9081 118.154 38.9889 109.62C38.8824 109.2 38.7926 108.779 38.7013 108.36C38.5795 107.804 38.473 107.235 38.3649 106.664C37.7729 103.605 37.3604 100.47 37.1032 97.3036C36.9054 94.8901 36.7988 92.46 36.7988 90C36.7988 82.9184 37.6359 76.0048 39.2035 69.4047C41.6235 59.221 45.7936 49.6943 51.3945 41.1742C67.6491 16.3938 95.9424 0 128.117 0C164.324 0 195.601 20.7603 210.364 50.8659C216.179 62.698 219.438 75.9733 219.438 89.9985Z" fill="#D3E1FF"/>
        <path d="M211.265 127.259C208.282 133.739 204.523 139.816 200.124 145.364C199.456 146.219 198.756 147.061 198.039 147.884C196.319 149.923 194.478 151.875 192.575 153.765C190.475 155.821 188.268 157.785 185.97 159.645C184.265 161.025 182.515 162.346 180.704 163.591C180.658 163.621 180.597 163.665 180.552 163.696H180.535C180.215 163.918 179.896 164.145 179.576 164.355C178.982 164.76 178.404 165.148 177.795 165.523C175.193 167.19 172.5 168.735 169.729 170.128C169.592 170.205 169.47 170.263 169.348 170.325C167.416 171.283 165.452 172.185 163.443 173.008C159.212 174.763 154.814 176.22 150.293 177.315C149.35 177.555 148.406 177.763 147.463 177.96L144.845 178.485C140.02 179.37 135.043 179.88 129.974 179.97C129.35 180 128.741 180 128.117 180C127.006 180 125.895 179.985 124.799 179.941C124.175 179.923 123.536 179.895 122.912 179.85C113.019 179.311 103.537 177.21 94.7402 173.806C89.946 171.946 85.3496 169.696 80.9968 167.1C79.4429 166.186 77.9209 165.225 76.4309 164.191C76.0657 163.966 75.7019 163.711 75.3351 163.456C73.9653 162.495 72.6093 161.49 71.2867 160.456C69.8865 159.361 68.5015 158.206 67.1622 157.02C64.4668 154.635 61.9114 152.101 59.5204 149.414C49.2928 137.942 41.9736 123.884 38.6999 108.36C37.9389 104.745 37.4062 101.054 37.1018 97.3036C47.8164 92.3985 62.6404 97.8451 66.3996 118.125C81.6954 105.15 122.743 103.395 124.234 136.592C140.23 121.545 179.527 135.766 182.206 148.141C187.522 136.441 199.531 128.341 211.265 127.259Z" fill="url(#paint0_linear)"/>
        <path d="M60.636 145.846C60.5736 147.601 60.4077 148.996 60.1338 150.076C59.9192 149.851 59.7229 149.639 59.525 149.414C58.7336 148.529 57.9726 147.631 57.2116 146.716V146.701C53.8481 142.634 50.8498 138.269 48.2609 133.664C44.625 128.639 38.5964 125.491 31.9926 122.954C29.4814 121.98 26.8788 121.11 24.3067 120.254C14.9771 117.149 5.89092 114.329 1.88815 108.552C-5.64558 97.6186 10.6699 92.5035 27.7616 100.214C29.8604 101.142 31.9622 102.282 34.0458 103.619C34.58 103.949 35.1127 104.309 35.6454 104.684C36.5875 105.344 37.4869 106.004 38.3682 106.662C52.4311 117.254 58.9923 128.084 60.3773 139.663C60.6208 141.706 60.6969 143.759 60.636 145.846Z" fill="url(#paint1_linear)"/>
        <path opacity="0.15" d="M60.6361 145.846C60.5737 147.601 60.4078 148.996 60.1339 150.076C59.9193 149.851 59.723 149.639 59.5251 149.414C58.7337 148.529 57.9727 147.631 57.2117 146.716V146.701C53.8482 142.634 50.8499 138.269 48.261 133.664C44.625 128.639 38.5965 125.491 31.9927 122.954C37.137 116.61 35.8585 106.409 27.7632 100.215C29.862 101.144 31.9638 102.284 34.0474 103.62C34.5816 103.95 35.1143 104.31 35.647 104.685C36.5891 105.345 37.4885 106.005 38.3698 106.664C52.4327 117.255 58.9939 128.086 60.3789 139.664C60.6209 141.706 60.697 143.759 60.6361 145.846Z" fill="black"/>
        <path opacity="0.15" d="M11.6836 105.143C11.6836 105.143 41.6054 108.972 48.5989 124.483" stroke="black" stroke-miterlimit="10"/>
        <path d="M63.1777 126.076C62.9037 130.831 61.9434 135.346 60.3773 139.664C59.5097 142.067 58.4428 144.404 57.2116 146.701C53.848 142.634 50.8497 138.269 48.2609 133.664C48.9016 125.054 44.7619 117.12 38.9921 109.62C37.4397 107.595 35.7823 105.585 34.0457 103.62C26.7707 95.31 18.508 87.4349 13.9862 79.6348C12.2968 76.7547 11.1249 73.8747 10.714 70.9946C8.56802 56.3394 24.8378 56.8494 39.2052 69.4031C43.8776 73.4697 48.337 78.7932 51.8984 85.2884C57.0594 94.695 60.362 103.259 61.989 111.149C62.6739 114.345 63.0696 117.419 63.2066 120.404C63.3146 122.324 63.3147 124.216 63.1777 126.076Z" fill="url(#paint2_linear)"/>
        <path opacity="0.15" d="M26.2563 70.6737C37.1369 81.5864 63.578 105.537 52.9821 141.148" stroke="black" stroke-miterlimit="10"/>
        <path opacity="0.25" d="M61.9892 111.149C62.1566 113.279 62.3088 115.35 62.461 117.345C56.7537 95.5336 41.3529 72.8097 30.1345 66.9431C18.98 61.0945 10.8527 68.4881 13.9879 79.6333C12.2985 76.7532 11.1266 73.8732 10.7157 70.9931C8.56973 56.3379 24.8395 56.8479 39.2069 69.4016C43.8793 73.4682 48.3387 78.7918 51.9001 85.2869C57.0596 94.6935 60.3622 103.259 61.9892 111.149Z" fill="white"/>
        <g filter="url(#filter0_d)">
            <rect x="82" y="59" width="93.5634" height="57" rx="13" fill="white"/>
        </g>
        <path opacity="0.5" d="M127.324 99.5373C128.1 96.9446 129.979 96 132.173 96C134.368 96 136.247 96.9446 137.023 99.5373" stroke="#97B8FF" stroke-width="2" stroke-linecap="round" stroke-linejoin="round"/>
        <circle opacity="0.5" cx="105.5" cy="81.5" r="2.5" fill="#97B8FF"/>
        <circle opacity="0.5" cx="151.5" cy="81.5" r="2.5" fill="#97B8FF"/>
    </g>
</svg>
