<svg width="180" height="180" viewBox="0 0 180 180" fill="none" xmlns="http://www.w3.org/2000/svg">
    <defs>
        <filter id="filter0_d_11153_100806" x="56" y="51" width="69" height="80.2578"
            filterUnits="userSpaceOnUse" color-interpolation-filters="sRGB">
            <feFlood flood-opacity="0" result="BackgroundImageFix" />
            <feColorMatrix in="SourceAlpha" type="matrix"
                values="0 0 0 0 0 0 0 0 0 0 0 0 0 0 0 0 0 0 127 0" result="hardAlpha" />
            <feOffset dx="2" dy="2" />
            <feGaussianBlur stdDeviation="2" />
            <feColorMatrix type="matrix"
                values="0 0 0 0 0.298039 0 0 0 0 0.521569 0 0 0 0 1 0 0 0 0.18 0" />
            <feBlend mode="normal" in2="BackgroundImageFix"
                result="effect1_dropShadow_11153_100806" />
            <feBlend mode="normal" in="SourceGraphic" in2="effect1_dropShadow_11153_100806"
                result="shape" />
        </filter>
        <linearGradient id="paint0_linear_11153_100806" x1="100.028" y1="183.819" x2="91.3469"
            y2="33.6885" gradientUnits="userSpaceOnUse">
            <stop stop-color="white" stop-opacity="0" />
            <stop offset="1" stop-color="white" />
        </linearGradient>
        <linearGradient id="paint1_linear_11153_100806" x1="93.8313" y1="122.157" x2="108.001"
            y2="190.325" gradientUnits="userSpaceOnUse">
            <stop offset="4e-07" stop-color="#C7FFAB" />
            <stop offset="1" stop-color="#83CFD3" />
        </linearGradient>
        <linearGradient id="paint2_linear_11153_100806" x1="90.0175" y1="95.7941" x2="104.316"
            y2="202.775" gradientUnits="userSpaceOnUse">
            <stop offset="4e-07" stop-color="#C7FFAB" />
            <stop offset="1" stop-color="#83CFD3" />
        </linearGradient>
        <linearGradient id="paint3_linear_11153_100806" x1="87.0606" y1="39.5838" x2="94.6999"
            y2="178.616" gradientUnits="userSpaceOnUse">
            <stop offset="4e-07" stop-color="#C7FFAB" />
            <stop offset="1" stop-color="#83CFD3" />
        </linearGradient>
        <linearGradient id="paint4_linear_11153_100806" x1="113.936" y1="201.238" x2="92.999"
            y2="147.109" gradientUnits="userSpaceOnUse">
            <stop offset="4e-07" stop-color="#5399A5" />
            <stop offset="1" stop-color="#83CFD3" />
        </linearGradient>
        <linearGradient id="paint5_linear_11153_100806" x1="141.541" y1="137.669" x2="167.487"
            y2="163.232" gradientUnits="userSpaceOnUse">
            <stop offset="4e-07" stop-color="#C7FFAB" />
            <stop offset="1" stop-color="#83CFD3" />
        </linearGradient>
        <linearGradient id="paint6_linear_11153_100806" x1="41.2156" y1="149.339" x2="46.1944"
            y2="170.212" gradientUnits="userSpaceOnUse">
            <stop offset="4e-07" stop-color="#C7FFAB" />
            <stop offset="1" stop-color="#83CFD3" />
        </linearGradient>
        <linearGradient id="paint7_linear_11153_100806" x1="41.701" y1="153.305" x2="66.7109"
            y2="177.945" gradientUnits="userSpaceOnUse">
            <stop offset="4e-07" stop-color="#C7FFAB" />
            <stop offset="1" stop-color="#83CFD3" />
        </linearGradient>
        <linearGradient id="paint8_linear_11153_100806" x1="79.4427" y1="163.997" x2="97.3949"
            y2="181.684" gradientUnits="userSpaceOnUse">
            <stop offset="4e-07" stop-color="#C7FFAB" />
            <stop offset="1" stop-color="#83CFD3" />
        </linearGradient>
        <linearGradient id="paint9_linear_11153_100806" x1="79.4037" y1="163.788" x2="77.297"
            y2="178.727" gradientUnits="userSpaceOnUse">
            <stop offset="4e-07" stop-color="#C7FFAB" />
            <stop offset="1" stop-color="#83CFD3" />
        </linearGradient>
        <clipPath id="clip0_11153_100806">
            <rect width="180" height="180" fill="white" />
        </clipPath>
    </defs>
    <g clip-path="url(#clip0_11153_100806)">
        <path
            d="M180.006 89.9948C180.006 96.7132 179.271 103.255 177.876 109.555C177.636 110.665 177.366 111.761 177.066 112.853C176.856 113.708 176.616 114.565 176.361 115.405C176.076 116.366 175.775 117.323 175.46 118.285C175.445 118.358 175.416 118.448 175.385 118.525C175.145 119.275 174.875 120.01 174.605 120.745C174.41 121.298 174.198 121.852 173.99 122.408C173.838 122.783 173.69 123.173 173.54 123.548C173.36 123.999 173.18 124.433 172.985 124.869C172.653 125.678 172.31 126.471 171.95 127.254C170.78 129.833 169.49 132.351 168.065 134.798C168.065 134.813 168.05 134.813 168.05 134.828C165.935 138.504 163.58 142.044 160.968 145.358C160.73 145.674 160.49 145.973 160.235 146.289C159.8 146.828 159.365 147.353 158.915 147.881C157.218 149.919 155.403 151.871 153.528 153.761C151.458 155.814 149.285 157.781 147.018 159.641C145.338 161.021 143.613 162.339 141.828 163.584C141.785 163.616 141.723 163.661 141.678 163.689H141.663C141.347 163.914 141.033 164.141 140.717 164.348C140.418 164.559 140.132 164.754 139.832 164.948C139.548 165.144 139.262 165.338 138.962 165.519C136.428 167.169 133.817 168.683 131.118 170.063C131.087 170.093 131.043 170.106 131.013 170.124C130.878 170.198 130.758 170.259 130.638 170.318C128.733 171.279 126.798 172.178 124.818 173.004C122.793 173.859 120.724 174.639 118.624 175.346C116.404 176.096 114.154 176.741 111.859 177.309C110.929 177.549 109.999 177.761 109.069 177.954L106.489 178.482C104.629 178.826 102.754 179.112 100.847 179.352C97.8922 179.696 94.8787 179.906 91.8322 179.967C91.5922 179.982 91.3672 179.982 91.1273 179.982C90.7523 179.997 90.3773 179.997 90.0023 179.997C88.9088 179.997 87.8123 179.982 86.7323 179.936C86.1173 179.921 85.4873 179.892 84.8723 179.847C84.3173 179.816 83.7623 179.771 83.2073 179.727H83.1923C82.9223 179.712 82.6673 179.696 82.3823 179.666C82.0388 179.651 81.7073 179.607 81.3623 179.574C81.0323 179.544 80.7023 179.516 80.3573 179.472C80.2058 179.472 80.0723 179.454 79.9223 179.426C79.8458 179.426 79.7709 179.411 79.6973 179.396C79.0674 179.337 78.4224 179.261 77.7924 179.171C77.1459 179.079 76.5159 178.992 75.8859 178.887C75.8709 178.887 75.8709 178.887 75.8559 178.887C75.2694 178.796 74.6859 178.691 74.0844 178.589C73.8744 178.557 73.6659 178.512 73.4544 178.469C72.6444 178.316 71.8344 178.167 71.0409 177.989C70.8894 177.957 70.7409 177.927 70.5894 177.897C70.0044 177.777 69.4344 177.642 68.8509 177.492C68.6994 177.462 68.5509 177.416 68.3994 177.387C67.9344 177.267 67.4859 177.162 67.0359 177.042C66.5409 176.907 66.061 176.787 65.5795 176.652C65.536 176.637 65.476 176.622 65.4295 176.609C65.2045 176.532 64.9795 176.474 64.7545 176.412C64.411 176.307 64.0645 176.201 63.7345 176.099C62.833 175.826 61.9495 175.542 61.0645 175.244C60.7495 175.139 60.4345 175.032 60.1195 174.912C59.7595 174.792 59.3995 174.672 59.0545 174.537C58.3945 174.297 57.7495 174.057 57.1045 173.802C55.018 172.976 52.9796 172.091 50.9846 171.119C49.9496 170.624 48.9296 170.111 47.9096 169.557C47.6696 169.437 47.4296 169.317 47.1896 169.182C47.0696 169.106 46.9346 169.047 46.8146 168.971C46.2896 168.687 45.7646 168.387 45.2396 168.086C44.8946 167.892 44.5646 167.696 44.2181 167.486C43.9946 167.369 43.7846 167.231 43.5596 167.096C42.0296 166.182 40.5297 165.221 39.0597 164.187C38.6997 163.962 38.3397 163.707 37.9797 163.452C36.6297 162.494 35.2947 161.486 33.9897 160.452C32.6097 159.357 31.2447 158.202 29.9248 157.019C29.5798 156.702 29.2348 156.389 28.9048 156.072C27.4348 154.722 26.0233 153.327 24.6598 151.889C24.0883 151.289 23.5348 150.687 22.9948 150.072C22.7848 149.847 22.5883 149.639 22.3948 149.414C21.6148 148.529 20.8648 147.63 20.1148 146.712V146.697C19.0049 145.347 17.9398 143.952 16.9349 142.529C16.5599 142.004 16.1849 141.477 15.8249 140.952C15.5699 140.592 15.3299 140.232 15.0899 139.874C14.7464 139.346 14.3999 138.822 14.0699 138.297C13.7549 137.817 13.4699 137.336 13.1699 136.856C12.8699 136.379 12.5699 135.884 12.2849 135.387C11.9399 134.816 11.6249 134.247 11.2949 133.662C10.2449 131.787 9.26841 129.869 8.35492 127.902C5.66994 122.111 3.56997 115.994 2.15999 109.619C2.05499 109.198 1.96348 108.778 1.87498 108.356C1.75499 107.803 1.64998 107.231 1.54499 106.663C0.95849 103.601 0.554991 100.466 0.299993 97.3027C0.268493 96.8512 0.225005 96.4027 0.195006 95.9527C0.0750067 93.9862 0 92.0093 0 89.9993C0 82.9178 0.824996 76.0044 2.36998 69.4044C3.94497 62.698 6.25495 56.2795 9.23993 50.2346C10.7849 47.1146 12.4949 44.0831 14.3849 41.1747C30.4062 16.3949 58.291 0 89.9993 0C114.209 0 136.184 9.55492 152.354 25.1098C160.017 32.4747 166.379 41.1897 171.059 50.8646C171.674 52.1411 172.259 53.4146 172.799 54.7196C177.441 65.545 180.006 77.4699 180.006 89.9948Z"
            fill="#D3E1FF" />
        <path
            d="M176.361 115.405C176.076 116.366 175.774 117.323 175.459 118.285C175.444 118.358 175.416 118.448 175.384 118.525C175.144 119.275 174.874 120.01 174.604 120.745C174.409 121.298 174.198 121.852 173.989 122.408C173.838 122.783 173.689 123.173 173.539 123.548C173.359 124 173.179 124.433 172.984 124.87C172.653 125.678 172.309 126.472 171.949 127.255C170.779 129.833 169.489 132.351 168.064 134.798C168.064 134.813 168.049 134.813 168.049 134.828C165.934 138.504 163.579 142.044 160.968 145.358C160.729 145.674 160.489 145.973 160.234 146.289C159.799 146.828 159.364 147.353 158.914 147.881C157.218 149.919 155.403 151.871 153.528 153.761C151.458 155.814 149.285 157.781 147.018 159.641C145.338 161.021 143.613 162.339 141.828 163.584C141.785 163.616 141.723 163.661 141.678 163.689H141.663C141.347 163.914 141.033 164.141 140.717 164.348C140.418 164.559 140.132 164.754 139.832 164.948C139.548 165.144 139.262 165.338 138.962 165.519C136.428 167.169 133.817 168.683 131.118 170.063C131.087 170.093 131.043 170.106 131.013 170.124C130.878 170.198 130.758 170.259 130.638 170.318C128.733 171.279 126.798 172.178 124.818 173.004C122.793 173.859 120.723 174.639 118.623 175.346C116.403 176.096 114.153 176.741 111.858 177.309C110.928 177.549 109.998 177.761 109.068 177.954L106.488 178.482C104.628 178.826 102.753 179.112 100.847 179.352C97.8919 179.696 94.8784 179.906 91.832 179.967C91.592 179.982 91.367 179.982 91.127 179.982C90.752 179.997 90.377 179.997 90.002 179.997C88.9085 179.997 87.812 179.982 86.732 179.936C86.117 179.921 85.487 179.892 84.872 179.847C84.317 179.816 83.762 179.771 83.207 179.727H83.1921C82.9221 179.712 82.667 179.696 82.382 179.666C82.0386 179.651 81.7071 179.607 81.3621 179.574C81.0321 179.544 80.702 179.516 80.3571 179.472C80.2056 179.472 80.0721 179.454 79.9221 179.426C79.8456 179.426 79.7706 179.411 79.6971 179.396C79.0671 179.337 78.4221 179.261 77.7921 179.171C77.1456 179.079 76.5156 178.992 75.8856 178.887C75.8706 178.887 75.8706 178.887 75.8556 178.887C75.2691 178.796 74.6856 178.691 74.0841 178.589C73.8741 178.557 73.6656 178.512 73.4541 178.469C72.6441 178.316 71.8341 178.167 71.0406 177.989C70.8891 177.957 70.7406 177.927 70.5891 177.897C70.0041 177.777 69.4342 177.642 68.8507 177.492C68.6992 177.462 68.5506 177.416 68.3992 177.387C67.9342 177.267 67.4857 177.162 67.0357 177.042C66.5407 176.907 66.0607 176.787 65.5792 176.652L65.5642 176.637L53.0243 166.017L50.9993 164.292L48.3293 162.027L47.0843 160.976L39.2694 154.346H39.2544L23.1895 140.726L17.0546 135.522L16.9346 135.417C23.593 130.856 29.5345 126.688 34.9194 123.043C57.0743 108.058 70.0342 101.966 86.819 113.893C88.919 115.378 91.199 116.638 93.629 117.658C96.2389 118.798 99.0304 119.683 101.924 120.341C103.724 120.778 105.569 121.106 107.444 121.361H107.459C108.254 121.499 109.035 121.586 109.844 121.663C117.194 122.486 124.98 122.278 132.449 121.586C133.964 121.436 135.48 121.273 136.964 121.091C139.709 120.748 142.394 120.356 144.975 119.936C152.505 118.706 159.18 117.235 164.115 116.156C166.185 115.705 168.39 115.45 170.655 115.345C172.536 115.271 174.441 115.3 176.361 115.405Z"
            fill="url(#paint0_linear_11153_100806)" />
        <path
            d="M177.876 109.555C177.636 110.665 177.366 111.761 177.066 112.853C176.856 113.708 176.616 114.564 176.361 115.404C176.076 116.366 175.774 117.323 175.459 118.284C175.444 118.358 175.416 118.448 175.384 118.524C175.144 119.274 174.874 120.009 174.604 120.744C174.409 121.298 174.198 121.851 173.989 122.408C173.838 122.783 173.689 123.173 173.539 123.548C173.359 123.999 173.179 124.433 172.984 124.869C172.653 125.678 172.309 126.471 171.949 127.254C170.779 129.833 169.489 132.351 168.064 134.798C168.064 134.813 168.049 134.813 168.049 134.828C165.934 138.504 163.579 142.044 160.968 145.358C160.729 145.674 160.489 145.973 160.234 146.289C159.799 146.828 159.364 147.353 158.914 147.881C157.218 149.919 155.403 151.871 153.528 153.761C151.458 155.814 149.284 157.781 147.018 159.641C145.338 161.021 143.613 162.339 141.828 163.584C141.784 163.616 141.723 163.661 141.678 163.689H141.663C141.346 163.914 141.033 164.141 140.716 164.348C140.418 164.559 140.131 164.754 139.831 164.948C139.548 165.144 139.261 165.338 138.961 165.519C136.428 167.169 133.816 168.683 131.118 170.063C131.087 170.093 131.043 170.106 131.013 170.124C130.878 170.198 130.758 170.259 130.638 170.318C128.733 171.279 126.798 172.178 124.818 173.004C122.793 173.859 120.723 174.639 118.623 175.345C116.403 176.095 114.153 176.74 111.858 177.309C110.928 177.549 109.998 177.76 109.068 177.954L106.488 178.482C104.628 178.825 102.753 179.112 100.847 179.352C97.8918 179.695 94.8783 179.905 91.8318 179.967C91.5918 179.982 91.3668 179.982 91.1268 179.982C90.7518 179.997 90.3768 179.997 90.0018 179.997C88.9083 179.997 87.8118 179.982 86.7319 179.935C86.1169 179.92 85.4869 179.892 84.8719 179.847C84.3169 179.815 83.7619 179.785 83.1919 179.742C82.9219 179.727 82.6519 179.695 82.3819 179.665C82.0384 179.65 81.7069 179.607 81.3619 179.574C81.0319 179.544 80.6869 179.515 80.3569 179.485C80.2054 179.47 80.0719 179.454 79.9219 179.424C79.8454 179.424 79.7704 179.409 79.6969 179.409C79.0519 179.335 78.4219 179.259 77.7919 179.169C77.1454 179.077 76.5155 178.99 75.8855 178.885C75.8705 178.885 75.8705 178.885 75.8555 178.885C75.269 178.794 74.6855 178.689 74.084 178.587C73.874 178.555 73.6655 178.51 73.454 178.467C72.644 178.314 71.834 178.165 71.0405 177.987C70.889 177.955 70.7405 177.925 70.589 177.895C70.004 177.775 69.434 177.64 68.8505 177.49C68.699 177.46 68.5505 177.414 68.399 177.385C67.934 177.265 67.4855 177.16 67.0355 177.04C66.5405 176.905 66.0605 176.785 65.579 176.65L65.564 176.635C65.519 176.62 65.474 176.62 65.429 176.605C65.204 176.529 64.979 176.47 64.754 176.409C64.4105 176.304 64.0641 176.197 63.7341 176.095C62.8326 175.822 61.9491 175.539 61.0641 175.24C60.7491 175.135 60.4341 175.029 60.1191 174.909C59.7591 174.789 59.3991 174.669 59.0541 174.534C58.3941 174.294 57.7491 174.054 57.1041 173.799C55.0176 172.972 52.9791 172.088 50.9842 171.116C49.9492 170.621 48.9292 170.108 47.9092 169.554C47.6692 169.434 47.4292 169.314 47.1892 169.179C47.0692 169.103 46.9342 169.044 46.8142 168.968C46.2892 168.684 45.7642 168.384 45.2392 168.083C44.8942 167.889 44.5642 167.693 44.2177 167.483C43.9942 167.366 43.7842 167.228 43.5592 167.093C42.0292 166.179 40.5292 165.218 39.0592 164.184C38.6992 163.959 38.3392 163.704 37.9793 163.449C36.6293 162.491 35.2943 161.483 33.9893 160.449C32.6093 159.354 31.2443 158.199 29.9243 157.016C29.5793 156.699 29.2343 156.386 28.9043 156.069C27.4344 154.719 26.0229 153.324 24.6594 151.886C24.0879 151.286 23.5344 150.684 22.9944 150.069C22.7844 149.844 22.5879 149.636 22.3944 149.411C21.6144 148.526 20.8644 147.627 20.1144 146.709V146.694C19.0044 145.344 17.9394 143.949 16.9344 142.526C16.5594 142.001 16.1844 141.474 15.8244 140.949C15.5695 140.589 15.3294 140.229 15.0894 139.871C14.7459 139.343 14.3995 138.819 14.0695 138.294C13.7545 137.814 13.4695 137.333 13.1695 136.853C12.8695 136.376 12.5695 135.881 12.2845 135.384C11.9395 134.813 11.6245 134.244 11.2945 133.659C10.2445 131.784 9.26798 129.866 8.35449 127.899C17.9529 123.443 26.2179 121.688 34.9193 123.039C43.6042 124.389 52.7076 128.858 64.0176 136.853C73.904 143.858 83.4874 147.506 92.4573 148.241H92.4738C94.6323 148.419 96.7488 148.434 98.8488 148.271C98.8638 148.286 98.8638 148.271 98.8638 148.271C99.4623 148.241 100.064 148.179 100.664 148.104C110.444 146.936 119.322 142.136 126.882 134.411C127.182 134.109 127.482 133.796 127.767 133.479C127.992 133.257 128.217 133.016 128.427 132.776C129.312 131.814 130.167 130.796 130.992 129.761C131.397 129.266 131.802 128.756 132.192 128.229C133.857 126.011 135.462 123.641 136.962 121.089C137.428 120.309 137.877 119.501 138.327 118.689C150.394 96.6846 163.761 97.3431 177.876 109.555Z"
            fill="url(#paint1_linear_11153_100806)" />
        <path
            d="M175.386 118.525C175.146 119.275 174.876 120.01 174.606 120.745C174.411 121.298 174.199 121.852 173.991 122.408C173.839 122.783 173.691 123.173 173.541 123.548C173.361 124 173.181 124.433 172.986 124.87C172.654 125.678 172.311 126.472 171.951 127.255C170.781 129.833 169.491 132.351 168.066 134.798C168.066 134.813 168.051 134.813 168.051 134.828C165.936 138.504 163.581 142.044 160.969 145.358C160.731 145.674 160.491 145.973 160.236 146.289C159.801 146.828 159.366 147.353 158.916 147.881C157.219 149.919 155.404 151.871 153.529 153.761C151.459 155.814 149.286 157.781 147.019 159.641C145.339 161.021 143.614 162.339 141.829 163.584C141.786 163.616 141.724 163.661 141.679 163.689H141.664C141.348 163.914 141.034 164.141 140.718 164.348C140.419 164.559 140.133 164.754 139.833 164.948C139.549 165.144 139.263 165.338 138.963 165.519C136.429 167.169 133.818 168.683 131.119 170.063C131.088 170.093 131.044 170.106 131.014 170.124C130.879 170.198 130.759 170.259 130.639 170.318C128.734 171.279 126.799 172.178 124.819 173.004C122.795 173.859 120.725 174.639 118.625 175.346C116.405 176.096 114.155 176.741 111.86 177.309C110.93 177.549 110 177.761 109.07 177.954L106.49 178.482C104.63 178.826 102.755 179.112 100.848 179.352C97.8932 179.696 94.8797 179.906 91.8333 179.967C91.5933 179.982 91.3683 179.982 91.1283 179.982C90.7533 179.997 90.3783 179.997 90.0033 179.997C88.9098 179.997 87.8133 179.982 86.7333 179.936C86.1183 179.921 85.4883 179.892 84.8733 179.847C84.3183 179.816 83.7633 179.786 83.1933 179.742C82.9233 179.727 82.6534 179.696 82.3834 179.666C82.0399 179.651 81.7083 179.607 81.3633 179.574C81.0333 179.544 80.6884 179.516 80.3584 179.486C80.2069 179.471 80.0734 179.454 79.9234 179.424C79.8469 179.424 79.7719 179.409 79.6984 179.409C79.0534 179.336 78.4234 179.259 77.7934 179.169C77.1469 179.078 76.5169 178.991 75.8869 178.886C75.8719 178.886 75.8719 178.886 75.8569 178.886C75.2704 178.794 74.6869 178.689 74.0854 178.587C73.8754 178.556 73.6669 178.511 73.4554 178.467C72.6454 178.314 71.8354 178.166 71.0419 177.987C70.8904 177.956 70.7419 177.926 70.5905 177.896C70.0055 177.776 69.4354 177.641 68.8519 177.491C68.7004 177.461 68.552 177.414 68.4005 177.386C67.9355 177.266 67.487 177.161 67.037 177.041C66.542 176.906 66.062 176.786 65.5805 176.651L65.5655 176.636C65.5205 176.621 65.4755 176.621 65.4305 176.606C65.2055 176.529 64.9805 176.471 64.7555 176.409C64.412 176.304 64.0655 176.198 63.7355 176.096C62.834 175.823 61.9505 175.539 61.0655 175.241C60.7505 175.136 60.4355 175.029 60.1205 174.909C59.7605 174.789 59.4005 174.669 59.0555 174.534C58.3955 174.294 57.7505 174.054 57.1056 173.799C55.0191 172.973 52.9806 172.088 50.9856 171.116C49.9506 170.621 48.9306 170.108 47.9106 169.554C47.6706 169.434 47.4306 169.314 47.1906 169.179C47.0706 169.103 46.9356 169.044 46.8156 168.968C46.2906 168.684 45.7656 168.384 45.2406 168.083C44.8956 167.889 44.5656 167.693 44.2192 167.483C43.9957 167.366 43.7857 167.228 43.5607 167.093C42.0307 166.179 40.5307 165.218 39.0607 164.184C38.7007 163.959 38.3407 163.704 37.9807 163.449C36.6307 162.491 35.2957 161.483 33.9907 160.449C32.6107 159.354 31.2458 158.199 29.9258 157.016C29.5808 156.699 29.2358 156.386 28.9058 156.069C27.4358 154.719 26.0243 153.324 24.6608 151.886C24.0893 151.286 23.5358 150.684 22.9958 150.069C22.7858 149.844 22.5893 149.636 22.3958 149.411C21.6158 148.526 20.8658 147.627 20.1158 146.709V146.694C19.0059 145.344 17.9409 143.949 16.9359 142.526C16.5609 142.001 16.1859 141.474 15.8259 140.949C15.5709 140.589 15.3309 140.229 15.0909 139.871C14.7474 139.343 14.4009 138.819 14.0709 138.294C13.7559 137.814 13.4709 137.333 13.1709 136.853C14.4909 136.343 15.7809 135.894 17.0559 135.519C32.1158 130.928 44.9557 134.348 64.0205 147.848C68.2505 150.848 72.4219 153.218 76.5004 155.019C78.6754 155.978 80.8053 156.774 82.9203 157.404H82.9353C87.7953 158.874 92.5203 159.504 97.0802 159.371C98.6717 159.324 100.245 159.174 101.805 158.934C106.62 158.214 111.21 156.608 115.53 154.223C115.545 154.223 115.545 154.223 115.545 154.208C116.084 153.909 116.61 153.593 117.135 153.264C119.67 151.718 122.115 149.874 124.44 147.774C126.615 145.794 128.7 143.588 130.68 141.159C133.185 138.068 135.523 134.634 137.655 130.871C137.893 130.478 138.105 130.089 138.328 129.684C138.643 129.098 138.975 128.544 139.29 127.991C141.148 124.78 143.055 122.108 144.975 119.935C153.088 110.723 161.685 110.215 170.655 115.343C172.219 116.228 173.796 117.295 175.386 118.525Z"
            fill="url(#paint2_linear_11153_100806)" />
        <path
            d="M168.066 134.799C168.066 134.814 168.051 134.814 168.051 134.829C165.936 138.506 163.581 142.046 160.97 145.359C160.731 145.676 160.491 145.974 160.236 146.291C159.801 146.829 159.366 147.354 158.916 147.882C157.22 149.921 155.405 151.872 153.53 153.762C151.46 155.816 149.286 157.782 147.02 159.642C145.34 161.022 143.615 162.341 141.83 163.586C141.786 163.617 141.725 163.662 141.68 163.691H141.665C141.348 163.916 141.035 164.142 140.718 164.349C140.42 164.561 140.134 164.756 139.834 164.949C139.55 165.146 139.264 165.339 138.964 165.521C136.43 167.171 133.819 168.684 131.12 170.064C131.089 170.094 131.045 170.108 131.015 170.126C130.88 170.199 130.76 170.261 130.64 170.319C128.735 171.281 126.8 172.179 124.82 173.006C122.795 173.86 120.725 174.64 118.625 175.347C116.405 176.097 114.155 176.742 111.86 177.31C110.93 177.55 110 177.762 109.07 177.955L106.49 178.483C104.63 178.827 102.755 179.113 100.849 179.353C97.8939 179.697 94.8804 179.907 91.8339 179.968C91.5939 179.983 91.3689 179.983 91.1289 179.983C90.7539 179.998 90.3789 179.998 90.0039 179.998C88.9104 179.998 87.8139 179.983 86.7339 179.937C86.1189 179.922 85.4889 179.893 84.8739 179.848C84.319 179.817 83.764 179.787 83.194 179.743C82.924 179.728 82.654 179.697 82.384 179.667C82.0405 179.652 81.709 179.608 81.364 179.575C81.034 179.545 80.689 179.517 80.359 179.487C80.134 179.455 79.924 179.44 79.699 179.41C79.054 179.337 78.424 179.26 77.794 179.17C77.1475 179.079 76.5175 178.992 75.8875 178.887C75.8725 178.887 75.8725 178.887 75.8575 178.887C75.0475 178.752 74.2525 178.617 73.456 178.468C72.6461 178.315 71.8361 178.167 71.0426 177.988C70.3076 177.838 69.5726 177.672 68.8526 177.493C68.7011 177.463 68.5526 177.417 68.4011 177.388C67.9361 177.268 67.4876 177.163 67.0376 177.043C66.5426 176.908 66.0626 176.788 65.5811 176.653L65.5661 176.638C65.5211 176.623 65.4761 176.623 65.4311 176.608C65.2061 176.532 64.9811 176.473 64.7561 176.412C64.4126 176.307 64.0661 176.2 63.7361 176.098C62.8346 175.825 61.9511 175.542 61.0662 175.243C60.7512 175.138 60.4362 175.032 60.1212 174.912C59.7612 174.792 59.4012 174.672 59.0562 174.537C58.3962 174.297 57.7512 174.057 57.1062 173.802C55.0197 172.975 52.9812 172.091 50.9862 171.119C49.9512 170.624 48.9312 170.111 47.9113 169.557C47.6713 169.437 47.4313 169.317 47.1913 169.182C47.0713 169.106 46.9363 169.047 46.8163 168.971C46.2913 168.687 45.7663 168.387 45.2413 168.086C44.8963 167.892 44.5663 167.696 44.2198 167.486C43.9963 167.369 43.7863 167.231 43.5613 167.096C42.0313 166.182 40.5313 165.221 39.0613 164.187C38.7013 163.962 38.3413 163.707 37.9813 163.452C36.6314 162.494 35.2964 161.486 33.9914 160.452C32.6114 159.357 31.2464 158.202 29.9264 157.019C29.5814 156.702 29.2364 156.389 28.9064 156.072C27.4364 154.722 26.0249 153.327 24.6615 151.889C24.09 151.289 23.5365 150.687 22.9965 150.072C22.7865 149.847 22.59 149.639 22.3965 149.414C21.6165 148.529 20.8665 147.63 20.1165 146.712V146.697C19.0065 145.347 17.9415 143.952 16.9365 142.529C19.1115 141.674 21.1965 141.072 23.1915 140.727C27.1964 139.995 30.9014 140.189 34.5464 141.072C42.4513 142.977 50.1162 148.047 59.9412 153.779C60.3012 153.987 60.6462 154.169 61.0062 154.347C61.9962 154.842 63.0161 155.217 64.0661 155.487C64.2311 155.549 64.3811 155.592 64.5611 155.625C67.4111 156.299 70.4411 156.255 73.6061 155.684C73.9211 155.625 74.251 155.564 74.566 155.487C74.881 155.429 75.211 155.352 75.526 155.279C75.8575 155.187 76.1725 155.112 76.501 155.024C77.131 154.857 77.761 154.664 78.391 154.467C78.616 154.409 78.826 154.332 79.0375 154.259C79.456 154.106 79.891 153.972 80.326 153.807C80.971 153.567 81.616 153.327 82.276 153.057C82.891 152.817 83.506 152.562 84.136 152.277C84.256 152.231 84.376 152.172 84.496 152.127C85.0509 151.887 85.6059 151.632 86.1609 151.377C87.5409 150.729 88.9494 150.041 90.3759 149.321C91.0659 148.976 91.7559 148.617 92.4609 148.242H92.4774C93.6324 147.627 94.8024 146.997 95.9874 146.349C96.7059 145.959 97.4424 145.569 98.1773 145.166C98.7758 144.834 99.3623 144.507 99.9608 144.176C100.802 143.709 101.657 143.229 102.526 142.767C104.612 141.611 106.727 140.456 108.857 139.331C109.352 139.061 109.846 138.792 110.357 138.537C110.567 138.417 110.776 138.312 110.987 138.206C111.526 137.922 112.067 137.652 112.607 137.382C114.227 136.541 115.862 135.747 117.497 134.979C118.067 134.709 118.637 134.454 119.207 134.199C119.359 134.126 119.522 134.049 119.687 133.974C119.687 133.974 119.687 133.974 119.702 133.974C120.229 133.734 120.752 133.511 121.277 133.286C121.864 133.031 122.447 132.791 123.049 132.551C123.272 132.459 123.484 132.372 123.694 132.296C124.339 132.041 124.984 131.786 125.644 131.546C125.824 131.469 126.004 131.411 126.184 131.349C126.859 131.094 127.549 130.854 128.239 130.631C129.152 130.314 130.069 130.031 130.999 129.761C131.389 129.656 131.794 129.536 132.184 129.429C133.954 128.963 135.739 128.559 137.509 128.261C138.109 128.156 138.694 128.064 139.294 127.991C139.804 127.914 140.314 127.853 140.809 127.809C141.318 127.766 141.828 127.718 142.323 127.674C142.833 127.644 143.343 127.616 143.855 127.598C144.348 127.583 144.843 127.568 145.338 127.568C150.393 127.568 155.448 128.468 160.49 130.614C163.025 131.679 165.546 133.059 168.066 134.799Z"
            fill="url(#paint3_linear_11153_100806)" />
        <path opacity="0.15"
            d="M160.491 130.616C159.965 131.065 158.991 131.17 157.475 130.795C146.751 128.185 133.536 130.54 117.515 137.366C101.495 144.204 89.2403 158.049 75.3054 159.266C61.3556 160.479 56.7506 155.621 46.6707 148.449C41.3442 144.669 37.7608 142.299 34.5508 141.069C42.4557 142.974 50.1207 148.044 59.9456 153.776C83.8119 167.679 122.72 114.593 160.491 130.616Z"
            fill="white" />
        <path
            d="M160.236 146.289C159.801 146.828 159.366 147.353 158.916 147.881C157.22 149.919 155.405 151.871 153.53 153.761C151.46 155.814 149.286 157.781 147.02 159.641C145.34 161.021 143.615 162.339 141.83 163.584C141.786 163.616 141.725 163.661 141.68 163.689H141.665C141.348 163.914 141.035 164.141 140.718 164.348C140.42 164.559 140.133 164.754 139.833 164.948C139.55 165.144 139.263 165.338 138.963 165.519C136.43 167.169 133.818 168.683 131.12 170.063C131.088 170.093 131.045 170.106 131.015 170.124C130.88 170.198 130.76 170.259 130.64 170.318C128.735 171.279 126.8 172.178 124.82 173.004C122.795 173.859 120.725 174.639 118.625 175.346C116.405 176.096 114.155 176.741 111.86 177.309C110.93 177.549 110 177.761 109.07 177.954L106.49 178.482C104.63 178.826 102.755 179.112 100.849 179.352C97.8937 179.696 94.8802 179.906 91.8337 179.967C91.5937 179.982 91.3687 179.982 91.1287 179.982C90.7537 179.997 90.3787 179.997 90.0037 179.997C88.9103 179.997 87.8138 179.982 86.7338 179.936C86.1188 179.921 85.4888 179.892 84.8738 179.847C84.3188 179.816 83.7638 179.786 83.1938 179.742C82.9238 179.727 82.6538 179.696 82.3838 179.666C82.0403 179.651 81.7088 179.607 81.3638 179.574C81.0338 179.544 80.6888 179.516 80.3588 179.486C80.1338 179.454 79.9238 179.439 79.6988 179.409C79.0538 179.336 78.4238 179.259 77.7938 179.169C77.1474 179.078 76.5174 178.991 75.8874 178.886C75.8724 178.886 75.8724 178.886 75.8574 178.886C75.0474 178.751 74.2524 178.616 73.4559 178.467C72.6459 178.314 71.8359 178.166 71.0424 177.987C70.3074 177.837 69.5724 177.671 68.8524 177.492C68.7009 177.462 68.5524 177.416 68.4009 177.387C67.9359 177.267 67.4874 177.162 67.0374 177.042C66.5425 176.907 66.0624 176.787 65.5809 176.652L65.566 176.637C65.521 176.622 65.476 176.622 65.431 176.607C65.206 176.531 64.981 176.472 64.756 176.411C64.4125 176.306 64.066 176.199 63.736 176.097C62.8345 175.824 61.951 175.541 61.066 175.242C60.751 175.137 60.436 175.031 60.121 174.911C59.761 174.791 59.401 174.671 59.056 174.536C58.396 174.296 57.751 174.056 57.106 173.801C55.0195 172.974 52.9811 172.089 50.9861 171.117C49.9511 170.622 48.9311 170.109 47.9111 169.556C47.6711 169.436 47.4311 169.316 47.1911 169.181C47.0711 169.104 46.9361 169.046 46.8161 168.969C46.2911 168.686 45.7661 168.386 45.2411 168.084C44.8961 167.891 44.5661 167.694 44.2196 167.484C43.9961 167.367 43.7861 167.229 43.5611 167.094C42.0311 166.181 40.5312 165.219 39.0612 164.186C38.7012 163.961 38.3412 163.706 37.9812 163.451C36.6312 162.492 35.2962 161.484 33.9912 160.451C32.6112 159.356 31.2462 158.201 29.9263 157.017C29.5813 156.701 29.2362 156.387 28.9062 156.071C33.1212 156.206 37.1112 157.359 41.2047 159.162C43.1996 160.032 45.2096 161.052 47.2811 162.192C47.5946 162.356 47.9261 162.537 48.2411 162.717C49.1561 163.227 50.0711 163.754 51.0011 164.294C51.7196 164.699 52.4411 165.135 53.1911 165.569C55.336 166.829 57.571 168.179 59.941 169.559C64.546 172.245 69.7209 172.439 75.3309 171.102C77.2374 170.654 79.1859 170.039 81.1808 169.274C82.1858 168.884 83.2058 168.477 84.2258 168.029C87.1058 166.784 90.0608 165.299 93.1057 163.692C94.1557 163.139 95.2192 162.552 96.3007 161.967C98.1157 160.995 99.9457 159.972 101.806 158.937C109.066 154.932 116.656 150.779 124.44 147.779C126.54 146.952 128.657 146.232 130.785 145.602C136.514 143.939 142.305 143.054 148.11 143.457C149.325 143.534 150.524 143.669 151.74 143.879H151.755C152.4 143.967 153.045 144.101 153.69 144.254C155.886 144.713 158.061 145.391 160.236 146.289Z"
            fill="url(#paint4_linear_11153_100806)" />
        <path
            d="M168.051 134.829C165.936 138.506 163.581 142.046 160.969 145.359C160.311 146.214 159.621 147.056 158.916 147.882C157.219 149.921 155.404 151.872 153.529 153.762C151.459 155.816 149.286 157.782 147.019 159.642C145.339 161.022 143.614 162.341 141.829 163.586C141.786 163.617 141.724 163.662 141.679 163.691H141.664C141.348 163.916 141.034 164.142 140.718 164.349C140.419 164.561 140.133 164.756 139.833 164.949C139.383 156.131 144.289 156.834 144.289 156.834C144.289 156.834 139.504 150.041 144.679 145.344C149.629 140.859 153.709 145.151 154.054 145.511C153.903 145.121 152.584 141.608 155.014 139.901C157.609 138.069 160.189 140.546 160.189 140.546C160.189 140.546 163.084 135.909 168.051 134.829Z"
            fill="url(#paint5_linear_11153_100806)" />
        <path
            d="M47.917 169.554C47.677 169.434 47.437 169.314 47.197 169.179C46.192 168.641 45.202 168.069 44.227 167.483C42.517 160.194 36.9386 152.304 39.0821 149.439C41.572 146.108 45.592 151.539 47.122 161.108C47.437 163.014 47.632 164.664 47.752 166.088C47.752 166.088 47.752 166.103 47.752 166.134C47.872 167.483 47.917 168.608 47.917 169.554Z"
            fill="url(#paint6_linear_11153_100806)" />
        <path
            d="M52.1452 168.414C51.7403 169.389 51.3653 170.289 50.9903 171.115C49.9553 170.62 48.9353 170.107 47.9153 169.554C47.6753 169.434 47.4353 169.314 47.1953 169.179C47.4053 168.174 47.5853 167.141 47.7503 166.136C47.7503 166.104 47.7503 166.089 47.7503 166.089C48.6053 160.526 48.9203 155.214 51.3203 154.256C55.1617 152.709 55.7917 159.429 52.1452 168.414Z"
            fill="url(#paint7_linear_11153_100806)" />
        <path
            d="M83.1961 179.741C82.2512 179.664 81.3062 179.574 80.3612 179.486C80.1362 179.454 79.9262 179.439 79.7012 179.409C79.9127 178.616 80.1812 177.698 80.5427 176.664C80.9927 175.299 81.5911 173.708 82.3576 171.894C86.1226 162.968 91.3126 158.649 92.9476 162.458C94.4161 165.924 86.3011 172.718 83.1961 179.741Z"
            fill="url(#paint8_linear_11153_100806)" />
        <path
            d="M80.5416 176.664C80.4651 177.596 80.3901 178.539 80.3616 179.485C80.1366 179.454 79.9266 179.439 79.7016 179.409C78.4267 179.259 77.1517 179.095 75.8917 178.884C75.8317 178.524 75.7882 178.164 75.7267 177.789C74.3317 168.189 76.5382 161.814 79.9131 164.228C82.0116 165.761 81.0201 171.024 80.5416 176.664Z"
            fill="url(#paint9_linear_11153_100806)" />
    </g>
    <g filter="url(#filter0_d_11153_100806)">
        <path
            d="M59.9165 123.302L59.3797 122.739C58.494 121.809 58 120.574 58 119.29V68V58C58 55.2386 60.2386 53 63 53H114C116.761 53 119 55.2386 119 58V119.29C119 120.574 118.506 121.809 117.62 122.739L117.053 123.334C115.543 124.92 113.176 125.338 111.214 124.367L105.516 121.546C105.196 121.388 104.817 121.411 104.52 121.608L100.299 124.402C98.8056 125.39 96.8975 125.505 95.2967 124.701L88.9485 121.515C88.6663 121.374 88.3337 121.374 88.0515 121.515L81.6529 124.727C80.0792 125.516 78.2062 125.42 76.7216 124.473L72.2129 121.598C71.9142 121.407 71.5369 121.389 71.2212 121.55L65.8065 124.309C63.8366 125.312 61.4414 124.903 59.9165 123.302Z"
            fill="white" />
    </g>
    <path opacity="0.5" d="M69 60H84.0438H108" stroke="#97B8FF" stroke-width="2"
        stroke-linecap="round" />
    <path opacity="0.5"
        d="M84.3242 98.5373C85.1 95.9446 86.9788 95 89.1735 95C91.3681 95 93.247 95.9446 94.0228 98.5373"
        stroke="#97B8FF" stroke-width="2" stroke-linecap="round" stroke-linejoin="round" />
    <circle opacity="0.5" cx="69.5" cy="80.5" r="2.5" fill="#97B8FF" />
    <circle opacity="0.5" cx="107.5" cy="80.5" r="2.5" fill="#97B8FF" />
</svg>
