<svg width="216" height="180" viewBox="0 0 216 180" fill="none" xmlns="http://www.w3.org/2000/svg">
    <defs>
        <linearGradient id="paint0_linear_8647_73152" x1="-9.70439" y1="105.856" x2="45.6505"
            y2="128.722" gradientUnits="userSpaceOnUse">
            <stop offset="4e-07" stop-color="#C7FFAB" />
            <stop offset="1" stop-color="#83CFD3" />
        </linearGradient>
        <linearGradient id="paint1_linear_8647_73152" x1="41.4768" y1="83.0228" x2="29.1011"
            y2="205.506" gradientUnits="userSpaceOnUse">
            <stop offset="4e-07" stop-color="#C7FFAB" />
            <stop offset="1" stop-color="#83CFD3" />
        </linearGradient>
        <linearGradient id="paint2_linear_8647_73152" x1="108.125" y1="96" x2="108.125" y2="158"
            gradientUnits="userSpaceOnUse">
            <stop stop-color="white" />
            <stop offset="1" stop-color="white" stop-opacity="0" />
        </linearGradient>
        <linearGradient id="paint3_linear_8647_73152" x1="181.625" y1="96" x2="181.625" y2="158"
            gradientUnits="userSpaceOnUse">
            <stop stop-color="white" />
            <stop offset="1" stop-color="white" stop-opacity="0" />
        </linearGradient>
        <linearGradient id="paint4_linear_8647_73152" x1="120.252" y1="70.5624" x2="132.873"
            y2="70.5624" gradientUnits="userSpaceOnUse">
            <stop offset="8.1e-07" stop-color="#FF5467" />
            <stop offset="1" stop-color="#FF6A83" />
        </linearGradient>
        <linearGradient id="paint5_linear_8647_73152" x1="120.25" y1="70.5624" x2="132.871"
            y2="70.5624" gradientUnits="userSpaceOnUse">
            <stop offset="8.1e-07" stop-color="#FF5467" />
            <stop offset="1" stop-color="#FF6A83" />
        </linearGradient>
        <linearGradient id="paint6_linear_8647_73152" x1="127.203" y1="53.9086" x2="126.746"
            y2="142.538" gradientUnits="userSpaceOnUse">
            <stop stop-color="white" />
            <stop offset="1" stop-color="white" stop-opacity="0" />
        </linearGradient>
    </defs>
    <circle opacity="0.3" cx="126" cy="90" r="90" fill="#97B8FF" />
    <path
        d="M65.9776 152.342C65.9114 154.275 65.7292 155.812 65.4311 157C65.1992 156.754 64.984 156.521 64.7687 156.273C63.9075 155.298 63.0795 154.308 62.2515 153.3V153.282C58.5933 148.804 55.3293 143.995 52.514 138.921C48.5561 133.386 41.9981 129.917 34.8109 127.123C32.0785 126.05 29.2466 125.092 26.4479 124.148C16.2964 120.727 6.40987 117.621 2.05448 111.257C-6.14291 99.2116 11.6098 93.5765 30.2072 102.07C32.4925 103.093 34.7778 104.349 37.0466 105.822C37.6262 106.185 38.2058 106.582 38.7854 106.995C39.8122 107.722 40.7892 108.449 41.7497 109.175C57.0516 120.843 64.1891 132.772 65.6961 145.53C65.961 147.781 66.0455 150.045 65.9776 152.342Z"
        fill="url(#paint0_linear_8647_73152)" />
    <path opacity="0.15"
        d="M65.9775 152.251C65.9109 154.222 65.7276 155.789 65.4278 157C65.1946 156.749 64.9781 156.511 64.7616 156.259C63.8954 155.265 63.0626 154.256 62.2298 153.228V153.209C58.5505 148.644 55.2675 143.741 52.436 138.569C48.4551 132.925 41.2288 129.849 34 127C39.6298 119.875 39.8611 109.456 31 102.5C33.2986 103.543 35.2181 104.499 37.5 106C38.083 106.371 39.417 107.822 40 108.243C41.0327 108.984 40.6433 107.503 41.6094 108.243C56.9998 120.139 64.1786 132.301 65.6943 145.308C65.9608 147.601 66.0458 149.909 65.9775 152.251Z"
        fill="black" />
    <path opacity="0.15" d="M13 107C13 107 45.4222 111.158 53 128" stroke="black"
        stroke-miterlimit="10" />
    <path
        d="M67.8865 130.402C67.5958 135.612 66.5781 140.561 64.9142 145.292C63.9934 147.923 62.8626 150.485 61.5542 153C57.9857 148.546 54.8018 143.764 52.0556 138.718C52.7341 129.285 48.3402 120.592 42.2178 112.375C40.5701 110.156 38.8093 107.954 36.9677 105.801C29.2461 96.6962 20.4744 88.0679 15.6767 79.5218C13.8836 76.3663 12.6397 73.2109 12.2036 70.0554C9.92583 53.9987 27.1945 54.5574 42.4439 68.3117C47.4032 72.7671 52.1363 78.5998 55.9164 85.7161C61.3926 96.0223 64.898 105.405 66.6265 114.05C67.3534 117.552 67.7735 120.919 67.9189 124.19C68.0319 126.294 68.0319 128.366 67.8865 130.402Z"
        fill="url(#paint1_linear_8647_73152)" />
    <path opacity="0.15" d="M29 69C40.5584 80.9232 68.6466 107.092 57.389 146" stroke="black"
        stroke-miterlimit="10" />
    <path opacity="0.25"
        d="M67.4913 114.194C67.6718 116.533 67.8359 118.809 68 121C61.8463 97.0415 45.2397 72.0813 33.1457 65.6374C21.1173 59.2132 12.3561 67.3345 15.7349 79.5765C13.9134 76.413 12.6498 73.2495 12.2068 70.086C9.893 53.9885 27.435 54.5487 42.9259 68.3379C47.9637 72.8046 52.7717 78.6521 56.6116 85.7864C62.1745 96.1188 65.7355 105.527 67.4913 114.194Z"
        fill="white" />
    <path d="M53 102.458L89.75 96V151.542L53 158V102.458Z" fill="#F3F6FD" />
    <g opacity="0.9">
        <path d="M89.75 96L126.5 102.458V158L89.75 151.542V96Z" fill="#C0D4FF" />
        <path d="M89.75 96L126.5 102.458V158L89.75 151.542V96Z"
            fill="url(#paint2_linear_8647_73152)" fill-opacity="0.7" />
    </g>
    <path d="M126.5 102.458L163.25 96V151.542L126.5 158V102.458Z" fill="#F3F6FD" />
    <g opacity="0.9">
        <path d="M163.25 96L200 102.458V158L163.25 151.542V96Z" fill="#C0D4FF" />
        <path d="M163.25 96L200 102.458V158L163.25 151.542V96Z"
            fill="url(#paint3_linear_8647_73152)" fill-opacity="0.7" />
    </g>
    <circle cx="126.5" cy="70.5" r="18.5" fill="white" />
    <path fill-rule="evenodd" clip-rule="evenodd"
        d="M120.294 64.2928C120.685 63.9023 121.318 63.9024 121.709 64.2929L132.831 75.4165C133.221 75.807 133.221 76.4402 132.831 76.8307C132.44 77.2212 131.807 77.2211 131.416 76.8306L120.294 65.7071C119.904 65.3165 119.904 64.6833 120.294 64.2928Z"
        fill="url(#paint4_linear_8647_73152)" />
    <path fill-rule="evenodd" clip-rule="evenodd"
        d="M132.828 64.2928C133.218 64.6833 133.218 65.3164 132.828 65.707L121.707 76.8305C121.317 77.2211 120.684 77.2212 120.293 76.8307C119.902 76.4403 119.902 75.8071 120.293 75.4165L131.413 64.293C131.804 63.9024 132.437 63.9023 132.828 64.2928Z"
        fill="url(#paint5_linear_8647_73152)" />
    <path fill-rule="evenodd" clip-rule="evenodd"
        d="M166.492 70.8121C166.492 77.585 164.798 83.9622 161.811 89.5431H161.924L161.236 90.5801C160.38 92.0691 159.431 93.4975 158.397 94.8572L126.75 142.538L95.1021 94.8658C94.0644 93.5028 93.1129 92.0708 92.2554 90.5778L91.5686 89.5431H91.6816C88.6941 83.9622 87 77.585 87 70.8121C87 48.8609 104.795 31.0659 126.746 31.0659C148.697 31.0659 166.492 48.8609 166.492 70.8121ZM126.746 86.802C136.082 86.802 143.65 79.2341 143.65 69.8985C143.65 60.5629 136.082 52.9949 126.746 52.9949C117.411 52.9949 109.843 60.5629 109.843 69.8985C109.843 79.2341 117.411 86.802 126.746 86.802Z"
        fill="#F87777" />
    <path fill-rule="evenodd" clip-rule="evenodd"
        d="M166.492 70.8121C166.492 77.585 164.798 83.9622 161.811 89.5431H161.924L161.236 90.5801C160.38 92.0691 159.431 93.4975 158.397 94.8572L126.75 142.538L95.1021 94.8658C94.0644 93.5028 93.1129 92.0708 92.2554 90.5778L91.5686 89.5431H91.6816C88.6941 83.9622 87 77.585 87 70.8121C87 48.8609 104.795 31.0659 126.746 31.0659C148.697 31.0659 166.492 48.8609 166.492 70.8121ZM126.746 86.802C136.082 86.802 143.65 79.2341 143.65 69.8985C143.65 60.5629 136.082 52.9949 126.746 52.9949C117.411 52.9949 109.843 60.5629 109.843 69.8985C109.843 79.2341 117.411 86.802 126.746 86.802Z"
        fill="url(#paint6_linear_8647_73152)" fill-opacity="0.5" />
</svg>
