<svg width="273" height="197" viewBox="0 0 273 197" fill="none" xmlns="http://www.w3.org/2000/svg">
    <defs>
        <filter id="filter0_d_9487_90517" x="126.584" y="46.5845" width="122.535" height="106.464"
            filterUnits="userSpaceOnUse" color-interpolation-filters="sRGB">
            <feFlood flood-opacity="0" result="BackgroundImageFix" />
            <feColorMatrix in="SourceAlpha" type="matrix"
                values="0 0 0 0 0 0 0 0 0 0 0 0 0 0 0 0 0 0 127 0" result="hardAlpha" />
            <feOffset dx="2" dy="2" />
            <feGaussianBlur stdDeviation="2" />
            <feColorMatrix type="matrix"
                values="0 0 0 0 0.298039 0 0 0 0 0.521569 0 0 0 0 1 0 0 0 0.18 0" />
            <feBlend mode="normal" in2="BackgroundImageFix"
                result="effect1_dropShadow_9487_90517" />
            <feBlend mode="normal" in="SourceGraphic" in2="effect1_dropShadow_9487_90517"
                result="shape" />
        </filter>
        <linearGradient id="paint0_linear_9487_90517" x1="132" y1="120.891" x2="221" y2="119.891"
            gradientUnits="userSpaceOnUse">
            <stop stop-color="#FFC8C8" />
            <stop offset="1" stop-color="#F87777" stop-opacity="0.2" />
        </linearGradient>
        <linearGradient id="paint1_linear_9487_90517" x1="129.349" y1="176.286" x2="143.073"
            y2="122.391" gradientUnits="userSpaceOnUse">
            <stop stop-color="white" stop-opacity="0" />
            <stop offset="1" stop-color="white" />
        </linearGradient>
        <linearGradient id="paint2_linear_9487_90517" x1="-0.70439" y1="113.856" x2="54.6505"
            y2="136.722" gradientUnits="userSpaceOnUse">
            <stop offset="4e-07" stop-color="#C7FFAB" />
            <stop offset="1" stop-color="#83CFD3" />
        </linearGradient>
        <linearGradient id="paint3_linear_9487_90517" x1="50.4768" y1="91.0228" x2="38.1011"
            y2="213.506" gradientUnits="userSpaceOnUse">
            <stop offset="4e-07" stop-color="#C7FFAB" />
            <stop offset="1" stop-color="#83CFD3" />
        </linearGradient>
        <linearGradient id="paint4_linear_9487_90517" x1="145.751" y1="156.612" x2="202.456"
            y2="228.309" gradientUnits="userSpaceOnUse">
            <stop offset="0.0045" stop-color="#FFDEC7" />
            <stop offset="1" stop-color="#FF97AB" />
        </linearGradient>
        <linearGradient id="paint5_linear_9487_90517" x1="144.315" y1="233.784" x2="149.378"
            y2="163.164" gradientUnits="userSpaceOnUse">
            <stop offset="0.0045" stop-color="#FFC7D7" />
            <stop offset="1" stop-color="#FFBDBA" />
        </linearGradient>
        <linearGradient id="paint6_linear_9487_90517" x1="173.224" y1="120.661" x2="93.2911"
            y2="120.661" gradientUnits="userSpaceOnUse">
            <stop stop-color="#4C84FF" />
            <stop offset="1" stop-color="#925EFF" />
        </linearGradient>
        <linearGradient id="paint7_linear_9487_90517" x1="93.2184" y1="87.6812" x2="323.093"
            y2="280.529" gradientUnits="userSpaceOnUse">
            <stop offset="2.7e-07" stop-color="white" />
            <stop offset="1" stop-color="#97B8FF" />
        </linearGradient>
        <linearGradient id="paint8_linear_9487_90517" x1="116.698" y1="83.7137" x2="111.699"
            y2="69.3613" gradientUnits="userSpaceOnUse">
            <stop offset="2.7e-07" stop-color="#4C85FF" />
            <stop offset="1" stop-color="#A6C2FF" />
        </linearGradient>
        <linearGradient id="paint9_linear_9487_90517" x1="124.456" y1="91.2373" x2="117.403"
            y2="70.9866" gradientUnits="userSpaceOnUse">
            <stop offset="2.7e-07" stop-color="#4C85FF" />
            <stop offset="1" stop-color="#97B8FF" />
        </linearGradient>
        <linearGradient id="paint10_linear_9487_90517" x1="130.23" y1="127.643" x2="109.848"
            y2="69.1156" gradientUnits="userSpaceOnUse">
            <stop offset="2.7e-07" stop-color="#4C85FF" />
            <stop offset="1" stop-color="#97B8FF" />
        </linearGradient>
        <linearGradient id="paint11_linear_9487_90517" x1="126.82" y1="148.491" x2="112.706"
            y2="107.963" gradientUnits="userSpaceOnUse">
            <stop offset="2.7e-07" stop-color="#4C85FF" />
            <stop offset="1" stop-color="#A6C2FF" />
        </linearGradient>
        <linearGradient id="paint12_linear_9487_90517" x1="142.16" y1="108.759" x2="153.678"
            y2="144.223" gradientUnits="userSpaceOnUse">
            <stop offset="4e-07" stop-color="#C7FFAB" />
            <stop offset="1" stop-color="#83CFD3" />
        </linearGradient>
        <linearGradient id="paint13_linear_9487_90517" x1="129.229" y1="171.447" x2="115.114"
            y2="130.916" gradientUnits="userSpaceOnUse">
            <stop offset="2.7e-07" stop-color="#4C85FF" />
            <stop offset="1" stop-color="#A6C2FF" />
        </linearGradient>
        <linearGradient id="paint14_linear_9487_90517" x1="156.957" y1="168.537" x2="142.841"
            y2="128.006" gradientUnits="userSpaceOnUse">
            <stop offset="2.7e-07" stop-color="#4C85FF" />
            <stop offset="1" stop-color="#A6C2FF" />
        </linearGradient>
        <linearGradient id="paint15_linear_9487_90517" x1="167.534" y1="138.976" x2="240.144"
            y2="230.782" gradientUnits="userSpaceOnUse">
            <stop stop-color="#FFDFC7" />
            <stop offset="1" stop-color="#FF9797" />
        </linearGradient>
        <linearGradient id="paint16_linear_9487_90517" x1="156.131" y1="143.094" x2="157.463"
            y2="124.507" gradientUnits="userSpaceOnUse">
            <stop offset="0.0045" stop-color="white" />
            <stop offset="1" stop-color="#FFEEF2" />
        </linearGradient>
        <linearGradient id="paint17_linear_9487_90517" x1="166.227" y1="179.633" x2="162.663"
            y2="128.694" gradientUnits="userSpaceOnUse">
            <stop offset="0.0045" stop-color="#FFC7D7" />
            <stop offset="1" stop-color="#FFCBBA" />
        </linearGradient>
    </defs>
    <path
        d="M246 98.4984C246 113.042 242.848 126.85 237.184 139.278C233.967 146.37 229.912 153.019 225.167 159.093C224.447 160.029 223.692 160.948 222.918 161.851C221.063 164.082 219.077 166.218 217.025 168.287C214.759 170.536 212.379 172.686 209.9 174.722C208.061 176.233 206.173 177.679 204.22 179.041C204.171 179.074 204.105 179.122 204.056 179.155H204.038C203.693 179.399 203.348 179.647 203.004 179.877C202.363 180.32 201.739 180.746 201.083 181.156C198.275 182.978 195.371 184.671 192.382 186.196C192.234 186.278 192.103 186.344 191.972 186.409C189.887 187.46 187.769 188.445 185.602 189.348C181.038 191.269 176.294 192.863 171.418 194.06C170.4 194.322 169.382 194.552 168.365 194.766L165.541 195.342C160.337 196.31 154.969 196.869 149.5 196.967C148.827 197 148.171 197 147.498 197C146.299 197 145.101 196.984 143.919 196.934C143.246 196.916 142.556 196.885 141.883 196.836C131.212 196.245 120.985 193.945 111.496 190.22C106.325 188.184 101.367 185.722 96.672 182.881C94.9975 181.88 93.3558 180.829 91.747 179.697C91.353 179.452 90.959 179.171 90.565 178.892C89.0875 177.841 87.6264 176.741 86.1982 175.609C84.6879 174.412 83.194 173.146 81.751 171.849C79.0915 169.452 76.5469 166.924 74.1665 164.248C73.9367 164.004 73.7233 163.772 73.5099 163.526C72.6562 162.557 71.8354 161.574 71.0146 160.572V160.554C67.3882 156.105 64.1525 151.328 61.3616 146.288C56.8307 138.147 53.4325 129.313 51.364 119.973C51.2491 119.514 51.1506 119.052 51.0521 118.594C50.9207 117.985 50.8058 117.363 50.6909 116.738C50.0507 113.39 49.6074 109.959 49.3284 106.493C49.1149 103.852 49 101.192 49 98.5C49 90.7495 49.9029 83.183 51.5938 75.9595C54.204 64.8141 58.7022 54.3877 64.7434 45.0629C82.2763 17.9421 112.795 0 147.499 0C186.554 0 220.29 22.7211 236.214 55.6698C242.487 68.6195 246 83.1485 246 98.4984Z"
        fill="#D3E1FF" />
    <g filter="url(#filter0_d_9487_90517)">
        <rect x="124" y="93.3906" width="105" height="66" rx="13"
            transform="rotate(-28.0594 124 93.3906)" fill="#F87777" />
        <rect x="124" y="93.3906" width="105" height="66" rx="13"
            transform="rotate(-28.0594 124 93.3906)" fill="url(#paint0_linear_9487_90517)" />
    </g>
    <rect opacity="0.6" x="143.469" y="102.277" width="16" height="12" rx="6"
        transform="rotate(-28.0594 143.469 102.277)" fill="white" />
    <rect opacity="0.6" x="157.11" y="127.869" width="16" height="4" rx="2"
        transform="rotate(-28.0594 157.11 127.869)" fill="white" />
    <rect opacity="0.6" x="176.524" y="117.52" width="16" height="4" rx="2"
        transform="rotate(-28.0594 176.524 117.52)" fill="white" />
    <rect opacity="0.6" x="195.938" y="107.172" width="16" height="4" rx="2"
        transform="rotate(-28.0594 195.938 107.172)" fill="white" />
    <rect opacity="0.6" x="215.352" y="96.8232" width="16" height="4" rx="2"
        transform="rotate(-28.0594 215.352 96.8232)" fill="white" />
    <path
        d="M237 139.499C233.78 146.564 229.722 153.187 224.974 159.238C224.253 160.171 223.497 161.086 222.723 161.986C220.867 164.208 218.879 166.336 216.825 168.397C214.558 170.637 212.176 172.78 209.695 174.808C207.855 176.312 205.966 177.753 204.011 179.11C203.961 179.143 203.896 179.19 203.846 179.223H203.828C203.483 179.467 203.138 179.714 202.793 179.943C202.153 180.384 201.528 180.808 200.871 181.217C198.062 183.032 195.155 184.718 192.164 186.237C192.016 186.319 191.884 186.385 191.753 186.45C189.666 187.497 187.547 188.478 185.378 189.377C180.811 191.291 176.063 192.879 171.184 194.071C170.165 194.333 169.147 194.562 168.128 194.774L165.302 195.348C160.094 196.313 154.722 196.869 149.25 196.967C148.576 197 147.919 197 147.245 197C146.046 197 144.847 196.984 143.664 196.935C142.99 196.917 142.3 196.886 141.627 196.836C130.948 196.248 120.712 193.956 111.217 190.246C106.041 188.218 101.08 185.765 96.3811 182.936C94.7054 181.938 93.0625 180.891 91.4525 179.763C91.0582 179.519 90.6639 179.239 90.2696 178.961C88.791 177.915 87.3288 176.819 85.8995 175.691C84.388 174.498 82.893 173.238 81.4489 171.946C78.5393 169.345 75.7808 166.583 73.1998 163.654C62.1596 151.145 54.2573 135.819 50.725 118.895C49.9036 114.953 49.3286 110.929 49 106.84C60.566 101.492 76.5678 107.43 80.6258 129.541C97.1369 115.395 141.446 113.481 143.056 149.675C160.323 133.27 202.742 148.773 205.634 162.266C211.372 149.508 224.333 140.678 237 139.499Z"
        fill="url(#paint1_linear_9487_90517)" />
    <path
        d="M74.9776 160.342C74.9114 162.275 74.7292 163.812 74.4311 165C74.1992 164.754 73.984 164.521 73.7687 164.273C72.9075 163.298 72.0795 162.308 71.2515 161.3V161.282C67.5933 156.804 64.3293 151.995 61.514 146.921C57.5561 141.386 50.9981 137.917 43.8109 135.123C41.0785 134.05 38.2466 133.092 35.4479 132.148C25.2964 128.727 15.4099 125.621 11.0545 119.257C2.85709 107.212 20.6098 101.577 39.2072 110.07C41.4925 111.093 43.7778 112.349 46.0466 113.822C46.6262 114.185 47.2058 114.582 47.7854 114.995C48.8122 115.722 49.7892 116.449 50.7497 117.175C66.0516 128.843 73.1891 140.772 74.6961 153.53C74.961 155.781 75.0455 158.045 74.9776 160.342Z"
        fill="url(#paint2_linear_9487_90517)" />
    <path opacity="0.15"
        d="M74.9775 160.251C74.9109 162.222 74.7276 163.789 74.4278 165C74.1946 164.749 73.9781 164.511 73.7616 164.259C72.8954 163.265 72.0626 162.256 71.2298 161.228V161.209C67.5505 156.644 64.2675 151.741 61.436 146.569C57.4551 140.925 50.2288 137.849 43 135C48.6298 127.875 48.8611 117.456 40 110.5C42.2986 111.543 44.2181 112.499 46.5 114C47.083 114.371 48.417 115.822 49 116.243C50.0327 116.984 49.6433 115.503 50.6094 116.243C65.9998 128.139 73.1786 140.301 74.6943 153.308C74.9608 155.601 75.0458 157.909 74.9775 160.251Z"
        fill="black" />
    <path opacity="0.15" d="M22 115C22 115 54.4222 119.158 62 136" stroke="black"
        stroke-miterlimit="10" />
    <path
        d="M76.8865 138.402C76.5958 143.612 75.5781 148.561 73.9142 153.292C72.9934 155.923 71.8626 158.485 70.5542 161C66.9857 156.546 63.8018 151.764 61.0556 146.718C61.7341 137.285 57.3402 128.592 51.2178 120.375C49.5701 118.156 47.8093 115.954 45.9677 113.801C38.2461 104.696 29.4744 96.0679 24.6767 87.5218C22.8836 84.3663 21.6397 81.2109 21.2036 78.0554C18.9258 61.9987 36.1945 62.5574 51.4439 76.3117C56.4032 80.7671 61.1363 86.5998 64.9164 93.7161C70.3926 104.022 73.898 113.405 75.6265 122.05C76.3534 125.552 76.7735 128.919 76.9189 132.19C77.0319 134.294 77.0319 136.366 76.8865 138.402Z"
        fill="url(#paint3_linear_9487_90517)" />
    <path opacity="0.15" d="M38 77C49.5584 88.9232 77.6466 115.092 66.389 154" stroke="black"
        stroke-miterlimit="10" />
    <path opacity="0.25"
        d="M76.4913 122.194C76.6718 124.533 76.8359 126.809 77 129C70.8463 105.042 54.2397 80.0813 42.1457 73.6374C30.1173 67.2132 21.3561 75.3345 24.7349 87.5765C22.9134 84.413 21.6498 81.2495 21.2068 78.086C18.893 61.9885 36.435 62.5487 51.9259 76.3379C56.9637 80.8046 61.7717 86.6521 65.6116 93.7864C71.1745 104.119 74.7355 113.527 76.4913 122.194Z"
        fill="white" />
    <path
        d="M202.342 178.939C201.997 179.184 201.653 179.432 201.308 179.662C200.667 180.105 200.043 180.53 199.387 180.941C196.579 182.763 193.674 184.456 190.684 185.982C190.536 186.064 190.405 186.13 190.273 186.195C188.188 187.246 186.07 188.232 183.902 189.135C179.337 191.056 174.592 192.65 169.715 193.847C168.697 194.11 167.679 194.34 166.66 194.553L163.836 195.13C158.631 196.099 153.261 196.657 147.792 196.755C147.118 196.788 146.462 196.788 145.788 196.788C144.59 196.788 143.391 196.772 142.209 196.723C138.594 193.718 132.931 188.791 128.627 183.997C126.509 181.647 124.719 179.333 123.635 177.281C123.323 176.704 123.061 176.162 122.88 175.639L158.857 165.637C159.038 165.637 165.146 165.803 171.041 165.967C171.304 165.967 171.567 165.983 171.828 165.983C172.501 166 173.16 166.016 173.798 166.031C173.913 166.031 174.03 166.047 174.127 166.047C175.178 166.082 176.179 166.098 177.083 166.131C179.956 166.213 181.992 166.262 181.992 166.262L199.809 177.1L202.272 178.89L202.342 178.939Z"
        fill="url(#paint4_linear_9487_90517)" />
    <path
        d="M174.035 175.474C173.196 182.19 170.57 187.97 169.716 193.849C168.698 194.112 167.68 194.342 166.662 194.555L163.838 195.131C158.633 196.1 153.263 196.658 147.793 196.757C147.12 196.79 146.463 196.79 145.79 196.79C144.591 196.79 143.393 196.773 142.21 196.724C138.596 193.719 132.933 188.793 128.629 183.998C126.511 181.648 124.721 179.335 123.637 177.282C123.325 176.706 123.062 176.164 122.882 175.64L158.859 165.638C159.04 165.638 165.148 165.804 171.043 165.968C171.306 165.968 171.569 165.985 171.83 165.985L173.917 166.494C174.446 169.711 174.411 172.668 174.035 175.474Z"
        fill="url(#paint5_linear_9487_90517)" />
    <path
        d="M167.887 179.878L110.856 185.862C106.647 186.305 102.877 183.249 102.435 179.041L91.0425 70.4469C90.6008 66.2383 93.655 62.4681 97.8635 62.0264L154.895 56.0428C159.104 55.5994 162.874 58.6536 163.316 62.8638L174.708 171.458C175.15 175.668 172.098 179.438 167.887 179.878Z"
        fill="url(#paint6_linear_9487_90517)" />
    <path
        d="M164.871 172.959L112.37 178.466C108.581 178.864 105.187 176.115 104.79 172.328L94.7389 76.5258C94.3415 72.736 97.0903 69.3435 100.878 68.9461L153.382 63.4387C157.171 63.0429 160.564 65.7917 160.961 69.5783L171.011 165.381C171.41 169.169 168.661 172.561 164.871 172.959Z"
        fill="url(#paint7_linear_9487_90517)" />
    <path opacity="0.25"
        d="M122.545 78.0956L106.701 79.7591C105.78 79.8559 104.956 79.186 104.857 78.2664C104.76 77.3452 105.428 76.5209 106.35 76.4224L122.194 74.7607C123.115 74.6638 123.939 75.3321 124.036 76.2533C124.135 77.1761 123.466 77.9988 122.545 78.0956Z"
        fill="url(#paint8_linear_9487_90517)" />
    <path opacity="0.25"
        d="M135.634 82.3092L107.281 85.2846C106.359 85.3815 105.535 84.7132 105.437 83.792C105.34 82.8691 106.008 82.0465 106.929 81.9496L135.283 78.9742C136.204 78.8773 137.028 79.5472 137.125 80.4668C137.225 81.3863 136.554 82.2123 135.634 82.3092Z"
        fill="url(#paint9_linear_9487_90517)" />
    <path opacity="0.25"
        d="M149.785 111.216L115.033 114.789C112.085 115.099 109.443 112.96 109.135 110.01L107.591 95.2894C107.28 92.3419 109.419 89.7026 112.367 89.3944L147.119 85.8194C150.067 85.5111 152.707 87.6477 153.017 90.6L154.561 105.319C154.872 108.269 152.733 110.908 149.785 111.216Z"
        fill="url(#paint10_linear_9487_90517)" />
    <path opacity="0.25"
        d="M126.49 138.522L116.296 139.591C114.255 139.804 112.427 138.325 112.212 136.282L111.143 126.088C110.93 124.047 112.409 122.219 114.452 122.004L124.646 120.937C126.687 120.722 128.514 122.203 128.729 124.244L129.798 134.44C130.012 136.477 128.532 138.307 126.49 138.522Z"
        fill="url(#paint11_linear_9487_90517)" />
    <path
        d="M154.217 135.612L144.023 136.681C141.982 136.894 140.155 135.415 139.941 133.372L138.871 123.178C138.657 121.137 140.137 119.31 142.181 119.094L152.375 118.027C154.416 117.812 156.244 119.293 156.457 121.334L157.526 131.53C157.741 133.569 156.258 135.397 154.217 135.612Z"
        fill="url(#paint12_linear_9487_90517)" />
    <path opacity="0.25"
        d="M128.898 161.474L118.704 162.542C116.663 162.757 114.836 161.276 114.621 159.235L113.552 149.039C113.338 147 114.818 145.17 116.86 144.957L127.054 143.886C129.095 143.673 130.923 145.154 131.138 147.197L132.207 157.391C132.421 159.432 130.939 161.259 128.898 161.474Z"
        fill="url(#paint13_linear_9487_90517)" />
    <path opacity="0.25"
        d="M156.626 158.566L146.432 159.633C144.391 159.849 142.564 158.367 142.349 156.326L141.28 146.131C141.066 144.091 142.546 142.262 144.588 142.049L154.782 140.978C156.823 140.765 158.651 142.244 158.866 144.288L159.935 154.481C160.148 156.523 158.667 158.351 156.626 158.566Z"
        fill="url(#paint14_linear_9487_90517)" />
    <path d="M145.175 127.188L148.189 129.631L152.216 124.658" stroke="white"
        stroke-miterlimit="10" />
    <path opacity="0.45"
        d="M135.173 60.6836L118.078 62.4781L118.239 64.0066L135.333 62.2121L135.173 60.6836Z"
        fill="black" />
    <path
        d="M202.523 178.826C202.474 178.859 202.408 178.906 202.359 178.939L202.293 178.905L202.275 178.888L177.628 169.12L174.328 167.804L174.245 167.771C174.245 167.657 174.065 166.998 173.8 166.029C172.8 162.482 170.469 154.766 170.469 154.766C170.469 154.766 170.254 154.666 169.861 154.471C168.236 153.683 163.603 151.334 159.254 148.114C156.528 146.096 153.899 143.747 152.226 141.236C152.078 141.039 151.946 140.825 151.815 140.628C151.618 140.316 151.437 140.004 151.29 139.676C150.666 138.51 150.14 137.295 149.748 136.08C148.909 133.569 148.564 131.04 148.695 129.003C148.843 126.505 149.697 124.717 151.224 124.452C151.831 124.339 152.556 124.47 153.377 124.897C154.23 125.342 155.495 125.899 157.006 126.523C158.812 127.262 161.011 128.131 163.377 129.068C164.658 129.579 166.004 130.121 167.367 130.677C168.434 131.104 169.502 131.546 170.569 131.973C177.597 134.93 184.313 138.114 185.988 140.628C189.305 145.605 194.182 169.12 202.523 178.826Z"
        fill="url(#paint15_linear_9487_90517)" />
    <path
        d="M163.377 129.07L160.618 133.7C160.618 133.7 151.979 129.891 151.224 124.454C151.831 124.341 152.555 124.472 153.376 124.899C155.232 125.869 159.025 127.346 163.377 129.07Z"
        fill="url(#paint16_linear_9487_90517)" />
    <path
        d="M177.629 169.12L174.247 167.773C174.247 167.248 170.47 154.768 170.47 154.768C170.47 154.768 156.529 148.379 151.816 140.63C151.619 140.318 151.439 140.006 151.291 139.677C157.746 146.607 168.647 148.906 171.307 151.748C174 154.62 177.04 164.274 177.629 169.12Z"
        fill="url(#paint17_linear_9487_90517)" />
</svg>
