<svg width="48" height="32" viewBox="0 0 48 32" fill="none" xmlns="http://www.w3.org/2000/svg">
    <defs>
        <linearGradient id="paint0_linear" x1="47.1246" y1="15.9282" x2="1.31307" y2="15.9282" gradientUnits="userSpaceOnUse">
            <stop stop-color="#4C84FF"/>
            <stop offset="1" stop-color="#7C6FFF"/>
        </linearGradient>
    </defs>
    <rect width="48" height="32" rx="7" fill="url(#paint0_linear)"/>
    <path d="M14.4535 23V23C12.27 23 10.5 21.23 10.5 19.0465V15.0408V12.5C10.5 9.73858 12.7386 7.5 15.5 7.5H22.0523H30.8524C32.5086 7.5 34.0572 8.32004 34.988 9.68984L37.1356 12.8503C37.6988 13.6792 38 14.6583 38 15.6605V19.5465C38 21.4538 36.4538 23 34.5465 23V23M23.5 23H26.5" stroke="#97B8FF" stroke-linecap="round"/>
    <path d="M21 23C21 24.6569 19.6569 26 18 26C16.3431 26 15 24.6569 15 23C15 21.3431 16.3431 20 18 20C19.6569 20 21 21.3431 21 23Z" stroke="#97B8FF" stroke-linecap="round"/>
    <path d="M35 23C35 24.6569 33.6569 26 32 26C30.3431 26 29 24.6569 29 23C29 21.3431 30.3431 20 32 20C33.6569 20 35 21.3431 35 23Z" stroke="#97B8FF" stroke-linecap="round"/>
    <path d="M19 23C19 23.5523 18.5523 24 18 24C17.4477 24 17 23.5523 17 23C17 22.4477 17.4477 22 18 22C18.5523 22 19 22.4477 19 23Z" stroke="#97B8FF" stroke-linecap="round"/>
    <path d="M33 23C33 23.5523 32.5523 24 32 24C31.4477 24 31 23.5523 31 23C31 22.4477 31.4477 22 32 22C32.5523 22 33 22.4477 33 23Z" stroke="#97B8FF" stroke-linecap="round"/>
    <path d="M31.5 10V15M25.5 10V15M19.5 10V15" stroke="#97B8FF"/>
    <path d="M38 17.5H36.1412C35.5889 17.5 35.1412 17.9477 35.1412 18.5V18.5C35.1412 19.0523 35.5889 19.5 36.1412 19.5H38M37.5 15.5H25.7118H16.1055C14.6194 15.5 13.4615 14.2115 13.6197 12.7339V12.7339C13.7557 11.4634 14.8278 10.5 16.1055 10.5H22.7529H31.6471H35.1412M29.5 17.5H31.4059M13.5412 18.5H11M12.9059 20.5H11.3176" stroke="#97B8FF" stroke-linecap="round"/>
</svg>
