<svg width="180" height="180" viewBox="0 0 180 180" fill="none" xmlns="http://www.w3.org/2000/svg">
    <defs>
        <filter id="filter0_d" x="57" y="44" width="74" height="91" filterUnits="userSpaceOnUse"
            color-interpolation-filters="sRGB">
            <feFlood flood-opacity="0" result="BackgroundImageFix" />
            <feColorMatrix in="SourceAlpha" type="matrix"
                values="0 0 0 0 0 0 0 0 0 0 0 0 0 0 0 0 0 0 127 0" result="hardAlpha" />
            <feOffset dx="4" dy="4" />
            <feGaussianBlur stdDeviation="3" />
            <feColorMatrix type="matrix"
                values="0 0 0 0 0.298039 0 0 0 0 0.521569 0 0 0 0 1 0 0 0 0.19 0" />
            <feBlend mode="normal" in2="BackgroundImageFix" result="effect1_dropShadow" />
            <feBlend mode="normal" in="SourceGraphic" in2="effect1_dropShadow" result="shape" />
        </filter>
        <linearGradient id="paint0_linear" x1="161.5" y1="93" x2="211.595" y2="89.4554"
            gradientUnits="userSpaceOnUse">
            <stop offset="4e-07" stop-color="#C7FFAB" />
            <stop offset="1" stop-color="#83CFD3" />
        </linearGradient>
        <linearGradient id="paint1_linear" x1="50.6096" y1="74.616" x2="-2.69227" y2="71.1993"
            gradientUnits="userSpaceOnUse">
            <stop offset="4e-07" stop-color="#C7FFAB" />
            <stop offset="1" stop-color="#83CFD3" />
        </linearGradient>
        <clipPath id="clip0">
            <path
                d="M0 90C0 40.2944 40.2944 0 90 0C139.706 0 180 40.2944 180 90C180 139.706 139.706 180 90 180C40.2944 180 0 139.706 0 90Z"
                fill="white" />
        </clipPath>
    </defs>
    <g clip-path="url(#clip0)">
        <path
            d="M0 90C0 40.2944 40.2944 0 90 0C139.706 0 180 40.2944 180 90C180 139.706 139.706 180 90 180C40.2944 180 0 139.706 0 90Z"
            fill="#D3E1FF" />
        <g opacity="0.3">
            <path d="M0 122C0 122 90 76.9999 180 122C203.053 133.527 180 188 180 188H0V122Z"
                fill="#97B8FF" />
        </g>
        <path opacity="0.3" d="M57.5 104H121.908L141 183H37L57.5 104Z" fill="#EEF3FF" />
        <g filter="url(#filter0_d)">
            <mask id="path-4-inside-1" fill="white">
                <path fill-rule="evenodd" clip-rule="evenodd"
                    d="M59 54C59 49.5817 62.5817 46 67 46H113C117.418 46 121 49.5817 121 54V104.03C121 107.262 119.083 110.046 116.325 111.308V121C116.325 123.209 114.534 125 112.325 125H109.804C107.595 125 105.804 123.209 105.804 121V112.03H74.2439V121C74.2439 123.209 72.4531 125 70.2439 125H67.7238C65.5147 125 63.7238 123.209 63.7238 121V111.33C60.9391 110.079 59 107.281 59 104.03V54Z" />
            </mask>
            <path fill-rule="evenodd" clip-rule="evenodd"
                d="M59 54C59 49.5817 62.5817 46 67 46H113C117.418 46 121 49.5817 121 54V104.03C121 107.262 119.083 110.046 116.325 111.308V121C116.325 123.209 114.534 125 112.325 125H109.804C107.595 125 105.804 123.209 105.804 121V112.03H74.2439V121C74.2439 123.209 72.4531 125 70.2439 125H67.7238C65.5147 125 63.7238 123.209 63.7238 121V111.33C60.9391 110.079 59 107.281 59 104.03V54Z"
                fill="white" />
            <path
                d="M116.325 111.308L115.493 109.49L114.325 110.024V111.308H116.325ZM105.804 112.03H107.804V110.03H105.804V112.03ZM74.2439 112.03V110.03H72.2439V112.03H74.2439ZM63.7238 111.33H65.7238V110.037L64.5437 109.506L63.7238 111.33ZM67 44C61.4772 44 57 48.4772 57 54H61C61 50.6863 63.6863 48 67 48V44ZM113 44H67V48H113V44ZM123 54C123 48.4772 118.523 44 113 44V48C116.314 48 119 50.6863 119 54H123ZM123 104.03V54H119V104.03H123ZM117.157 113.127C120.601 111.552 123 108.073 123 104.03H119C119 106.451 117.566 108.541 115.493 109.49L117.157 113.127ZM118.325 121V111.308H114.325V121H118.325ZM112.325 127C115.638 127 118.325 124.314 118.325 121H114.325C114.325 122.105 113.429 123 112.325 123V127ZM109.804 127H112.325V123H109.804V127ZM103.804 121C103.804 124.314 106.491 127 109.804 127V123C108.7 123 107.804 122.105 107.804 121H103.804ZM103.804 112.03V121H107.804V112.03H103.804ZM74.2439 114.03H105.804V110.03H74.2439V114.03ZM76.2439 121V112.03H72.2439V121H76.2439ZM70.2439 127C73.5576 127 76.2439 124.314 76.2439 121H72.2439C72.2439 122.105 71.3485 123 70.2439 123V127ZM67.7238 127H70.2439V123H67.7238V127ZM61.7238 121C61.7238 124.314 64.4101 127 67.7238 127V123C66.6193 123 65.7238 122.105 65.7238 121H61.7238ZM61.7238 111.33V121H65.7238V111.33H61.7238ZM57 104.03C57 108.097 59.4274 111.592 62.9039 113.155L64.5437 109.506C62.4508 108.566 61 106.465 61 104.03H57ZM57 54V104.03H61V54H57Z"
                fill="white" mask="url(#path-4-inside-1)" />
        </g>
        <path opacity="0.5" d="M65 61H90.0438H114" stroke="#97B8FF" stroke-width="2"
            stroke-linecap="round" />
        <path opacity="0.5" d="M85.8359 53H94.0897" stroke="#97B8FF" stroke-width="2"
            stroke-linecap="round" />
        <path d="M54 64.8657V71.9403" stroke="white" stroke-width="4" stroke-linecap="round" />
        <path d="M125.925 64.8657V71.9403" stroke="white" stroke-width="4" stroke-linecap="round" />
        <path opacity="0.5"
            d="M85.8359 102.597C86.5904 100.004 88.4178 99.0597 90.5523 99.0597C92.6868 99.0597 94.5143 100.004 95.2688 102.597"
            stroke="#97B8FF" stroke-width="2" stroke-linecap="round" stroke-linejoin="round" />
        <path opacity="0.5" fill-rule="evenodd" clip-rule="evenodd"
            d="M77.717 86.4648C79.5536 81.9276 84.0242 79.7117 89.5458 79.7117C95.0675 79.7117 99.5382 81.9276 101.375 86.4648C101.536 86.8626 101.924 87.1004 102.329 87.0895C102.334 87.0895 102.338 87.0896 102.343 87.0896H115C115.552 87.0896 116 86.6418 116 86.0896C116 85.5373 115.552 85.0896 115 85.0896H102.956C100.568 79.9841 95.3388 77.7117 89.5458 77.7117C83.7528 77.7117 78.5242 79.9841 76.1354 85.0896H65C64.4477 85.0896 64 85.5373 64 86.0896C64 86.6418 64.4477 87.0896 65 87.0896H76.4029C76.4691 87.0896 76.5338 87.0831 76.5965 87.0708C77.0579 87.1624 77.534 86.9169 77.717 86.4648Z"
            fill="#97B8FF" />
        <path opacity="0.5"
            d="M70.5333 96.0353C70.5333 97.0687 69.6955 97.9065 68.6621 97.9065C67.6288 97.9065 66.791 97.0687 66.791 96.0353C66.791 95.0019 67.6288 94.1642 68.6621 94.1642C69.6955 94.1642 70.5333 95.0019 70.5333 96.0353Z"
            fill="#97B8FF" stroke="#97B8FF" stroke-width="2" />
        <path opacity="0.5"
            d="M112.981 96.0353C112.981 97.0687 112.143 97.9065 111.11 97.9065C110.077 97.9065 109.239 97.0687 109.239 96.0353C109.239 95.0019 110.077 94.1642 111.11 94.1642C112.143 94.1642 112.981 95.0019 112.981 96.0353Z"
            fill="#97B8FF" stroke="#97B8FF" stroke-width="2" />
        <path opacity="0.7"
            d="M119.141 38.0355C116.688 37.7794 115.477 38.6226 114.124 38.287C112.772 37.9515 112.202 37.6402 111.613 36.9282C111.025 36.2161 110.621 34.9654 111.626 34.0489C112.797 32.9814 115.23 32.5693 117.282 33.6537C118.876 34.4959 119.737 34.1668 120.707 34.3218C121.677 34.4768 122.599 34.8279 123.006 35.5086C123.91 37.0178 121.886 38.3221 119.141 38.0355Z"
            fill="#E9F2FF" />
        <path opacity="0.7"
            d="M60.9126 39.1902C55.8178 38.5243 53.299 40.7394 50.4906 39.8625C47.6822 38.9855 46.4987 38.1702 45.2777 36.3037C44.0566 34.4372 43.2211 31.1571 45.3118 28.7501C47.7468 25.9466 52.8007 24.8596 57.0613 27.6994C60.3702 29.9049 62.161 29.0395 64.1749 29.4437C66.1888 29.8479 68.1039 30.7666 68.9487 32.5515C70.8216 36.5086 66.6134 39.9353 60.9126 39.1902Z"
            fill="#E9F2FF" />
        <ellipse opacity="0.7" cx="138.545" cy="38" rx="6" ry="6.54546"
            transform="rotate(-90 138.545 38)" fill="#EEF3FF" />
        <path
            d="M173.388 54.462C175.826 62.1534 177.776 69.9613 179.092 77.7837C179.451 79.7828 179.752 81.8031 180.014 83.822C180.712 88.7478 181.141 93.7045 181.411 98.6529C181.663 104.071 181.666 109.5 181.406 114.902C181.215 118.908 180.883 122.886 180.374 126.84C180.363 126.938 180.349 127.077 180.332 127.173L180.313 127.192C180.229 127.899 180.15 128.604 180.041 129.286C179.961 129.952 179.872 130.58 179.765 131.223C167.023 119.746 174.12 114.513 174.12 114.513C174.12 114.513 158.763 111.275 158.736 98.3274C158.721 85.9529 169.742 86.6638 170.67 86.72C169.942 86.3786 163.444 83.2449 164.119 77.8458C164.829 72.0684 171.47 72.1939 171.47 72.1939C171.47 72.1939 168.68 62.2067 173.388 54.462Z"
            fill="url(#paint0_linear)" />
        <path
            d="M8.72862 21C5.22865 32.0427 2.42949 43.2527 0.539204 54.4834C0.0239142 57.3535 -0.408154 60.2542 -0.783588 63.1527C-1.78542 70.2248 -2.40235 77.3412 -2.78979 84.4457C-3.15197 92.2242 -3.15614 100.02 -2.78243 107.775C-2.50802 113.526 -2.03103 119.238 -1.30072 124.914C-1.28523 125.055 -1.26422 125.255 -1.24008 125.392L-1.21321 125.419C-1.09215 126.434 -0.979409 127.446 -0.822644 128.426C-0.70707 129.382 -0.580294 130.283 -0.426335 131.207C17.8674 114.73 7.67873 107.216 7.67873 107.216C7.67873 107.216 29.7263 102.567 29.7647 83.9784C29.7869 66.2121 13.9644 67.2328 12.6322 67.3134C13.6771 66.8233 23.0065 62.3241 22.0363 54.5726C21.0173 46.2779 11.4824 46.4581 11.4824 46.4581C11.4824 46.4581 15.4881 32.1192 8.72862 21Z"
            fill="url(#paint1_linear)" />
    </g>
</svg>
